<svg width="940" height="500" viewBox="0 0 940 500" fill="none" xmlns="http://www.w3.org/2000/svg">
<mask id="mask0_1_501" style="mask-type:luminance" maskUnits="userSpaceOnUse" x="0" y="0" width="940" height="500">
<path d="M940 0H0V500H940V0Z" fill="white"/>
</mask>
<g mask="url(#mask0_1_501)">
<path d="M245.714 359.966C241.921 364.796 234.889 365.221 228.748 365.235C138.835 365.441 44.405 368.009 -45.508 368.215C-49.334 354.455 -51.975 340.366 -53.391 326.154C-53.728 322.775 -52.301 317.397 -54.839 315.141C-50.889 313.001 -44.203 311.936 -39.874 313.135C-16.08 307.652 7.875 302.146 32.269 301.063C104.289 297.864 173.035 333.174 245.079 335.772C245.921 345.076 245.816 350.624 245.714 359.966Z" fill="#EDDB74"/>
<path d="M749.897 383.055H980.114C984.114 383.055 991.79 382.509 995.79 382.509V332.167C881.105 298.727 754.908 306.317 645.058 353.262C681.636 361.65 713.32 374.668 749.897 383.055Z" fill="#EDDB74"/>
<path d="M586.433 353.495C568.807 346.2 551.181 338.906 533.555 331.611C520.211 326.089 506.807 320.546 492.794 317.054C437.36 303.239 379.634 322.638 325.927 342.114C385.164 371.186 452.261 386.095 517.86 378.955C541.065 376.429 567.325 366.901 586.433 353.495Z" fill="#EDDB74"/>
<path d="M1000.4 512.094C1001.34 507.175 1002.29 440.574 1003.24 435.655C1006.06 421.058 1002.56 403.963 1000.21 389.313C941.498 384.941 883.65 371.326 825.694 362.565C766.908 353.678 715.191 336.336 655.694 333.462C598.812 330.714 538.097 358.305 481.92 363.022C437.885 366.719 396.598 348.389 354.191 340.05C309.384 331.239 281.912 329.877 236.806 335.868C198.47 340.96 143.237 363.85 104.028 362.566C50.054 360.798 -1.708 332.167 -54.461 322.768C-56.814 353.017 -52.259 500.187 -53.96 512.096" fill="#D8C850"/>
</g>
</svg>
