<svg width="1018" height="529" viewBox="0 0 1018 529" fill="none" xmlns="http://www.w3.org/2000/svg">
<g clip-path="url(#clip0_1_491)">
<mask id="mask0_1_491" style="mask-type:luminance" maskUnits="userSpaceOnUse" x="0" y="0" width="1018" height="529">
<path d="M1017.93 0.675003H0.929657V528.675H1017.93V0.675003Z" fill="white"/>
</mask>
<g mask="url(#mask0_1_491)">
<path d="M266.771 380.799C262.668 385.9 255.06 386.348 248.415 386.363C151.137 386.581 48.972 389.292 -48.3062 389.51C-52.4456 374.979 -55.3029 360.101 -56.8349 345.094C-57.1995 341.525 -55.6556 335.846 -58.4015 333.464C-54.128 331.204 -46.8943 330.079 -42.2107 331.346C-16.4676 325.555 9.44967 319.741 35.8419 318.597C113.761 315.219 188.139 352.507 266.084 355.25C266.995 365.075 266.882 370.934 266.771 380.799Z" fill="#EDDB74"/>
<path d="M812.254 405.181H1061.33C1065.66 405.181 1073.96 404.605 1078.29 404.605V351.443C954.21 316.131 817.676 324.146 698.827 373.72C738.402 382.577 772.681 396.324 812.254 405.181Z" fill="#EDDB74"/>
<path d="M635.4 373.966C616.33 366.262 597.261 358.56 578.191 350.856C563.754 345.025 549.252 339.172 534.091 335.484C474.116 320.895 411.661 341.381 353.555 361.947C417.644 392.647 490.238 408.391 561.21 400.851C586.316 398.184 614.727 388.122 635.4 373.966Z" fill="#EDDB74"/>
<path d="M1083.27 541.446C1084.3 536.252 1085.33 465.921 1086.35 460.727C1089.4 445.312 1085.62 427.26 1083.07 411.79C1019.55 407.173 956.964 392.795 894.26 383.544C830.659 374.159 774.705 355.846 710.335 352.811C648.793 349.909 583.105 379.045 522.326 384.026C474.684 387.93 430.015 368.574 384.134 359.768C335.657 350.463 305.934 349.025 257.134 355.352C215.657 360.729 155.9 384.901 113.479 383.545C55.0838 381.678 -0.918255 351.443 -57.9925 341.518C-60.5383 373.461 -55.6101 528.872 -57.4505 541.448" fill="#D8C850"/>
</g>
</g>
<defs>
<clipPath id="clip0_1_491">
<rect width="1017" height="528" fill="white" transform="translate(0.399994 0.674988)"/>
</clipPath>
</defs>
</svg>
