<svg width="1018" height="529" viewBox="0 0 1018 529" fill="none" xmlns="http://www.w3.org/2000/svg">
<path d="M960.791 95.2969C959.903 87.4138 958.545 79.2013 953.686 72.8452C948.827 66.4892 939.403 62.7721 932.295 66.6159C925.008 70.5569 921.621 81.157 913.299 81.5404C901.461 82.0863 899.737 62.3813 888.462 58.8184C879.776 56.0738 871.907 64.4574 866.96 71.9455C862.012 79.4347 854.848 88.1266 845.922 86.2501C834.513 83.8519 833.923 67.6487 825.4 59.8681C816.786 52.004 801.86 55.3621 793.844 63.808C785.829 72.2539 782.938 84.0452 780.343 95.2747L960.791 95.2969Z" fill="#FFF6EB"/>
<path d="M129.03 82.6249C129.918 74.7418 131.276 66.5293 136.135 60.1732C140.994 53.8172 150.418 50.1001 157.525 53.9439C164.813 57.8859 168.2 68.485 176.522 68.8683C188.36 69.4143 190.083 49.7093 201.359 46.1464C210.045 43.4018 217.914 51.7854 222.861 59.2735C227.809 66.7627 234.973 75.4546 243.899 73.5781C255.308 71.1799 255.897 54.9767 264.421 47.1961C273.035 39.332 287.961 42.6901 295.977 51.136C303.993 59.5819 306.882 71.3732 309.478 82.6027L129.03 82.6249Z" fill="#FFF6EB"/>
<path d="M528.09 137.25C528.875 129.367 530.076 121.154 534.373 114.798C538.669 108.442 547.004 104.725 553.288 108.569C559.733 112.511 562.726 123.11 570.087 123.493C580.555 124.039 582.08 104.334 592.05 100.771C599.731 98.0266 606.69 106.41 611.065 113.898C615.44 121.387 621.776 130.079 629.669 128.203C639.758 125.805 640.279 109.601 647.817 101.821C655.434 93.9568 668.634 97.3149 675.721 105.761C682.809 114.207 685.365 125.998 687.66 137.227L528.09 137.25Z" fill="#FFF6EB"/>
<path d="M650.764 227.122C651.938 220.739 651.873 214.312 656.541 210.119C661.21 205.924 668.533 204.633 673.467 208.469C677.992 211.989 680.074 219.129 685.525 220.513C690.298 221.725 694.868 217.607 697.36 213.105C699.851 208.604 701.297 200.118 704.714 196.367C708.308 192.419 713.927 190.708 718.939 192.033C723.949 193.358 728.163 197.671 729.605 202.95C730.939 207.832 732.032 217.135 736.344 219.318C741.524 221.939 743.884 212.545 748.867 209.52C753.529 206.689 759.779 207.174 764.006 210.694C768.233 214.215 769.899 222.31 769.767 229.23" fill="#FFF6EB"/>
<path d="M370.811 215.456C372.103 208.435 372.03 201.365 377.166 196.751C382.302 192.137 390.358 190.716 395.785 194.936C400.764 198.807 403.053 206.662 409.049 208.185C414.301 209.519 419.327 204.989 422.068 200.036C424.808 195.084 426.4 185.75 430.157 181.623C434.112 177.28 440.293 175.398 445.805 176.856C451.317 178.314 455.953 183.058 457.539 188.866C459.006 194.237 460.208 204.471 464.954 206.872C470.651 209.756 473.249 199.422 478.729 196.093C483.857 192.979 490.732 193.512 495.383 197.385C500.033 201.257 501.865 210.163 501.72 217.776" fill="#FFF6EB"/>
</svg>
