<svg width="940" height="500" viewBox="0 0 940 500" fill="none" xmlns="http://www.w3.org/2000/svg">
<path d="M887.677 89.604C886.856 82.139 885.601 74.362 881.11 68.343C876.619 62.324 867.908 58.804 861.339 62.444C854.603 66.176 851.473 76.214 843.781 76.577C832.839 77.094 831.246 58.434 820.824 55.06C812.796 52.461 805.523 60.4 800.95 67.491C796.377 74.583 789.755 82.814 781.505 81.037C770.96 78.766 770.415 63.422 762.537 56.054C754.575 48.607 740.779 51.787 733.37 59.785C725.962 67.783 723.29 78.949 720.891 89.583L887.677 89.604Z" fill="#FFF6EB"/>
<path d="M118.891 77.604C119.712 70.139 120.967 62.362 125.458 56.343C129.949 50.324 138.66 46.804 145.229 50.444C151.965 54.177 155.095 64.214 162.787 64.577C173.729 65.094 175.322 46.434 185.744 43.06C193.772 40.461 201.045 48.4 205.618 55.491C210.191 62.583 216.813 70.814 225.063 69.037C235.608 66.766 236.153 51.422 244.031 44.054C251.993 36.607 265.789 39.787 273.198 47.785C280.607 55.783 283.277 66.949 285.677 77.583L118.891 77.604Z" fill="#FFF6EB"/>
<path d="M487.737 129.332C488.463 121.867 489.573 114.09 493.544 108.071C497.515 102.052 505.219 98.532 511.027 102.172C516.984 105.905 519.751 115.942 526.554 116.305C536.23 116.822 537.639 98.162 546.855 94.788C553.954 92.189 560.386 100.128 564.43 107.219C568.474 114.311 574.33 122.542 581.625 120.765C590.95 118.494 591.432 103.15 598.399 95.782C605.44 88.335 617.64 91.515 624.191 99.513C630.742 107.511 633.104 118.677 635.226 129.311L487.737 129.332Z" fill="#FFF6EB"/>
<path d="M601.123 214.438C602.208 208.394 602.148 202.308 606.463 198.337C610.778 194.365 617.547 193.142 622.107 196.775C626.29 200.108 628.214 206.869 633.252 208.18C637.664 209.328 641.888 205.428 644.191 201.165C646.494 196.902 647.83 188.866 650.988 185.314C654.31 181.576 659.504 179.955 664.136 181.21C668.767 182.465 672.662 186.549 673.995 191.548C675.228 196.171 676.238 204.981 680.224 207.048C685.011 209.53 687.193 200.634 691.798 197.77C696.107 195.089 701.884 195.548 705.791 198.882C709.698 202.216 711.238 209.882 711.116 216.435" fill="#FFF6EB"/>
<path d="M342.366 203.391C343.56 196.742 343.493 190.047 348.24 185.678C352.987 181.309 360.433 179.963 365.449 183.959C370.051 187.625 372.167 195.063 377.709 196.506C382.563 197.769 387.209 193.479 389.742 188.789C392.275 184.099 393.746 175.26 397.219 171.352C400.874 167.24 406.587 165.457 411.682 166.838C416.777 168.219 421.062 172.711 422.528 178.211C423.884 183.297 424.995 192.989 429.381 195.262C434.647 197.993 437.048 188.207 442.113 185.055C446.853 182.106 453.208 182.611 457.506 186.278C461.804 189.945 463.498 198.379 463.364 205.588" fill="#FFF6EB"/>
</svg>
