<svg width="1018" height="529" viewBox="0 0 1018 529" fill="none" xmlns="http://www.w3.org/2000/svg">
<g clip-path="url(#clip0_1_491)">
<mask id="mask0_1_491" style="mask-type:luminance" maskUnits="userSpaceOnUse" x="0" y="0" width="1018" height="529">
<path d="M1017.4 0.675003H0.399994V528.675H1017.4V0.675003Z" fill="white"/>
</mask>
<g mask="url(#mask0_1_491)">
<path d="M618.845 523.1C618.116 512.663 623.817 493.156 629.211 483.652C630.351 481.644 631.495 479.63 632.909 477.739C637.159 472.058 643.643 467.735 650.001 463.529C651.921 475.975 648.057 489.699 639.526 500.182C633.085 508.096 624.05 514.615 618.845 523.1Z" fill="#D8C850"/>
<path d="M620.867 520.021C625.754 510.104 629.848 499.342 635.068 489.588C639.688 480.95 644.568 472.444 649.695 464.084" stroke="#937E02" stroke-width="1.05128" stroke-miterlimit="10" stroke-linecap="round" stroke-linejoin="round"/>
<path d="M617.036 500.219C613.068 489.167 609.098 478.116 605.13 467.064C603.898 463.632 602.661 460.186 601.943 456.617C600.27 448.305 601.466 439.632 599.774 431.323C597.864 421.936 592.418 413.653 587.08 405.624C589.361 412.691 590.409 421.109 591.951 428.363C592.594 431.387 593.174 434.488 592.735 437.546C591.853 443.715 586.948 448.981 586.877 455.208C586.825 459.665 589.272 463.741 591.641 467.552C600.16 481.258 608.68 494.966 617.199 508.673" fill="#D8C850"/>
<path d="M587.182 406.049C591.752 415.942 596.405 426.191 596.545 437.042C596.622 443.038 595.305 449.009 595.649 454.996C596.004 461.182 598.117 467.136 600.454 472.896C605.085 484.311 610.681 495.353 617.165 505.873" stroke="#937E02" stroke-width="1.05128" stroke-miterlimit="10" stroke-linecap="round" stroke-linejoin="round"/>
<path d="M620.251 519.807C624.691 514.971 629.246 510.045 635.061 506.89C636.155 506.296 637.448 505.758 638.622 506.18C644.672 508.355 651.514 508.613 656.733 512.309C658.662 513.676 660.54 515.381 661.116 517.639C661.397 518.744 660.945 519.193 660.569 520.27C660.194 521.348 659.514 522.296 658.812 523.204C657.869 524.426 656.87 525.606 655.873 526.787C653.561 529.521 653.434 529.671 651.122 532.405C651.122 532.405 649.989 526.242 649.681 521.794C649.514 519.401 649.127 516.912 647.693 514.964C642.31 514.271 636.516 514.955 631.349 516.584C630.028 517 628.714 517.498 627.59 518.295C626.557 519.027 625.392 519.91 624.563 520.859C622.886 522.78 621.005 524.643 620.014 526.975" fill="#D8C850"/>
<path d="M634.108 507.429C629.884 509.926 623.976 514.831 620.072 519.819C620.072 519.819 619.861 526.189 620.072 527.677C620.327 527.203 622.498 523.847 622.812 523.408C625.508 519.628 629.293 516.955 633.881 515.875C639.08 514.65 643.681 514.698 647.695 514.964C644.68 512.569 639.71 509.498 636.151 507.976C635.496 507.696 634.188 507.382 634.108 507.429Z" fill="#364715"/>
<path d="M651.078 531.851C652.478 529.161 653.892 526.435 654.573 523.491C655.255 520.547 655.138 517.313 653.599 514.697C651.656 511.395 647.861 509.623 644.218 508.261C641.849 507.375 639.445 506.579 637.013 505.873" stroke="#937E02" stroke-width="1.05128" stroke-miterlimit="10" stroke-linecap="round" stroke-linejoin="round"/>
<path d="M618.43 532.346C615.344 528.795 612.257 525.244 609.172 521.694C606.828 518.998 604.405 516.237 601.202 514.585C598.164 513.017 594.661 512.572 591.234 512.328C589.472 512.202 587.607 512.144 586.048 512.954C584.257 513.886 583.226 515.79 582.624 517.681C581.714 520.536 581.544 523.614 582.136 526.547C578.942 522.929 576.72 517.444 577.92 512.815C579.119 508.185 582.737 504.219 587.31 502.519C591.457 500.977 602.017 501.029 602.028 501.416C604.71 503.425 608.223 505.071 609.691 508.044C610.517 509.713 615.974 520.985 617.666 523.982C617.666 523.982 618.029 528.91 618.43 532.346Z" fill="#D8C850"/>
<path d="M617.918 526.501C615.345 522.676 612.532 519.005 609.5 515.516C606.813 512.425 603.876 509.418 600.175 507.58C596.473 505.743 591.851 505.246 588.213 507.197C585.482 508.662 582.912 510.31 581.423 512.982C579.558 516.33 580.041 523.332 582.137 526.547" stroke="#937E02" stroke-width="1.05128" stroke-miterlimit="10" stroke-linecap="round" stroke-linejoin="round"/>
<path d="M618.078 460.404C618.863 503.545 619.008 548.11 618.433 585.277" stroke="#364715" stroke-width="3.15385" stroke-miterlimit="10"/>
<path d="M618.687 470.256C618.534 467.835 617.135 465.689 615.939 463.562C609.971 452.946 608.382 440.406 609.291 428.329C610.2 416.252 613.465 404.478 616.714 392.791C618.971 398.631 621.785 406.743 624.042 412.584C626.711 419.488 624.432 427.433 624.551 434.705C624.758 447.227 624.983 459.132 618.687 470.256Z" fill="#364715"/>
<path d="M482.806 415.688C483.591 458.83 483.736 548.11 483.161 585.278" stroke="#364715" stroke-width="3.15385" stroke-miterlimit="10"/>
<path d="M482.145 418.11C473.698 412.965 465.845 400.124 462.659 390.917C460.464 384.573 457.969 378.329 455.183 372.211C454.206 370.066 453.146 367.872 451.346 366.314C449.39 364.621 446.792 363.875 444.366 362.925C439.699 361.097 435.409 358.356 431.827 354.91C435.416 369.654 452.682 379.575 456.224 394.331C456.911 397.193 456.98 400.165 457.559 403.05C458.337 406.923 460.022 410.576 462.044 413.996C466.731 421.917 474.34 428.959 482.144 434.026" fill="#364715"/>
<path d="M483.511 530.053C488.341 525.511 494.886 519.393 500.55 515.885C503.963 513.771 509.031 510.972 512.759 512.497C513.852 515.502 515.762 520.609 516.853 523.615C515.078 523.549 513.287 523.508 511.493 523.472C506.796 523.376 502.268 525.168 498.978 528.443C494.109 533.29 488.022 538.779 484.951 543.052L483.511 530.053Z" fill="#364715"/>
<path d="M512.759 512.497C516.499 513.783 520.473 516.171 523.609 518.541C524.899 519.515 526.144 520.597 526.989 521.959C528.394 524.226 528.543 527.001 528.655 529.649C528.722 531.238 528.78 532.879 528.192 534.363C527.7 535.599 526.797 536.629 525.987 537.693C523.446 541.026 521.696 544.928 520.909 549.01C517.656 543.597 517.045 536.827 517.896 530.607C518.051 529.479 518.251 528.338 518.11 527.207C517.965 526.039 517.463 524.945 516.968 523.873C515.307 520.277 513.623 515.973 512.759 512.497Z" fill="#D8C850"/>
<path d="M484.541 433.099C480.179 419.17 474.674 406.784 470.314 392.855C467.146 382.737 463.953 372.484 463.493 361.913C463.068 352.123 465 342.405 466.165 332.673C467.859 318.537 467.935 304.271 468.01 290.039C486.561 335.913 491.484 384.25 484.541 433.099Z" fill="#937E02"/>
<path d="M500.422 450.235C503.806 446.572 504.694 446.405 509.279 444.331C513.864 442.257 519.371 441.698 523.953 443.779C527.454 445.37 530.095 448.306 532.515 451.244C540.038 460.375 546.5 470.338 551.74 480.881C531.336 478.07 512.019 466.858 500.422 450.235Z" fill="#D8C850"/>
<path d="M500.721 450.66C509.199 446.394 517.012 449.593 522.934 454.045C528.855 458.499 533.449 464.374 538.508 469.746C542.301 473.775 546.535 477.631 551.443 480.171" stroke="#937E02" stroke-width="1.05128" stroke-miterlimit="10" stroke-linecap="round" stroke-linejoin="round"/>
<path d="M468.009 447.872C472.508 456.66 474.631 466.593 474.112 476.403C473.921 480.028 473.375 483.634 473.339 487.264C473.23 498.221 479.736 510.079 484.154 520.153V521.768C470.198 510.27 465.143 491.346 464.487 473.532C464.377 470.535 463.579 466.449 461.487 464.252C462.223 459.317 463.48 454.401 466.289 450.235C466.842 449.414 467.167 448.704 468.009 447.872Z" fill="#364715"/>
<path d="M464.153 500.449C460.431 483.2 459.541 463.947 468.009 447.872C462.232 446.431 455.334 445.837 448.267 446.851C450.344 459.931 450.455 472.881 456.144 484.897C458.861 490.635 461.652 496.658 464.153 500.449Z" fill="#D8C850"/>
<path d="M458.138 446.344C455.146 464.365 456.874 484.937 463.92 501.847" stroke="#937E02" stroke-width="1.05128" stroke-miterlimit="10" stroke-linecap="round" stroke-linejoin="round"/>
<path d="M508.122 438.445C511.042 431.185 511.674 429.755 511.821 422.75C511.859 420.934 511.849 419.066 511.162 417.379C510.475 415.691 508.164 413.434 506.309 413.291C504.581 413.158 502.943 414.211 501.91 415.57C500.877 416.929 493.946 429.218 492.754 434.076C493.064 435.353 493.059 436.464 493.369 437.741C493.637 438.844 493.907 439.951 494.301 441.019C494.67 442.018 495.147 442.975 495.646 443.919C496.951 446.389 498.068 448.67 500.42 450.236C501.896 449.591 507.693 439.514 508.122 438.445Z" fill="#EF920F"/>
<path d="M495.988 435.365L506.861 414.055" stroke="#D37300" stroke-width="1.05128" stroke-miterlimit="10" stroke-linecap="round"/>
<path d="M497.519 443.197L510.351 417.461" stroke="#D37300" stroke-width="1.05128" stroke-miterlimit="10" stroke-linecap="round"/>
<path d="M501.339 417.582C504.678 419.865 507.893 422.323 510.964 424.942" stroke="#D37300" stroke-width="1.05128" stroke-miterlimit="10" stroke-linecap="round"/>
<path d="M498.196 422.964C500.996 424.656 503.682 426.526 506.234 428.557C507.642 429.677 509.008 430.845 510.374 432.013" stroke="#D37300" stroke-width="1.05128" stroke-miterlimit="10" stroke-linecap="round"/>
<path d="M496.152 428.271C496.994 428.952 497.836 429.632 498.678 430.313C501.816 432.849 504.956 435.388 507.899 438.137" stroke="#D37300" stroke-width="1.05128" stroke-miterlimit="10" stroke-linecap="round"/>
<path d="M495.624 435.166C499.015 438.013 501.575 440.164 504.966 443.011" stroke="#D37300" stroke-width="1.05128" stroke-miterlimit="10" stroke-linecap="round"/>
<path d="M500.422 450.235C495.716 442.957 493.965 433.913 495.627 425.46C496.36 421.732 497.721 418.152 498.716 414.481C500.021 409.669 500.697 404.694 500.722 399.715C498.338 408.783 494.965 417.498 491.76 426.322C490.166 430.713 488.369 435.042 487.097 439.533C483.768 451.299 482.145 467.664 484.154 478.045" fill="#364715"/>
<path d="M722.149 383.344C717.157 376.141 718.061 365.922 718.072 357.011C718.08 350.575 718.807 344.165 719.533 337.769C722.233 313.98 724.933 290.19 727.634 266.401C734.558 277.561 742.414 289.325 742.992 302.36C743.523 314.363 738.422 325.832 735.954 337.602C732.545 353.857 733.145 370.691 722.149 383.344Z" fill="#364715"/>
<path d="M719.614 378.106C710.764 371.386 706.617 361.788 703.897 351.171C702.18 344.472 700.675 337.722 699.382 330.933C697.322 320.112 695.805 309.2 694.289 298.294C693.162 290.177 692.034 282.062 690.906 273.946C701.005 288.355 711.365 302.051 713.956 319.325C714.837 325.194 714.784 331.154 715.183 337.073C716.171 351.709 715.884 363.899 719.614 378.106Z" fill="#937E02"/>
<path d="M720.95 423.293C720.855 415.521 720.407 406.241 721.254 397.853C721.289 397.515 721.088 397.247 720.884 397.523C717.631 388.6 712.509 380.331 705.925 373.373C705.408 372.827 704.868 372.278 704.19 371.94C703.715 371.704 703.005 371.693 702.253 371.798C700.396 372.054 698.908 373.407 698.332 375.151C697.084 378.935 696.927 383.059 697.467 387.021C698.131 391.897 699.794 396.585 701.567 401.188C703.452 406.079 708.481 408.718 712.202 412.473C715.37 415.671 718.848 419.679 720.95 423.293Z" fill="#EF920F"/>
<path d="M697.676 381.931C701.556 381.16 708.898 377.834 708.898 377.834" stroke="#D37300" stroke-width="1.05128" stroke-miterlimit="10" stroke-linecap="round"/>
<path d="M698.16 389.018C698.16 389.018 700.188 388.309 701.4 387.799C705.207 386.197 709.013 384.595 712.82 382.993" stroke="#D37300" stroke-width="1.05128" stroke-miterlimit="10" stroke-linecap="round"/>
<path d="M699.996 395.987L716.489 388.561" stroke="#D37300" stroke-width="1.05128" stroke-miterlimit="10" stroke-linecap="round"/>
<path d="M702.16 402.057C707.707 400.299 714.331 397.697 719.579 395.215" stroke="#D37300" stroke-width="1.05128" stroke-miterlimit="10" stroke-linecap="round"/>
<path d="M706.94 407.065C710.702 405.438 719.205 402.362 719.205 402.362" stroke="#D37300" stroke-width="1.05128" stroke-miterlimit="10" stroke-linecap="round"/>
<path d="M712.629 411.403L719.998 408.437" stroke="#D37300" stroke-width="1.05128" stroke-miterlimit="10" stroke-linecap="round"/>
<path d="M703.288 373.765L719.58 413.101" stroke="#D37300" stroke-width="1.05128" stroke-miterlimit="10" stroke-linecap="round"/>
<path d="M698.535 377.197L713.406 413.101" stroke="#D37300" stroke-width="1.05128" stroke-miterlimit="10" stroke-linecap="round"/>
<path d="M722.795 431.978C723.88 417.227 735.963 401.558 740.238 396.437C741.104 395.4 742.552 395.03 743.827 395.522L746.337 396.49C747.801 397.055 748.61 398.585 748.229 400.075C746.893 405.305 743.824 416.948 741.957 421.187C738.259 421.417 734.82 422.347 731.409 423.76C729.898 424.387 728.37 425.177 727.458 426.509C726.974 427.215 726.695 428.03 726.42 428.835C726.012 430.029 725.605 431.222 725.197 432.416C725.12 432.644 725.025 432.893 724.812 433.013C724.666 433.095 724.488 433.103 724.319 433.091C723.578 433.039 723.215 432.577 722.795 431.978Z" fill="#EF920F"/>
<path d="M742.727 396.381L728.391 421.197" stroke="#D37300" stroke-width="1.05128" stroke-miterlimit="10" stroke-linecap="round"/>
<path d="M746.543 397.614L736.136 419.173" stroke="#D37300" stroke-width="1.07967" stroke-miterlimit="10" stroke-linecap="round"/>
<path d="M739.208 398.829C742.369 400.051 744.073 400.71 747.233 401.932" stroke="#D37300" stroke-width="1.07967" stroke-miterlimit="10" stroke-linecap="round"/>
<path d="M736.136 402.714C739.295 403.936 742.402 405.138 745.561 406.36" stroke="#D37300" stroke-width="1.07967" stroke-miterlimit="10" stroke-linecap="round"/>
<path d="M733.099 406.894C736.812 408.393 744.611 411.385 744.611 411.385" stroke="#D37300" stroke-width="1.07967" stroke-miterlimit="10" stroke-linecap="round"/>
<path d="M730.774 410.682C734.487 412.181 743.22 415.687 743.22 415.687" stroke="#D37300" stroke-width="1.07967" stroke-miterlimit="10" stroke-linecap="round"/>
<path d="M728.892 415.073C732.605 416.572 741.838 419.768 741.838 419.768" stroke="#D37300" stroke-width="1.07967" stroke-miterlimit="10" stroke-linecap="round"/>
<path d="M725.002 472.99C727.816 461.729 732.137 449.896 737.253 439.437L727.153 422.958C725.394 427.735 724.465 432.378 723.779 437.41" fill="#364715"/>
<path d="M728.616 422.953C732.383 422.171 736.634 420.089 740.475 420.375C744.316 420.661 748.206 422.027 750.804 424.804C756.214 430.583 754.27 439.676 756.124 447.292C757.019 450.965 758.867 454.467 758.935 458.241C759.022 463.089 756.183 467.469 753.448 471.518C753.983 464.456 748.832 457.09 744.75 451.236C739.638 443.906 734.899 436.327 730.556 428.537C729.666 426.939 728.251 424.538 727.152 423.068" fill="#D8C850"/>
<path d="M737.017 421.544C740.251 425.089 742.927 429.119 744.923 433.446C746.504 436.872 747.654 440.468 748.801 444.056C750.157 448.3 751.515 452.544 752.872 456.789C754.276 461.181 754.472 467.027 753.447 471.518" stroke="#937E02" stroke-width="1.05128" stroke-miterlimit="10" stroke-linecap="round" stroke-linejoin="round"/>
<path d="M686.183 404.06C688.879 404.908 691.395 406.295 693.531 408.11C696.275 410.443 698.348 413.425 700.89 415.965C704.251 419.322 708.44 421.884 713.001 423.37C715.398 424.151 719.509 423.173 721.621 424.526C715.966 413.659 704.176 403.771 693.484 397.472L686.183 404.06Z" fill="#364715"/>
<path d="M693.484 397.473C691.198 399.799 688.791 402.011 686.276 404.099C684.817 405.309 683.32 406.48 681.976 407.808C679.315 410.44 677.314 413.626 675.338 416.781C671.88 422.304 668.38 427.919 666.611 434.158C665.702 428.338 664.195 422.18 664.436 416.298C664.814 407.066 673.807 401.573 680.673 395.216C685.028 395.215 689.203 396.696 693.484 397.473Z" fill="#D8C850"/>
<path d="M666.645 434.926C666.4 437.521 667.303 427.811 667.949 422.826C668.354 419.7 668.805 416.561 669.767 413.553C670.915 409.965 672.82 406.61 675.328 403.758C678.198 400.493 681.799 397.931 685.364 395.401" stroke="#937E02" stroke-width="1.05128" stroke-miterlimit="10" stroke-linecap="round" stroke-linejoin="round"/>
<path d="M707.991 443.857C704.637 444.603 702.259 450.74 699.505 453.126C697.863 454.548 696.054 455.778 694.391 457.179C690.131 460.766 686.872 465.477 685.056 470.675C683.92 469.663 681.566 465.994 680.985 463.347C680.494 461.11 680.301 458.779 680.761 456.536C681.119 454.792 681.861 453.142 682.744 451.586C684.667 448.194 687.283 445.179 690.392 442.768C696.163 442.951 702.221 443.674 707.991 443.857Z" fill="#D8C850"/>
<path d="M707.991 443.857C709.861 445.353 711.221 447.946 712.379 450.018C713.361 451.776 714.043 453.678 714.656 455.589C717.054 463.063 718.671 471.197 724.116 476.95C719.535 474.051 715.929 471.618 712.378 467.572C710.149 465.031 708.27 462.071 705.422 460.21C700.083 456.721 696.702 456.721 694.245 457.237C697.639 455.088 701.232 451.051 704.004 446.859C705.322 444.869 706.473 444.253 707.991 443.857Z" fill="#364715"/>
<path d="M685.065 470.583C683.718 464.728 685.198 458.314 688.988 453.589C690.193 452.086 691.607 450.759 692.929 449.354C694.772 447.396 696.44 445.282 697.911 443.043" stroke="#937E02" stroke-width="1.05128" stroke-miterlimit="10" stroke-linecap="round" stroke-linejoin="round"/>
<path d="M739.395 485.153C734.534 488.459 731.597 493.248 729.027 498.459C726.458 503.67 724.849 509.274 723.34 514.867C722.528 517.87 724.658 521.607 724.618 524.712C727.14 519.701 730.037 514.336 732.834 509.466C736.426 503.21 748.489 490.639 753.944 485.833L745.942 486.428L739.395 485.153Z" fill="#364715"/>
<path d="M739.396 485.153C743.597 489.634 746.548 495.075 750.258 499.952C753.968 504.828 762.752 512.778 767.242 514.83C767.538 505.671 761.028 490.495 754.074 484.34C748.915 484.975 744.538 485.894 739.396 485.153Z" fill="#D8C850"/>
<path d="M747.552 485.177C755.304 494.996 763.857 502.882 767.241 514.829" stroke="#937E02" stroke-width="1.05128" stroke-miterlimit="10" stroke-linecap="round" stroke-linejoin="round"/>
<path d="M720.95 377.197C723.667 439.571 724.731 522.854 723.766 585.278" stroke="#364715" stroke-width="3.15385" stroke-miterlimit="10"/>
</g>
</g>
<defs>
<clipPath id="clip0_1_491">
<rect width="1017" height="528" fill="white" transform="translate(0.399994 0.674988)"/>
</clipPath>
</defs>
</svg>
