<svg width="940" height="500" viewBox="0 0 940 500" fill="none" xmlns="http://www.w3.org/2000/svg">
<mask id="mask0_1_975" style="mask-type:luminance" maskUnits="userSpaceOnUse" x="0" y="0" width="940" height="500">
<path d="M940 0H0V500H940V0Z" fill="white"/>
</mask>
<g mask="url(#mask0_1_975)">
<path d="M409.426 424.27C407.326 419.472 405.084 414.484 401.017 411.184C396.703 407.683 390.831 406.577 385.293 407.03C383.076 407.211 380.492 407.474 377.854 407.846C372.634 408.582 367.41 405.906 365.256 401.095C361.953 393.715 353.955 388.212 345.797 389.176C342.737 389.538 339.443 390.608 336.726 389.155C334.486 387.958 333.399 385.42 332.143 383.213C326.314 372.964 314.003 367.513 302.214 367.727C294.355 367.87 286.741 370.203 279.688 373.761C274.165 376.547 267.598 376.104 262.57 372.5C255.166 367.193 245.088 365.324 235.925 366.829C223.337 368.898 210.061 379.849 200.24 387.992C223.115 390.242 244.928 392.066 267.737 395.2C316.801 401.942 366.261 411.93 409.426 424.27Z" fill="#1C4732"/>
<path d="M146.048 395.042C145.42 388.095 142.91 381.327 138.856 375.65C128.947 361.777 110.816 355.707 93.773 356.127C79.902 356.469 67.039 358.959 55.51 365.8C51.783 368.011 47.041 367.424 43.945 364.392C42.59 363.065 41.21 361.769 39.662 360.683C33.454 356.33 25.12 355.895 17.832 357.984C14.21 359.022 11.125 360.426 8.202 362.146C3.21201 365.081 -3.187 363.906 -6.932 359.492C-9.1 356.937 -11.098 354.717 -11.576 354.305C-29.929 338.483 -53.309 349.71 -66.713 366.126C-73.07 373.911 -77.251 382.461 -78.996 392.317C-79.411 394.66 -80.679 414.572 -82.883 415.057C-55.9267 409.133 -28.1195 405.186 0 402.445C48.6783 397.699 98.2924 396.566 146.048 395.042Z" fill="#1C4732"/>
</g>
<mask id="mask1_1_975" style="mask-type:luminance" maskUnits="userSpaceOnUse" x="0" y="0" width="940" height="500">
<path d="M940 0H0V500H940V0Z" fill="white"/>
</mask>
<g mask="url(#mask1_1_975)">
<path d="M791.943 513.801C830.351 433.758 910.122 392.593 981.382 424.063C1012.72 437.902 1047.37 471.824 1053.61 515.135L791.943 513.801Z" fill="#183A29"/>
<path d="M709.252 512.202C735.762 456.955 790.822 428.542 840.007 450.263C861.637 459.815 885.554 483.229 889.864 513.123L709.252 512.202Z" fill="#183A29"/>
<path d="M757.167 458.996L782.673 512.576" stroke="#28523E" stroke-miterlimit="10" stroke-linecap="round" stroke-linejoin="round"/>
<path d="M772.499 450.47L786.527 512.638" stroke="#28523E" stroke-miterlimit="10" stroke-linecap="round" stroke-linejoin="round"/>
<path d="M806.545 444.762C806.545 448.48 810.916 514.036 810.916 514.036" stroke="#28523E" stroke-miterlimit="10" stroke-linecap="round" stroke-linejoin="round"/>
<path d="M725.518 487.944C725.109 488.001 725.727 487.459 726.062 487.7C736.22 494.989 751.398 505.179 761.556 512.469" stroke="#28523E" stroke-miterlimit="10" stroke-linecap="round" stroke-linejoin="round"/>
<path d="M839.937 450.117C854.677 472.067 869.418 494.018 884.158 515.968" stroke="#28523E" stroke-miterlimit="10" stroke-linecap="round" stroke-linejoin="round"/>
<path d="M876.687 428.009C879.105 455.538 883.746 488.827 888.949 515.968" stroke="#28523E" stroke-miterlimit="10" stroke-linecap="round" stroke-linejoin="round"/>
<path d="M833.938 449.021C830.833 475.676 827.727 502.33 824.622 528.984" stroke="#28523E" stroke-miterlimit="10" stroke-linecap="round" stroke-linejoin="round"/>
<path d="M909.163 415.148C918.975 449.424 928.786 483.7 938.597 517.977" stroke="#28523E" stroke-miterlimit="10" stroke-linecap="round" stroke-linejoin="round"/>
<path d="M899.853 417.629L929.058 515.135" stroke="#28523E" stroke-miterlimit="10" stroke-linecap="round" stroke-linejoin="round"/>
<path d="M857.73 437.528C858.048 441.262 858.366 444.997 858.683 448.732C859.22 455.047 859.758 461.362 860.295 467.677C860.663 471.999 861.031 476.32 861.45 480.637" stroke="#28523E" stroke-miterlimit="10" stroke-linecap="round" stroke-linejoin="round"/>
<path d="M928.757 414.092C932.116 432.062 942.485 473.541 942.919 473.056" stroke="#28523E" stroke-miterlimit="10" stroke-linecap="round" stroke-linejoin="round"/>
<path d="M791.885 445.613C796.916 456.76 802.216 467.786 807.781 478.677" stroke="#28523E" stroke-miterlimit="10" stroke-linecap="round" stroke-linejoin="round"/>
<path d="M-81.857 539.286C-35.243 445.773 61.572 397.681 148.058 434.447C186.092 450.615 228.146 490.245 235.724 540.844L-81.857 539.286Z" fill="#183A29"/>
<path d="M-28.705 473.887L9.353 542.445" stroke="#28523E" stroke-miterlimit="10" stroke-linecap="round" stroke-linejoin="round"/>
<path d="M16.792 439.437C18.018 444.192 43.349 542.445 43.349 542.445" stroke="#28523E" stroke-miterlimit="10" stroke-linecap="round" stroke-linejoin="round"/>
<path d="M53.056 426.924C54.783 466.461 54.99 504.481 53.693 544.035" stroke="#28523E" stroke-miterlimit="10" stroke-linecap="round" stroke-linejoin="round"/>
<path d="M35.057 432.249C40.542 447.461 46.979 462.33 54.318 476.74" stroke="#28523E" stroke-miterlimit="10" stroke-linecap="round" stroke-linejoin="round"/>
<path d="M78.033 423.22L70.893 540.035" stroke="#28523E" stroke-miterlimit="10" stroke-linecap="round" stroke-linejoin="round"/>
<path d="M106.636 425.419C98.864 463.206 92.29 501.24 86.928 539.444" stroke="#28523E" stroke-miterlimit="10" stroke-linecap="round" stroke-linejoin="round"/>
<path d="M97.346 473.887L140.432 432.078" stroke="#28523E" stroke-miterlimit="10" stroke-linecap="round" stroke-linejoin="round"/>
<path d="M158.045 441.04C149.904 462.935 141.762 484.829 133.621 506.724C128.706 519.942 125.573 526.62 122.091 540.286" stroke="#28523E" stroke-miterlimit="10" stroke-linecap="round" stroke-linejoin="round"/>
<path d="M146.691 542.445C144.834 546.075 176.354 484.45 188.242 461.207" stroke="#28523E" stroke-miterlimit="10" stroke-linecap="round" stroke-linejoin="round"/>
<path d="M148.557 544.034L202.348 473.887" stroke="#28523E" stroke-miterlimit="10" stroke-linecap="round" stroke-linejoin="round"/>
<path d="M188.844 540.779L219.424 497.956" stroke="#28523E" stroke-miterlimit="10" stroke-linecap="round" stroke-linejoin="round"/>
<path d="M216.857 524.191C243.367 468.944 298.427 440.53 347.612 462.252C369.242 471.804 393.159 495.218 397.469 525.112L216.857 524.191Z" fill="#183A29"/>
<path d="M302.883 456.025L307.163 523.734" stroke="#28523E" stroke-miterlimit="10" stroke-linecap="round" stroke-linejoin="round"/>
<path d="M289.309 458.945C296.702 479.522 303.934 505.259 308.34 526.675" stroke="#28523E" stroke-miterlimit="10" stroke-linecap="round" stroke-linejoin="round"/>
<path d="M255.637 477.982C267.923 496.181 280.208 514.38 292.494 532.578" stroke="#28523E" stroke-miterlimit="10" stroke-linecap="round" stroke-linejoin="round"/>
<path d="M268.013 467.85C276.125 492.787 284.325 517.927 297.358 540.682" stroke="#28523E" stroke-miterlimit="10" stroke-linecap="round" stroke-linejoin="round"/>
<path d="M243.085 487.386L279.669 528.406" stroke="#28523E" stroke-miterlimit="10" stroke-linecap="round" stroke-linejoin="round"/>
<path d="M326.014 456.074C323.907 480.8 321.017 505.46 317.35 530.004" stroke="#28523E" stroke-miterlimit="10" stroke-linecap="round" stroke-linejoin="round"/>
<path d="M344.124 460.802L321.041 551.483" stroke="#28523E" stroke-miterlimit="10" stroke-linecap="round" stroke-linejoin="round"/>
<path d="M332.121 526.111C352.336 509.413 357.874 504.5 376.865 486.422" stroke="#28523E" stroke-miterlimit="10" stroke-linecap="round" stroke-linejoin="round"/>
<path d="M343.697 526.738C362.152 514.095 367.016 510.9 385.946 498.98" stroke="#28523E" stroke-miterlimit="10" stroke-linecap="round" stroke-linejoin="round"/>
</g>
<path d="M152.146 339.36L150.176 384.479L157.821 384.816C158.006 383.318 157.928 339.36 157.928 339.36" fill="#CA5B17"/>
<path d="M182.118 347.466C182.118 347.466 194.735 339.129 189.778 328.315C186.334 320.801 178.652 318.54 172.796 319.191C171.735 315.109 166.797 303.606 153.493 302.604C145.314 301.988 136.686 305.499 131.582 311.846C126.852 317.728 128.495 327.188 128.495 327.188C124.432 333.187 123.593 345.231 127.419 350.917C132.938 359.119 144.032 362.944 153.458 360.037C153.458 360.037 160.939 366.242 171.754 362.094C180.735 358.649 182.118 347.466 182.118 347.466Z" fill="#1C4732"/>
<path d="M154.061 313.727C154.061 314.653 153.31 315.404 152.383 315.404C151.456 315.404 150.705 314.653 150.705 313.727C150.705 312.8 151.456 312.049 152.383 312.049C153.31 312.049 154.061 312.801 154.061 313.727Z" fill="#EF920F"/>
<path d="M141.864 325.558C141.039 325.979 140.028 325.652 139.607 324.826C139.186 324.001 139.514 322.99 140.339 322.569C141.164 322.148 142.175 322.476 142.596 323.301C143.017 324.127 142.689 325.137 141.864 325.558Z" fill="#EF920F"/>
<path d="M154.061 331.233C154.988 331.233 155.739 330.482 155.739 329.555C155.739 328.628 154.988 327.877 154.061 327.877C153.134 327.877 152.383 328.628 152.383 329.555C152.383 330.482 153.134 331.233 154.061 331.233Z" fill="#EF920F"/>
<path d="M195.422 340.21L193.379 387.001L201.093 387.388C201.278 385.89 201.204 340.21 201.204 340.21" fill="#CA5B17"/>
<path d="M169.745 347.466C169.745 347.466 157.128 339.129 162.084 328.315C165.528 320.801 173.21 318.54 179.066 319.191C180.127 315.109 185.065 303.606 198.369 302.604C206.548 301.988 215.176 305.499 220.28 311.846C225.01 317.728 223.367 327.188 223.367 327.188C227.43 333.187 230.402 344.016 225.786 351.646C219.037 362.802 207.829 362.944 198.403 360.037C198.403 360.037 190.922 366.242 180.107 362.094C171.128 358.649 169.745 347.466 169.745 347.466Z" fill="#34684E"/>
<path d="M190.095 324.064C190.095 324.991 189.344 325.742 188.417 325.742C187.491 325.742 186.74 324.991 186.74 324.064C186.74 323.138 187.491 322.387 188.417 322.387C189.344 322.387 190.095 323.138 190.095 324.064Z" fill="#EF920F"/>
<path d="M178.115 336.044C178.115 336.97 177.364 337.721 176.437 337.721C175.511 337.721 174.76 336.97 174.76 336.044C174.76 335.117 175.511 334.366 176.437 334.366C177.364 334.366 178.115 335.117 178.115 336.044Z" fill="#EF920F"/>
<path d="M209.799 325.742C210.726 325.742 211.477 324.991 211.477 324.064C211.477 323.137 210.726 322.386 209.799 322.386C208.872 322.386 208.121 323.137 208.121 324.064C208.121 324.991 208.872 325.742 209.799 325.742Z" fill="#EF920F"/>
<path d="M199.462 312.049C199.462 312.976 198.711 313.727 197.784 313.727C196.858 313.727 196.106 312.976 196.106 312.049C196.106 311.123 196.857 310.372 197.784 310.372C198.711 310.372 199.462 311.123 199.462 312.049Z" fill="#EF920F"/>
<path d="M199.462 337.824C199.462 338.75 198.711 339.502 197.784 339.502C196.858 339.502 196.106 338.751 196.106 337.824C196.106 336.898 196.857 336.146 197.784 336.146C198.711 336.147 199.462 336.898 199.462 337.824Z" fill="#EF920F"/>
</svg>
