<svg width="940" height="500" viewBox="0 0 940 500" fill="none" xmlns="http://www.w3.org/2000/svg">
<path d="M757.695 258.005C752.559 254.154 749.614 250.029 746.248 243.208C743.429 237.494 745.975 230.329 752.2 227.397C755.636 235.952 758.045 243.385 763.825 249.264C765.368 250.833 765.758 251.162 765.758 251.162" fill="#28523E"/>
<path d="M748.73 258.867L764.611 243.257L780.16 252.666L807.713 212.4L813.308 225.533L818.482 248.162L794.193 281.004C789.041 287.97 779.117 289.227 772.391 283.765L748.73 258.867Z" fill="#FFC05C"/>
<path d="M753.787 263.469C758.989 258.061 764.723 252.48 769.555 246.74" stroke="#E58800" stroke-width="0.81" stroke-miterlimit="10" stroke-linecap="round" stroke-linejoin="round"/>
<path d="M752.496 255.846L757.029 260.134" stroke="#E58800" stroke-width="0.81" stroke-miterlimit="10" stroke-linecap="round" stroke-linejoin="round"/>
<path d="M756.2 252.527C757.774 254.014 758.943 255.06 760.595 256.458" stroke="#E58800" stroke-width="0.81" stroke-miterlimit="10" stroke-linecap="round" stroke-linejoin="round"/>
<path d="M759.867 248.614C761.388 249.853 762.91 251.092 764.431 252.33" stroke="#E58800" stroke-width="0.81" stroke-miterlimit="10" stroke-linecap="round" stroke-linejoin="round"/>
<path d="M763.161 245.855L767.152 248.886" stroke="#E58800" stroke-width="0.81" stroke-miterlimit="10" stroke-linecap="round" stroke-linejoin="round"/>
<path d="M886.735 214.194V280.253C886.735 284.824 883.029 288.53 878.459 288.53H814.929C810.35 288.53 806.641 284.811 806.653 280.232L806.827 212.696C815.947 209.189 829.546 206.021 838.666 202.514C838.505 202.514 852.596 202.994 852.596 202.994C852.596 202.994 875.207 208.13 886.735 214.194Z" fill="#FFC05C"/>
<path d="M857.435 204.472C857.435 209.716 852.34 213.968 846.055 213.968C839.77 213.968 834.675 209.717 834.675 204.472" stroke="#E58800" stroke-width="0.81" stroke-miterlimit="10" stroke-linecap="round" stroke-linejoin="round"/>
<path d="M846.129 208.758V213.678" stroke="#E58800" stroke-width="0.81" stroke-miterlimit="10" stroke-linecap="round" stroke-linejoin="round"/>
<path d="M849.852 207.913C851.095 209.084 852.392 210.197 853.737 211.248" stroke="#E58800" stroke-width="0.81" stroke-miterlimit="10" stroke-linecap="round" stroke-linejoin="round"/>
<path d="M852.791 205.304C854.009 206.133 855.299 206.858 856.641 207.467" stroke="#E58800" stroke-width="0.81" stroke-miterlimit="10" stroke-linecap="round" stroke-linejoin="round"/>
<path d="M840.827 206.656C839.584 207.827 838.287 208.94 836.942 209.991" stroke="#E58800" stroke-width="0.81" stroke-miterlimit="10" stroke-linecap="round" stroke-linejoin="round"/>
<path d="M839.146 204.361L834.999 206.58" stroke="#E58800" stroke-width="0.81" stroke-miterlimit="10" stroke-linecap="round" stroke-linejoin="round"/>
<path d="M840.939 212.541L843.046 208.432" stroke="#E58800" stroke-width="0.81" stroke-miterlimit="10" stroke-linecap="round" stroke-linejoin="round"/>
<path d="M761.44 233.282C755.333 226.488 748.788 211.796 746.225 205.714C745.585 204.197 746.052 202.46 747.33 201.421C747.86 200.991 748.358 200.555 748.874 200.123C750.298 198.929 752.394 199.012 753.743 200.289C761.803 207.914 769.845 215.149 778.699 221.928" fill="#EF920F"/>
<path d="M747.159 206.637C749.171 205.144 751.977 203.061 753.989 201.569" stroke="#D37300" stroke-width="0.8868" stroke-miterlimit="10" stroke-linecap="round"/>
<path d="M748.73 210.309C750.742 208.816 754.522 205.606 756.534 204.113" stroke="#D37300" stroke-width="0.8868" stroke-miterlimit="10" stroke-linecap="round"/>
<path d="M750.611 214.159C752.622 212.666 758.074 208.129 760.086 206.637" stroke="#D37300" stroke-width="0.8868" stroke-miterlimit="10" stroke-linecap="round"/>
<path d="M752.411 218.144C754.423 216.651 761.182 211.076 763.194 209.583" stroke="#D37300" stroke-width="0.8868" stroke-miterlimit="10" stroke-linecap="round"/>
<path d="M754.53 222.817C756.542 221.324 764.701 214.167 766.712 212.675" stroke="#D37300" stroke-width="0.8868" stroke-miterlimit="10" stroke-linecap="round"/>
<path d="M749.73 200.151C750.202 200.644 770.455 220.803 770.455 220.803" stroke="#D37300" stroke-width="0.8868" stroke-miterlimit="10" stroke-linecap="round"/>
<path d="M747.159 202.106L761.957 224.221" stroke="#D37300" stroke-width="0.8868" stroke-miterlimit="10" stroke-linecap="round"/>
<path d="M769.696 227.833C766.061 219.452 764.517 203.442 764.017 196.862C763.892 195.22 764.886 193.721 766.427 193.142C767.066 192.902 767.677 192.647 768.303 192.401C770.032 191.721 771.993 192.465 772.868 194.104C778.091 203.893 783.421 213.306 789.665 222.544" fill="#EF920F"/>
<path d="M764.611 198.033C766.992 197.256 770.315 196.172 772.696 195.394" stroke="#D37300" stroke-width="0.8868" stroke-miterlimit="10" stroke-linecap="round"/>
<path d="M764.935 202.014C767.316 201.237 771.92 199.393 774.302 198.616" stroke="#D37300" stroke-width="0.8868" stroke-miterlimit="10" stroke-linecap="round"/>
<path d="M765.497 206.262C767.878 205.485 774.488 202.913 776.869 202.136" stroke="#D37300" stroke-width="0.8868" stroke-miterlimit="10" stroke-linecap="round"/>
<path d="M765.939 210.613C768.32 209.836 776.5 206.694 778.881 205.917" stroke="#D37300" stroke-width="0.8868" stroke-miterlimit="10" stroke-linecap="round"/>
<path d="M766.465 215.716C768.846 214.939 778.855 210.742 781.237 209.965" stroke="#D37300" stroke-width="0.8868" stroke-miterlimit="10" stroke-linecap="round"/>
<path d="M769.108 192.699C769.4 193.316 782.207 218.861 782.207 218.861" stroke="#D37300" stroke-width="0.8868" stroke-miterlimit="10" stroke-linecap="round"/>
<path d="M766.048 193.737L773.063 219.405" stroke="#D37300" stroke-width="0.8868" stroke-miterlimit="10" stroke-linecap="round"/>
<path d="M780.16 218.618C780.662 209.496 786.45 194.49 788.949 188.382C789.572 186.858 791.132 185.962 792.77 186.135C793.449 186.206 794.109 186.252 794.779 186.312C796.629 186.478 798.05 188.021 798.098 189.878C798.385 200.969 798.937 211.773 800.384 222.829" fill="#EF920F"/>
<path d="M788.955 189.695C791.432 190.066 794.888 190.584 797.366 190.956" stroke="#D37300" stroke-width="0.8868" stroke-miterlimit="10" stroke-linecap="round"/>
<path d="M787.462 193.4C789.939 193.771 794.882 194.184 797.359 194.555" stroke="#D37300" stroke-width="0.8868" stroke-miterlimit="10" stroke-linecap="round"/>
<path d="M786.063 197.45C788.54 197.821 795.602 198.481 798.079 198.852" stroke="#D37300" stroke-width="0.8868" stroke-miterlimit="10" stroke-linecap="round"/>
<path d="M784.51 201.538C786.987 201.909 795.708 202.763 798.185 203.134" stroke="#D37300" stroke-width="0.8868" stroke-miterlimit="10" stroke-linecap="round"/>
<path d="M782.696 206.337C785.173 206.708 796.002 207.437 798.479 207.808" stroke="#D37300" stroke-width="0.8868" stroke-miterlimit="10" stroke-linecap="round"/>
<path d="M795.365 186.939C795.349 187.621 795.364 216.197 795.364 216.197" stroke="#D37300" stroke-width="0.8868" stroke-miterlimit="10" stroke-linecap="round"/>
<path d="M792.164 186.498L786.944 212.59" stroke="#D37300" stroke-width="0.8868" stroke-miterlimit="10" stroke-linecap="round"/>
<path d="M800.625 215.543C797.597 206.924 797.199 190.845 797.17 184.245C797.163 182.599 798.261 181.174 799.839 180.706C800.493 180.512 801.12 180.302 801.763 180.101C803.536 179.546 805.44 180.428 806.195 182.125C810.706 192.261 815.351 202.031 820.921 211.691" fill="#EF920F"/>
<path d="M797.678 185.456C800.109 184.851 803.5 184.006 805.931 183.401" stroke="#D37300" stroke-width="0.8868" stroke-miterlimit="10" stroke-linecap="round"/>
<path d="M797.717 189.45C800.148 188.845 804.871 187.334 807.302 186.728" stroke="#D37300" stroke-width="0.8868" stroke-miterlimit="10" stroke-linecap="round"/>
<path d="M797.975 193.728C800.406 193.123 807.182 191.029 809.613 190.423" stroke="#D37300" stroke-width="0.8868" stroke-miterlimit="10" stroke-linecap="round"/>
<path d="M798.106 198.098C800.537 197.493 808.919 194.943 811.35 194.337" stroke="#D37300" stroke-width="0.8868" stroke-miterlimit="10" stroke-linecap="round"/>
<path d="M798.266 203.227C800.697 202.622 810.98 199.149 813.41 198.544" stroke="#D37300" stroke-width="0.8868" stroke-miterlimit="10" stroke-linecap="round"/>
<path d="M802.544 180.456C802.791 181.092 813.743 207.485 813.743 207.485" stroke="#D37300" stroke-width="0.8868" stroke-miterlimit="10" stroke-linecap="round"/>
<path d="M799.419 181.274L804.584 207.377" stroke="#D37300" stroke-width="0.8868" stroke-miterlimit="10" stroke-linecap="round"/>
<path d="M749.73 221.247L759.247 244.939L831.608 215.065L823.974 192.826C822.978 192.825 749.73 221.247 749.73 221.247Z" fill="#CA5B17"/>
<path d="M753.13 228.636L825.844 199.779" stroke="#AA3D00" stroke-width="0.8868" stroke-miterlimit="10" stroke-linecap="round" stroke-linejoin="round"/>
<path d="M756.677 237.504L828.726 208.314" stroke="#AA3D00" stroke-width="0.8868" stroke-miterlimit="10" stroke-linecap="round" stroke-linejoin="round"/>
<path d="M775.52 220.397L778.698 228.045" stroke="#AA3D00" stroke-width="0.8868" stroke-miterlimit="10" stroke-linecap="round" stroke-linejoin="round"/>
<path d="M794.253 204.213L797.098 210.975" stroke="#AA3D00" stroke-width="0.8868" stroke-miterlimit="10" stroke-linecap="round" stroke-linejoin="round"/>
<path d="M797.159 203.535C799.335 208.375 801.252 213.331 802.899 218.375" stroke="#AA3D00" stroke-width="0.8868" stroke-miterlimit="10" stroke-linecap="round" stroke-linejoin="round"/>
<path d="M772.785 221.721C774.475 226.684 776.352 231.583 778.41 236.405" stroke="#AA3D00" stroke-width="0.8868" stroke-miterlimit="10" stroke-linecap="round" stroke-linejoin="round"/>
<path d="M835.384 232.697L827.892 218.315C827.1 216.828 826.067 215.466 824.752 214.413C818.745 209.599 813.651 214.963 813.354 220.08C813.146 223.668 814.691 227.104 816.287 230.325C817.22 232.208 818.195 234.12 818.88 236.101C820.409 240.527 824.097 242.487 828.727 241.789C828.487 241.849 828.978 241.751 828.727 241.789C830.737 241.29 835.384 232.697 835.384 232.697Z" fill="#28523E"/>
<path d="M853.501 188.584H838.722V201.294H853.501V188.584Z" fill="#EA7468"/>
<path d="M851.325 206.56C854.21 203.675 854.21 198.997 851.325 196.112C848.44 193.226 843.762 193.226 840.877 196.112C837.992 198.997 837.992 203.675 840.877 206.56C843.762 209.445 848.44 209.445 851.325 206.56Z" fill="#EA7468"/>
<path d="M846.09 198.191C838.957 198.191 833.121 192.355 833.121 185.222V179.236C833.121 178.745 833.149 178.261 833.202 177.784C833.929 171.328 839.447 166.267 846.09 166.267C852.777 166.267 858.324 171.396 858.992 177.915C859.036 178.35 859.059 178.79 859.059 179.236V185.222C859.059 192.355 853.223 198.191 846.09 198.191Z" fill="#EF8B7B"/>
<path d="M842.67 182.292C842.67 182.607 842.415 182.862 842.1 182.862C841.785 182.862 841.53 182.607 841.53 182.292C841.53 181.977 841.785 181.722 842.1 181.722C842.415 181.722 842.67 181.977 842.67 182.292Z" fill="#5C1A25"/>
<path d="M850.968 182.292C850.968 182.607 850.713 182.862 850.398 182.862C850.083 182.862 849.828 182.607 849.828 182.292C849.828 181.977 850.083 181.722 850.398 181.722C850.712 181.722 850.968 181.977 850.968 182.292Z" fill="#5C1A25"/>
<path d="M845.986 181.971C845.835 182.355 845.684 182.739 845.533 183.123C845.329 183.642 845.122 184.17 845.08 184.726C845.037 185.282 845.182 185.88 845.589 186.261C845.868 186.522 846.239 186.658 846.599 186.786" stroke="#D64B3C" stroke-width="0.7601" stroke-miterlimit="10" stroke-linecap="round"/>
<path d="M838.537 186.22C839.455 186.22 840.2 185.475 840.2 184.557C840.2 183.639 839.455 182.894 838.537 182.894C837.619 182.894 836.874 183.639 836.874 184.557C836.874 185.475 837.619 186.22 838.537 186.22Z" fill="#D64B3C"/>
<path d="M853.454 186.22C854.372 186.22 855.117 185.475 855.117 184.557C855.117 183.639 854.372 182.894 853.454 182.894C852.536 182.894 851.791 183.639 851.791 184.557C851.791 185.475 852.536 186.22 853.454 186.22Z" fill="#D64B3C"/>
<path d="M850.047 187.476C849.733 189.619 847.836 190.542 846.493 190.687C845.151 190.832 843.59 189.776 842.564 187.808C844.837 188.53 847.645 188.75 850.047 187.476Z" fill="#FFF6EB"/>
<path d="M862.432 182.862C862.432 184.541 861.071 185.902 859.392 185.902C857.713 185.902 856.352 184.541 856.352 182.862C856.352 181.183 857.713 179.822 859.392 179.822C861.071 179.822 862.432 181.183 862.432 182.862Z" fill="#EF8B7B"/>
<path d="M858.804 181.398C859.465 180.929 860.354 181.193 860.817 181.996" stroke="#D64B3C" stroke-width="0.6463" stroke-miterlimit="10" stroke-linecap="round"/>
<path d="M835.576 182.862C835.576 184.541 834.215 185.902 832.536 185.902C830.857 185.902 829.496 184.541 829.496 182.862C829.496 181.183 830.857 179.822 832.536 179.822C834.215 179.822 835.576 181.183 835.576 182.862Z" fill="#EF8B7B"/>
<path d="M832.884 181.398C832.223 180.929 831.334 181.193 830.871 181.996" stroke="#D64B3C" stroke-width="0.6463" stroke-miterlimit="10" stroke-linecap="round"/>
<path d="M859.04 177.197L859.08 179.162C856.459 180.649 852.256 180.172 849.091 180.049C844.838 179.883 840.681 177.527 840.31 177.306" fill="#5C1A25"/>
<path d="M859.088 179.13L859.125 183.839C858.592 183.611 858.207 183.142 857.844 182.69C857.289 181.998 856.564 180.258 856.716 179.384" fill="#5C1A25"/>
<path d="M832.865 179.869C832.84 179.869 833.167 179.864 833.142 179.864C836.523 181.046 839.955 179.518 842.752 177.816C843.04 177.641 843.412 177.608 843.571 177.311C843.423 177.311 832.836 177.144 832.836 177.144C832.836 177.193 832.866 177.105 832.866 177.154L832.865 179.869Z" fill="#5C1A25"/>
<path d="M832.863 179.13L832.827 183.839C833.36 183.611 833.745 183.142 834.108 182.69C834.663 181.998 835.388 180.258 835.236 179.384" fill="#5C1A25"/>
<path d="M832.884 177.784C833.626 171.328 839.257 166.267 846.035 166.267C852.859 166.267 858.519 171.396 859.2 177.915" fill="#5C1A25"/>
<path d="M878.229 176.421C878.229 177.918 864.11 179.131 846.693 179.131C829.276 179.131 815.158 177.918 815.158 176.421C815.158 176.249 815.158 175.176 815.158 175.176C815.158 175.176 831.275 173.711 846.693 173.711C862.445 173.711 878.229 175.265 878.229 175.265C878.229 175.265 878.229 176.277 878.229 176.421Z" fill="#380E12"/>
<path d="M846.694 177.975C864.11 177.975 878.229 176.762 878.229 175.265C878.229 173.768 864.11 172.555 846.694 172.555C829.278 172.555 815.159 173.768 815.159 175.265C815.159 176.762 829.278 177.975 846.694 177.975Z" fill="#CA5B17"/>
<path d="M860.348 176.322H831.377V166.964C831.377 163.399 834.281 160.193 837.833 160.508C840.117 160.71 844.636 161.726 846.928 161.679C849.991 161.616 850.928 160.616 853.893 160.508C857.456 160.377 860.349 163.398 860.349 166.964L860.348 176.322Z" fill="#CA5B17"/>
<path d="M860.384 171.667H831.342V176.322H860.384V171.667Z" fill="#5C1A25"/>
<path d="M831.711 168.046H858.65" stroke="#AA3D00" stroke-width="0.8868" stroke-miterlimit="10" stroke-linecap="round" stroke-linejoin="round"/>
<path d="M835.554 163.317H852.413" stroke="#AA3D00" stroke-width="0.8868" stroke-miterlimit="10" stroke-linecap="round" stroke-linejoin="round"/>
<path d="M825.696 247.849C836.942 256.864 878.724 282.483 885.882 281.532C898.477 279.858 905.259 283.83 911.114 272.554C914.681 265.684 916.267 249.701 899.614 226.554C892.722 216.975 883.526 210.914 871.898 208.904C870.374 208.64 868.013 209.48 868.76 210.836C865.526 221.236 864.412 229.36 867.897 239.679C871.78 241.959 876.021 243.558 879.333 246.609C879.333 246.609 840.512 230.235 837.224 229.819L825.696 247.849Z" fill="#FFC05C"/>
<path d="M837.072 230.553C850.971 235.264 867.331 240.81 881.23 245.522" stroke="#E58800" stroke-width="0.81" stroke-miterlimit="10" stroke-linecap="round" stroke-linejoin="round"/>
<path d="M884.711 281.533C865.625 274.577 841.395 260.743 825.696 247.85C827.167 246.046 835.949 231.841 837.072 230.554" stroke="#E58800" stroke-width="0.81" stroke-miterlimit="10" stroke-linecap="round" stroke-linejoin="round"/>
<path d="M831.524 252.137C831.524 252.137 839.949 239.68 843.003 232.756" stroke="#E58800" stroke-width="0.81" stroke-miterlimit="10" stroke-linecap="round" stroke-linejoin="round"/>
<path d="M828.414 244.306C830.294 245.511 832.174 246.717 834.054 247.922" stroke="#E58800" stroke-width="0.81" stroke-miterlimit="10" stroke-linecap="round" stroke-linejoin="round"/>
<path d="M831.234 239.446L837.44 242.895" stroke="#E58800" stroke-width="0.81" stroke-miterlimit="10" stroke-linecap="round" stroke-linejoin="round"/>
<path d="M833.27 236.323L839.25 239.869" stroke="#E58800" stroke-width="0.81" stroke-miterlimit="10" stroke-linecap="round" stroke-linejoin="round"/>
<path d="M835.384 233.123L841.437 235.949" stroke="#E58800" stroke-width="0.81" stroke-miterlimit="10" stroke-linecap="round" stroke-linejoin="round"/>
<path d="M878.563 212.082C878.11 218.775 878.669 225.536 880.214 232.064" stroke="#E58800" stroke-width="0.81" stroke-miterlimit="10" stroke-linecap="round" stroke-linejoin="round"/>
<path d="M881.761 243.74C882.97 245.086 884.178 246.431 885.387 247.777" stroke="#E58800" stroke-width="0.81" stroke-miterlimit="10" stroke-linecap="round" stroke-linejoin="round"/>
<path d="M882.894 243.782C885.663 244.919 888.299 246.38 890.73 248.127" stroke="#E58800" stroke-width="0.81" stroke-miterlimit="10" stroke-linecap="round" stroke-linejoin="round"/>
<path d="M880.38 313.544H814.095L812.838 287.828H882.006L880.38 313.544Z" fill="#28523E"/>
<path d="M846.683 301.535L842.399 370.718L836.042 473.382H815.942C815.942 473.382 814.29 414.646 812.952 370.393C812.501 355.478 810.753 343.542 810.448 334.721C809.781 315.388 811.436 287.813 811.436 287.813H815.199" fill="#28523E"/>
<path d="M882.006 287.828L882.115 305.722C882.115 305.722 882.629 323.069 882.448 332.389C882.073 351.739 879.865 371.306 879.865 371.306L879.399 384.046L876.979 473.384H856.879C856.879 473.384 851.789 410.574 852.615 386.557C852.73 383.2 852.756 374.163 852.615 370.807C852.423 366.251 846.24 301.537 846.24 301.537" fill="#28523E"/>
<path d="M813.577 292.483H881.23" stroke="#193326" stroke-width="0.8868" stroke-miterlimit="10" stroke-linecap="round" stroke-linejoin="round"/>
<path d="M846.24 292.483V312.954" stroke="#193326" stroke-width="0.8868" stroke-miterlimit="10" stroke-linecap="round" stroke-linejoin="round"/>
<path d="M846.683 308.519C848.809 308.519 850.52 306.774 850.477 304.649C850.381 299.925 850.23 292.557 850.23 292.557" stroke="#193326" stroke-width="0.8868" stroke-miterlimit="10" stroke-linecap="round" stroke-linejoin="round"/>
<path d="M867.356 292.491C869.811 297.858 875.371 301.665 881.263 302.011" stroke="#193326" stroke-width="0.8868" stroke-miterlimit="10" stroke-linecap="round" stroke-linejoin="round"/>
<path d="M827.466 292.491C825.011 297.858 819.451 301.665 813.559 302.011" stroke="#193326" stroke-width="0.8868" stroke-miterlimit="10" stroke-linecap="round" stroke-linejoin="round"/>
<path d="M869.148 408.353C872.74 408.353 875.651 402.53 875.651 395.347C875.651 388.164 872.74 382.341 869.148 382.341C865.557 382.341 862.645 388.164 862.645 395.347C862.645 402.53 865.557 408.353 869.148 408.353Z" fill="#183A29"/>
<path d="M824.514 408.353C828.105 408.353 831.017 402.53 831.017 395.347C831.017 388.164 828.105 382.341 824.514 382.341C820.922 382.341 818.011 388.164 818.011 395.347C818.011 402.53 820.922 408.353 824.514 408.353Z" fill="#183A29"/>
<path d="M816.977 288.197C816.977 288.345 816.977 288.493 816.977 288.64V292.236" stroke="#193326" stroke-width="0.8868" stroke-miterlimit="10" stroke-linecap="round" stroke-linejoin="round"/>
<path d="M819.415 288.197C819.415 288.345 819.415 288.493 819.415 288.64V292.236" stroke="#193326" stroke-width="0.8868" stroke-miterlimit="10" stroke-linecap="round" stroke-linejoin="round"/>
<path d="M827.174 288.197C827.174 288.345 827.174 288.493 827.174 288.64V292.236" stroke="#193326" stroke-width="0.8868" stroke-miterlimit="10" stroke-linecap="round" stroke-linejoin="round"/>
<path d="M829.613 288.197C829.613 288.345 829.613 288.493 829.613 288.64V292.236" stroke="#193326" stroke-width="0.8868" stroke-miterlimit="10" stroke-linecap="round" stroke-linejoin="round"/>
<path d="M839.146 288.197C839.146 288.345 839.146 288.493 839.146 288.64V292.236" stroke="#193326" stroke-width="0.8868" stroke-miterlimit="10" stroke-linecap="round" stroke-linejoin="round"/>
<path d="M841.584 288.197C841.584 288.345 841.584 288.493 841.584 288.64V292.236" stroke="#193326" stroke-width="0.8868" stroke-miterlimit="10" stroke-linecap="round" stroke-linejoin="round"/>
<path d="M855.107 288.197C855.107 288.345 855.107 288.493 855.107 288.64V292.236" stroke="#193326" stroke-width="0.8868" stroke-miterlimit="10" stroke-linecap="round" stroke-linejoin="round"/>
<path d="M857.546 288.197C857.546 288.345 857.546 288.493 857.546 288.64V292.236" stroke="#193326" stroke-width="0.8868" stroke-miterlimit="10" stroke-linecap="round" stroke-linejoin="round"/>
<path d="M865.305 288.197C865.305 288.345 865.305 288.493 865.305 288.64V292.236" stroke="#193326" stroke-width="0.8868" stroke-miterlimit="10" stroke-linecap="round" stroke-linejoin="round"/>
<path d="M867.744 288.197C867.744 288.345 867.744 288.493 867.744 288.64V292.236" stroke="#193326" stroke-width="0.8868" stroke-miterlimit="10" stroke-linecap="round" stroke-linejoin="round"/>
<path d="M877.276 288.197C877.276 288.345 877.276 288.493 877.276 288.64V292.236" stroke="#193326" stroke-width="0.8868" stroke-miterlimit="10" stroke-linecap="round" stroke-linejoin="round"/>
<path d="M879.715 288.197C879.715 288.345 879.715 288.493 879.715 288.64V292.236" stroke="#193326" stroke-width="0.8868" stroke-miterlimit="10" stroke-linecap="round" stroke-linejoin="round"/>
<path d="M847.976 291.078C848.568 291.078 849.047 290.598 849.047 290.007C849.047 289.415 848.568 288.936 847.976 288.936C847.385 288.936 846.905 289.415 846.905 290.007C846.905 290.598 847.385 291.078 847.976 291.078Z" stroke="#193326" stroke-width="0.8868" stroke-miterlimit="10" stroke-linecap="round" stroke-linejoin="round"/>
<path d="M843.781 313.722H849.617" stroke="#193326" stroke-width="0.8868" stroke-miterlimit="10" stroke-linecap="round" stroke-linejoin="round"/>
<path d="M855.474 479.886C854.647 451.702 852.198 423.572 851.371 395.388C862.357 396.69 871.114 397.256 882.153 396.529C881.288 409.815 878.276 448.97 877.725 467.042C877.576 471.944 879.998 476.566 884.13 479.208C887.552 481.396 891.175 483.603 892.462 485.501C895.124 489.426 894.567 495.847 894.567 495.847C888.544 498.357 870.578 492.092 855.474 479.886Z" fill="#271B13"/>
<path d="M836.716 479.886C837.543 451.702 839.992 423.572 840.819 395.388C829.833 396.69 821.076 397.256 810.037 396.529C810.902 409.815 813.914 448.97 814.465 467.042C814.615 471.944 812.192 476.566 808.06 479.208C804.638 481.396 801.015 483.603 799.728 485.501C797.066 489.426 797.622 495.847 797.622 495.847C803.647 498.357 821.613 492.092 836.716 479.886Z" fill="#271B13"/>
<path d="M837.379 212.79C839.98 215.276 843.815 216.403 847.348 215.72" stroke="#E58800" stroke-width="0.81" stroke-miterlimit="10" stroke-linecap="round" stroke-linejoin="round"/>
</svg>
