<svg width="1018" height="529" viewBox="0 0 1018 529" fill="none" xmlns="http://www.w3.org/2000/svg">
<path d="M817.426 273.128C811.888 269.062 808.712 264.706 805.083 257.503C802.043 251.469 804.788 243.902 811.501 240.806C815.206 249.84 817.803 257.69 824.036 263.898C825.7 265.555 826.12 265.902 826.12 265.902" fill="#28523E"/>
<path d="M807.759 274.039L824.883 257.554L841.65 267.49L871.361 224.969L877.394 238.838L882.973 262.734L856.782 297.415C851.226 304.771 840.525 306.099 833.273 300.331L807.759 274.039Z" fill="#FFC05C"/>
<path d="M813.212 278.898C818.821 273.187 825.004 267.294 830.215 261.232" stroke="#E58800" stroke-width="0.851539" stroke-miterlimit="10" stroke-linecap="round" stroke-linejoin="round"/>
<path d="M811.82 270.848L816.708 275.376" stroke="#E58800" stroke-width="0.851539" stroke-miterlimit="10" stroke-linecap="round" stroke-linejoin="round"/>
<path d="M815.814 267.344C817.511 268.914 818.772 270.018 820.553 271.495" stroke="#E58800" stroke-width="0.851539" stroke-miterlimit="10" stroke-linecap="round" stroke-linejoin="round"/>
<path d="M819.768 263.211C821.408 264.52 823.049 265.828 824.689 267.135" stroke="#E58800" stroke-width="0.851539" stroke-miterlimit="10" stroke-linecap="round" stroke-linejoin="round"/>
<path d="M823.32 260.298L827.623 263.499" stroke="#E58800" stroke-width="0.851539" stroke-miterlimit="10" stroke-linecap="round" stroke-linejoin="round"/>
<path d="M956.57 226.864V296.622C956.57 301.449 952.574 305.363 947.646 305.363H879.142C874.204 305.363 870.205 301.435 870.218 296.6L870.405 225.282C880.239 221.579 894.903 218.233 904.737 214.53C904.564 214.53 919.758 215.037 919.758 215.037C919.758 215.037 944.14 220.46 956.57 226.864Z" fill="#FFC05C"/>
<path d="M924.976 216.598C924.976 222.135 919.482 226.626 912.705 226.626C905.928 226.626 900.434 222.137 900.434 216.598" stroke="#E58800" stroke-width="0.851539" stroke-miterlimit="10" stroke-linecap="round" stroke-linejoin="round"/>
<path d="M912.785 221.123V226.319" stroke="#E58800" stroke-width="0.851539" stroke-miterlimit="10" stroke-linecap="round" stroke-linejoin="round"/>
<path d="M916.799 220.231C918.14 221.468 919.538 222.643 920.988 223.753" stroke="#E58800" stroke-width="0.851539" stroke-miterlimit="10" stroke-linecap="round" stroke-linejoin="round"/>
<path d="M919.968 217.476C921.282 218.351 922.673 219.117 924.12 219.76" stroke="#E58800" stroke-width="0.851539" stroke-miterlimit="10" stroke-linecap="round" stroke-linejoin="round"/>
<path d="M907.068 218.904C905.727 220.14 904.329 221.316 902.878 222.426" stroke="#E58800" stroke-width="0.851539" stroke-miterlimit="10" stroke-linecap="round" stroke-linejoin="round"/>
<path d="M905.255 216.48L900.783 218.823" stroke="#E58800" stroke-width="0.851539" stroke-miterlimit="10" stroke-linecap="round" stroke-linejoin="round"/>
<path d="M907.188 225.118L909.46 220.779" stroke="#E58800" stroke-width="0.851539" stroke-miterlimit="10" stroke-linecap="round" stroke-linejoin="round"/>
<path d="M821.464 247.021C814.879 239.846 807.821 224.332 805.058 217.909C804.368 216.307 804.871 214.473 806.249 213.376C806.821 212.922 807.358 212.461 807.914 212.005C809.45 210.744 811.71 210.832 813.164 212.18C821.856 220.232 830.527 227.872 840.075 235.031" fill="#EF920F"/>
<path d="M806.065 218.884C808.234 217.307 811.26 215.107 813.43 213.532" stroke="#D37300" stroke-width="0.932278" stroke-miterlimit="10" stroke-linecap="round"/>
<path d="M807.759 222.761C809.928 221.185 814.004 217.795 816.174 216.218" stroke="#D37300" stroke-width="0.932278" stroke-miterlimit="10" stroke-linecap="round"/>
<path d="M809.787 226.827C811.956 225.25 817.835 220.459 820.004 218.884" stroke="#D37300" stroke-width="0.932278" stroke-miterlimit="10" stroke-linecap="round"/>
<path d="M811.728 231.035C813.898 229.458 821.186 223.571 823.355 221.995" stroke="#D37300" stroke-width="0.932278" stroke-miterlimit="10" stroke-linecap="round"/>
<path d="M814.013 235.97C816.183 234.393 824.98 226.835 827.149 225.26" stroke="#D37300" stroke-width="0.932278" stroke-miterlimit="10" stroke-linecap="round"/>
<path d="M808.837 212.034C809.346 212.555 831.185 233.843 831.185 233.843" stroke="#D37300" stroke-width="0.932278" stroke-miterlimit="10" stroke-linecap="round"/>
<path d="M806.065 214.099L822.022 237.452" stroke="#D37300" stroke-width="0.932278" stroke-miterlimit="10" stroke-linecap="round"/>
<path d="M830.367 241.267C826.447 232.416 824.782 215.51 824.243 208.561C824.108 206.827 825.18 205.244 826.842 204.633C827.531 204.38 828.19 204.11 828.865 203.85C830.729 203.132 832.843 203.918 833.787 205.649C839.419 215.986 845.166 225.926 851.899 235.681" fill="#EF920F"/>
<path d="M824.883 209.798C827.451 208.977 831.034 207.833 833.602 207.011" stroke="#D37300" stroke-width="0.932278" stroke-miterlimit="10" stroke-linecap="round"/>
<path d="M825.233 214.002C827.8 213.181 832.765 211.234 835.333 210.413" stroke="#D37300" stroke-width="0.932278" stroke-miterlimit="10" stroke-linecap="round"/>
<path d="M825.839 218.488C828.406 217.667 835.534 214.951 838.101 214.131" stroke="#D37300" stroke-width="0.932278" stroke-miterlimit="10" stroke-linecap="round"/>
<path d="M826.315 223.082C828.883 222.262 837.703 218.944 840.271 218.123" stroke="#D37300" stroke-width="0.932278" stroke-miterlimit="10" stroke-linecap="round"/>
<path d="M826.883 228.471C829.45 227.651 840.243 223.219 842.811 222.398" stroke="#D37300" stroke-width="0.932278" stroke-miterlimit="10" stroke-linecap="round"/>
<path d="M829.733 204.165C830.047 204.817 843.857 231.792 843.857 231.792" stroke="#D37300" stroke-width="0.932278" stroke-miterlimit="10" stroke-linecap="round"/>
<path d="M826.433 205.261L833.997 232.367" stroke="#D37300" stroke-width="0.932278" stroke-miterlimit="10" stroke-linecap="round"/>
<path d="M841.65 231.536C842.191 221.903 848.433 206.056 851.127 199.606C851.799 197.997 853.481 197.051 855.247 197.234C855.98 197.309 856.691 197.357 857.414 197.42C859.409 197.596 860.941 199.225 860.993 201.186C861.302 212.898 861.897 224.307 863.458 235.982" fill="#EF920F"/>
<path d="M851.134 200.993C853.805 201.385 857.531 201.932 860.203 202.325" stroke="#D37300" stroke-width="0.932278" stroke-miterlimit="10" stroke-linecap="round"/>
<path d="M849.524 204.905C852.195 205.297 857.525 205.733 860.196 206.125" stroke="#D37300" stroke-width="0.932278" stroke-miterlimit="10" stroke-linecap="round"/>
<path d="M848.015 209.182C850.686 209.574 858.301 210.271 860.972 210.663" stroke="#D37300" stroke-width="0.932278" stroke-miterlimit="10" stroke-linecap="round"/>
<path d="M846.341 213.499C849.012 213.891 858.416 214.793 861.087 215.185" stroke="#D37300" stroke-width="0.932278" stroke-miterlimit="10" stroke-linecap="round"/>
<path d="M844.385 218.567C847.056 218.959 858.733 219.728 861.404 220.12" stroke="#D37300" stroke-width="0.932278" stroke-miterlimit="10" stroke-linecap="round"/>
<path d="M858.045 198.083C858.029 198.803 858.044 228.979 858.044 228.979" stroke="#D37300" stroke-width="0.932278" stroke-miterlimit="10" stroke-linecap="round"/>
<path d="M854.594 197.617L848.965 225.17" stroke="#D37300" stroke-width="0.932278" stroke-miterlimit="10" stroke-linecap="round"/>
<path d="M863.717 228.288C860.452 219.187 860.023 202.207 859.992 195.238C859.984 193.5 861.168 191.995 862.87 191.501C863.575 191.296 864.251 191.074 864.945 190.862C866.856 190.276 868.91 191.207 869.724 192.999C874.588 203.703 879.597 214.02 885.603 224.221" fill="#EF920F"/>
<path d="M860.54 196.517C863.161 195.878 866.818 194.985 869.439 194.346" stroke="#D37300" stroke-width="0.932278" stroke-miterlimit="10" stroke-linecap="round"/>
<path d="M860.582 200.734C863.203 200.095 868.296 198.5 870.917 197.86" stroke="#D37300" stroke-width="0.932278" stroke-miterlimit="10" stroke-linecap="round"/>
<path d="M860.86 205.252C863.481 204.613 870.788 202.402 873.409 201.762" stroke="#D37300" stroke-width="0.932278" stroke-miterlimit="10" stroke-linecap="round"/>
<path d="M861.001 209.866C863.623 209.228 872.661 206.535 875.282 205.895" stroke="#D37300" stroke-width="0.932278" stroke-miterlimit="10" stroke-linecap="round"/>
<path d="M861.174 215.283C863.795 214.644 874.883 210.976 877.504 210.337" stroke="#D37300" stroke-width="0.932278" stroke-miterlimit="10" stroke-linecap="round"/>
<path d="M865.787 191.237C866.053 191.908 877.863 219.779 877.863 219.779" stroke="#D37300" stroke-width="0.932278" stroke-miterlimit="10" stroke-linecap="round"/>
<path d="M862.417 192.1L867.986 219.665" stroke="#D37300" stroke-width="0.932278" stroke-miterlimit="10" stroke-linecap="round"/>
<path d="M808.837 234.312L819.099 259.331L897.127 227.784L888.895 204.299C887.821 204.298 808.837 234.312 808.837 234.312Z" fill="#CA5B17"/>
<path d="M812.503 242.115L890.911 211.642" stroke="#AA3D00" stroke-width="0.932278" stroke-miterlimit="10" stroke-linecap="round" stroke-linejoin="round"/>
<path d="M816.328 251.479L894.019 220.655" stroke="#AA3D00" stroke-width="0.932278" stroke-miterlimit="10" stroke-linecap="round" stroke-linejoin="round"/>
<path d="M836.647 233.414L840.074 241.491" stroke="#AA3D00" stroke-width="0.932278" stroke-miterlimit="10" stroke-linecap="round" stroke-linejoin="round"/>
<path d="M856.847 216.324L859.914 223.465" stroke="#AA3D00" stroke-width="0.932278" stroke-miterlimit="10" stroke-linecap="round" stroke-linejoin="round"/>
<path d="M859.98 215.608C862.326 220.719 864.394 225.953 866.17 231.279" stroke="#AA3D00" stroke-width="0.932278" stroke-miterlimit="10" stroke-linecap="round" stroke-linejoin="round"/>
<path d="M833.697 234.812C835.52 240.053 837.544 245.227 839.763 250.319" stroke="#AA3D00" stroke-width="0.932278" stroke-miterlimit="10" stroke-linecap="round" stroke-linejoin="round"/>
<path d="M901.198 246.403L893.12 231.216C892.266 229.645 891.152 228.207 889.734 227.095C883.256 222.012 877.764 227.676 877.443 233.079C877.219 236.868 878.885 240.497 880.606 243.898C881.612 245.887 882.663 247.906 883.402 249.998C885.051 254.672 889.028 256.741 894.02 256.004C894.291 255.964 893.761 256.068 894.02 256.004C896.187 255.477 901.198 246.403 901.198 246.403Z" fill="#28523E"/>
<path d="M920.734 199.82H904.798V213.241H920.734V199.82Z" fill="#EA7468"/>
<path d="M918.387 218.802C921.498 215.755 921.498 210.816 918.387 207.769C915.276 204.722 910.232 204.722 907.121 207.769C904.01 210.816 904.01 215.755 907.121 218.802C910.232 221.849 915.276 221.849 918.387 218.802Z" fill="#EA7468"/>
<path d="M912.743 209.965C905.051 209.965 898.758 203.802 898.758 196.269V189.948C898.758 189.43 898.788 188.919 898.845 188.415C899.629 181.597 905.579 176.253 912.743 176.253C919.953 176.253 925.935 181.669 926.655 188.553C926.702 189.013 926.727 189.477 926.727 189.948V196.269C926.727 203.802 920.434 209.965 912.743 209.965Z" fill="#EF8B7B"/>
<path d="M909.055 193.175C909.055 193.508 908.78 193.777 908.44 193.777C908.1 193.777 907.826 193.508 907.826 193.175C907.826 192.843 908.1 192.573 908.44 192.573C908.78 192.573 909.055 192.843 909.055 193.175Z" fill="#5C1A25"/>
<path d="M918.003 193.175C918.003 193.508 917.728 193.777 917.388 193.777C917.048 193.777 916.773 193.508 916.773 193.175C916.773 192.843 917.048 192.573 917.388 192.573C917.726 192.573 918.003 192.843 918.003 193.175Z" fill="#5C1A25"/>
<path d="M912.63 192.836C912.468 193.242 912.305 193.647 912.142 194.053C911.922 194.601 911.699 195.159 911.654 195.746C911.607 196.333 911.763 196.964 912.202 197.367C912.503 197.642 912.903 197.786 913.291 197.921" stroke="#D64B3C" stroke-width="0.79908" stroke-miterlimit="10" stroke-linecap="round"/>
<path d="M904.598 197.323C905.588 197.323 906.391 196.537 906.391 195.567C906.391 194.597 905.588 193.811 904.598 193.811C903.608 193.811 902.805 194.597 902.805 195.567C902.805 196.537 903.608 197.323 904.598 197.323Z" fill="#D64B3C"/>
<path d="M920.683 197.323C921.674 197.323 922.476 196.537 922.476 195.567C922.476 194.597 921.674 193.811 920.683 193.811C919.693 193.811 918.89 194.597 918.89 195.567C918.89 196.537 919.693 197.323 920.683 197.323Z" fill="#D64B3C"/>
<path d="M917.009 198.65C916.671 200.913 914.625 201.887 913.177 202.04C911.73 202.194 910.047 201.078 908.941 199C911.392 199.763 914.419 199.995 917.009 198.65Z" fill="#FFF6EB"/>
<path d="M930.364 193.777C930.364 195.55 928.897 196.988 927.086 196.988C925.276 196.988 923.808 195.55 923.808 193.777C923.808 192.004 925.276 190.567 927.086 190.567C928.897 190.567 930.364 192.004 930.364 193.777Z" fill="#EF8B7B"/>
<path d="M926.452 192.231C927.165 191.736 928.124 192.015 928.623 192.863" stroke="#D64B3C" stroke-width="0.679444" stroke-miterlimit="10" stroke-linecap="round"/>
<path d="M901.405 193.777C901.405 195.55 899.938 196.988 898.127 196.988C896.317 196.988 894.849 195.55 894.849 193.777C894.849 192.004 896.317 190.567 898.127 190.567C899.938 190.567 901.405 192.004 901.405 193.777Z" fill="#EF8B7B"/>
<path d="M898.502 192.231C897.79 191.736 896.831 192.015 896.332 192.863" stroke="#D64B3C" stroke-width="0.679444" stroke-miterlimit="10" stroke-linecap="round"/>
<path d="M926.707 187.795L926.75 189.87C923.924 191.44 919.391 190.937 915.979 190.807C911.393 190.631 906.91 188.144 906.51 187.91" fill="#5C1A25"/>
<path d="M926.758 189.836L926.798 194.809C926.224 194.568 925.808 194.073 925.417 193.596C924.819 192.865 924.037 191.027 924.201 190.105" fill="#5C1A25"/>
<path d="M898.482 190.617C898.455 190.617 898.808 190.611 898.781 190.611C902.427 191.86 906.127 190.246 909.143 188.449C909.454 188.264 909.855 188.229 910.026 187.915C909.867 187.915 898.451 187.739 898.451 187.739C898.451 187.791 898.483 187.698 898.483 187.75L898.482 190.617Z" fill="#5C1A25"/>
<path d="M898.48 189.836L898.441 194.809C899.016 194.568 899.431 194.073 899.822 193.596C900.421 192.865 901.203 191.027 901.039 190.105" fill="#5C1A25"/>
<path d="M898.503 188.415C899.303 181.597 905.375 176.253 912.683 176.253C920.042 176.253 926.145 181.669 926.879 188.553" fill="#5C1A25"/>
<path d="M947.398 186.976C947.398 188.556 932.174 189.837 913.393 189.837C894.612 189.837 879.388 188.556 879.388 186.976C879.388 186.794 879.388 185.661 879.388 185.661C879.388 185.661 896.767 184.114 913.393 184.114C930.378 184.114 947.398 185.755 947.398 185.755C947.398 185.755 947.398 186.824 947.398 186.976Z" fill="#380E12"/>
<path d="M913.394 188.617C932.174 188.617 947.398 187.335 947.398 185.755C947.398 184.174 932.174 182.893 913.394 182.893C894.614 182.893 879.389 184.174 879.389 185.755C879.389 187.335 894.614 188.617 913.394 188.617Z" fill="#CA5B17"/>
<path d="M928.117 186.871H896.878V176.989C896.878 173.224 900.009 169.839 903.839 170.171C906.302 170.385 911.175 171.458 913.646 171.408C916.949 171.342 917.96 170.286 921.157 170.171C924.999 170.033 928.118 173.223 928.118 176.989L928.117 186.871Z" fill="#CA5B17"/>
<path d="M928.156 181.955H896.84V186.871H928.156V181.955Z" fill="#5C1A25"/>
<path d="M897.238 178.132H926.286" stroke="#AA3D00" stroke-width="0.932278" stroke-miterlimit="10" stroke-linecap="round" stroke-linejoin="round"/>
<path d="M901.382 173.138H919.561" stroke="#AA3D00" stroke-width="0.932278" stroke-miterlimit="10" stroke-linecap="round" stroke-linejoin="round"/>
<path d="M890.752 262.404C902.878 271.923 947.932 298.977 955.651 297.973C969.232 296.205 976.545 300.399 982.858 288.492C986.705 281.237 988.415 264.359 970.458 239.916C963.026 229.801 953.11 223.4 940.571 221.278C938.928 220.999 936.382 221.886 937.188 223.318C933.701 234.3 932.499 242.879 936.257 253.776C940.444 256.184 945.017 257.872 948.589 261.094C948.589 261.094 906.728 243.803 903.182 243.364L890.752 262.404Z" fill="#FFC05C"/>
<path d="M903.019 244.139C918.006 249.114 935.647 254.97 950.634 259.946" stroke="#E58800" stroke-width="0.851539" stroke-miterlimit="10" stroke-linecap="round" stroke-linejoin="round"/>
<path d="M954.388 297.974C933.807 290.628 907.68 276.02 890.752 262.405C892.338 260.5 901.808 245.499 903.018 244.14" stroke="#E58800" stroke-width="0.851539" stroke-miterlimit="10" stroke-linecap="round" stroke-linejoin="round"/>
<path d="M897.036 266.932C897.036 266.932 906.121 253.777 909.414 246.465" stroke="#E58800" stroke-width="0.851539" stroke-miterlimit="10" stroke-linecap="round" stroke-linejoin="round"/>
<path d="M893.683 258.662C895.71 259.935 897.737 261.208 899.764 262.481" stroke="#E58800" stroke-width="0.851539" stroke-miterlimit="10" stroke-linecap="round" stroke-linejoin="round"/>
<path d="M896.723 253.53L903.415 257.172" stroke="#E58800" stroke-width="0.851539" stroke-miterlimit="10" stroke-linecap="round" stroke-linejoin="round"/>
<path d="M898.919 250.232L905.367 253.977" stroke="#E58800" stroke-width="0.851539" stroke-miterlimit="10" stroke-linecap="round" stroke-linejoin="round"/>
<path d="M901.198 246.853L907.725 249.837" stroke="#E58800" stroke-width="0.851539" stroke-miterlimit="10" stroke-linecap="round" stroke-linejoin="round"/>
<path d="M947.758 224.634C947.27 231.701 947.873 238.841 949.539 245.735" stroke="#E58800" stroke-width="0.851539" stroke-miterlimit="10" stroke-linecap="round" stroke-linejoin="round"/>
<path d="M951.207 258.064C952.511 259.486 953.813 260.906 955.117 262.328" stroke="#E58800" stroke-width="0.851539" stroke-miterlimit="10" stroke-linecap="round" stroke-linejoin="round"/>
<path d="M952.429 258.109C955.414 259.309 958.257 260.852 960.878 262.697" stroke="#E58800" stroke-width="0.851539" stroke-miterlimit="10" stroke-linecap="round" stroke-linejoin="round"/>
<path d="M949.718 331.778H878.242L876.887 304.621H951.471L949.718 331.778Z" fill="#28523E"/>
<path d="M913.382 319.096L908.763 392.153L901.908 500.566H880.234C880.234 500.566 878.453 438.541 877.01 391.81C876.524 376.06 874.639 363.455 874.31 354.14C873.591 333.725 875.375 304.606 875.375 304.606H879.433" fill="#28523E"/>
<path d="M951.471 304.621L951.589 323.517C951.589 323.517 952.143 341.836 951.948 351.678C951.543 372.111 949.162 392.774 949.162 392.774L948.66 406.228L946.05 500.569H924.377C924.377 500.569 918.888 434.241 919.779 408.879C919.903 405.334 919.931 395.791 919.779 392.247C919.572 387.436 912.904 319.098 912.904 319.098" fill="#28523E"/>
<path d="M877.684 309.537H950.634" stroke="#193326" stroke-width="0.932278" stroke-miterlimit="10" stroke-linecap="round" stroke-linejoin="round"/>
<path d="M912.904 309.537V331.154" stroke="#193326" stroke-width="0.932278" stroke-miterlimit="10" stroke-linecap="round" stroke-linejoin="round"/>
<path d="M913.382 326.471C915.675 326.471 917.52 324.628 917.473 322.384C917.37 317.396 917.207 309.615 917.207 309.615" stroke="#193326" stroke-width="0.932278" stroke-miterlimit="10" stroke-linecap="round" stroke-linejoin="round"/>
<path d="M935.674 309.546C938.321 315.213 944.317 319.233 950.67 319.599" stroke="#193326" stroke-width="0.932278" stroke-miterlimit="10" stroke-linecap="round" stroke-linejoin="round"/>
<path d="M892.66 309.546C890.013 315.213 884.018 319.233 877.664 319.599" stroke="#193326" stroke-width="0.932278" stroke-miterlimit="10" stroke-linecap="round" stroke-linejoin="round"/>
<path d="M937.606 431.896C941.479 431.896 944.619 425.747 944.619 418.161C944.619 410.576 941.479 404.427 937.606 404.427C933.734 404.427 930.594 410.576 930.594 418.161C930.594 425.747 933.734 431.896 937.606 431.896Z" fill="#183A29"/>
<path d="M889.477 431.896C893.35 431.896 896.49 425.747 896.49 418.161C896.49 410.576 893.35 404.427 889.477 404.427C885.604 404.427 882.465 410.576 882.465 418.161C882.465 425.747 885.604 431.896 889.477 431.896Z" fill="#183A29"/>
<path d="M881.35 305.011C881.35 305.167 881.35 305.324 881.35 305.479V309.276" stroke="#193326" stroke-width="0.932278" stroke-miterlimit="10" stroke-linecap="round" stroke-linejoin="round"/>
<path d="M883.979 305.011C883.979 305.167 883.979 305.324 883.979 305.479V309.276" stroke="#193326" stroke-width="0.932278" stroke-miterlimit="10" stroke-linecap="round" stroke-linejoin="round"/>
<path d="M892.346 305.011C892.346 305.167 892.346 305.324 892.346 305.479V309.276" stroke="#193326" stroke-width="0.932278" stroke-miterlimit="10" stroke-linecap="round" stroke-linejoin="round"/>
<path d="M894.975 305.011C894.975 305.167 894.975 305.324 894.975 305.479V309.276" stroke="#193326" stroke-width="0.932278" stroke-miterlimit="10" stroke-linecap="round" stroke-linejoin="round"/>
<path d="M905.255 305.011C905.255 305.167 905.255 305.324 905.255 305.479V309.276" stroke="#193326" stroke-width="0.932278" stroke-miterlimit="10" stroke-linecap="round" stroke-linejoin="round"/>
<path d="M907.884 305.011C907.884 305.167 907.884 305.324 907.884 305.479V309.276" stroke="#193326" stroke-width="0.932278" stroke-miterlimit="10" stroke-linecap="round" stroke-linejoin="round"/>
<path d="M922.466 305.011C922.466 305.167 922.466 305.324 922.466 305.479V309.276" stroke="#193326" stroke-width="0.932278" stroke-miterlimit="10" stroke-linecap="round" stroke-linejoin="round"/>
<path d="M925.096 305.011C925.096 305.167 925.096 305.324 925.096 305.479V309.276" stroke="#193326" stroke-width="0.932278" stroke-miterlimit="10" stroke-linecap="round" stroke-linejoin="round"/>
<path d="M933.462 305.011C933.462 305.167 933.462 305.324 933.462 305.479V309.276" stroke="#193326" stroke-width="0.932278" stroke-miterlimit="10" stroke-linecap="round" stroke-linejoin="round"/>
<path d="M936.092 305.011C936.092 305.167 936.092 305.324 936.092 305.479V309.276" stroke="#193326" stroke-width="0.932278" stroke-miterlimit="10" stroke-linecap="round" stroke-linejoin="round"/>
<path d="M946.371 305.011C946.371 305.167 946.371 305.324 946.371 305.479V309.276" stroke="#193326" stroke-width="0.932278" stroke-miterlimit="10" stroke-linecap="round" stroke-linejoin="round"/>
<path d="M949.001 305.011C949.001 305.167 949.001 305.324 949.001 305.479V309.276" stroke="#193326" stroke-width="0.932278" stroke-miterlimit="10" stroke-linecap="round" stroke-linejoin="round"/>
<path d="M914.776 308.053C915.414 308.053 915.931 307.547 915.931 306.922C915.931 306.298 915.414 305.791 914.776 305.791C914.139 305.791 913.622 306.298 913.622 306.922C913.622 307.547 914.139 308.053 914.776 308.053Z" stroke="#193326" stroke-width="0.932278" stroke-miterlimit="10" stroke-linecap="round" stroke-linejoin="round"/>
<path d="M910.253 331.965H916.546" stroke="#193326" stroke-width="0.932278" stroke-miterlimit="10" stroke-linecap="round" stroke-linejoin="round"/>
<path d="M922.861 507.435C921.97 477.672 919.329 447.967 918.437 418.205C930.283 419.58 939.726 420.177 951.629 419.41C950.697 433.44 947.449 474.787 946.855 493.871C946.694 499.048 949.306 503.929 953.761 506.719C957.451 509.029 961.358 511.36 962.746 513.364C965.616 517.509 965.016 524.289 965.016 524.289C958.521 526.94 939.148 520.324 922.861 507.435Z" fill="#271B13"/>
<path d="M902.635 507.435C903.526 477.672 906.167 447.967 907.059 418.205C895.213 419.58 885.77 420.177 873.866 419.41C874.799 433.44 878.047 474.787 878.641 493.871C878.803 499.048 876.19 503.929 871.735 506.719C868.045 509.029 864.138 511.36 862.75 513.364C859.88 517.509 860.479 524.289 860.479 524.289C866.976 526.94 886.349 520.324 902.635 507.435Z" fill="#271B13"/>
<path d="M903.35 225.381C906.154 228.006 910.29 229.197 914.099 228.475" stroke="#E58800" stroke-width="0.851539" stroke-miterlimit="10" stroke-linecap="round" stroke-linejoin="round"/>
</svg>
