<svg width="940" height="500" viewBox="0 0 940 500" fill="none" xmlns="http://www.w3.org/2000/svg">
<mask id="mask0_1_975" style="mask-type:luminance" maskUnits="userSpaceOnUse" x="0" y="0" width="940" height="500">
<path d="M940 0H0V500H940V0Z" fill="white"/>
</mask>
<g mask="url(#mask0_1_975)">
<path d="M281.615 514.055C346.112 446.558 426.252 412.379 491.645 395.142C651.017 353.132 815.721 363.584 979.028 364.043C1009.03 364.127 1022.03 362.564 1022.03 362.564V512.094L281.615 514.055Z" fill="#9B7D00"/>
</g>
<path d="M758.948 374.222L759.195 378.531" stroke="#364715" stroke-miterlimit="10" stroke-linecap="round" stroke-linejoin="round"/>
<path d="M761.624 378.304L762.115 375.68" stroke="#364715" stroke-miterlimit="10" stroke-linecap="round" stroke-linejoin="round"/>
<path d="M755.38 375.799C755.774 376.89 756.169 377.982 756.563 379.073" stroke="#364715" stroke-miterlimit="10" stroke-linecap="round" stroke-linejoin="round"/>
<path d="M792.349 411.055C792.356 411.976 792.462 412.896 792.664 413.794" stroke="#364715" stroke-miterlimit="10" stroke-linecap="round" stroke-linejoin="round"/>
<path d="M795.115 410.555C795.115 411.805 795.115 413.055 795.115 414.305" stroke="#364715" stroke-miterlimit="10" stroke-linecap="round" stroke-linejoin="round"/>
<path d="M721.865 402.555C721.865 403.888 721.865 405.222 721.865 406.555" stroke="#364715" stroke-miterlimit="10" stroke-linecap="round" stroke-linejoin="round"/>
<path d="M725.84 403.549C725.6 404.551 725.361 405.554 725.121 406.556" stroke="#364715" stroke-miterlimit="10" stroke-linecap="round" stroke-linejoin="round"/>
<path d="M718.333 404.564C718.575 405.4 718.817 406.235 719.058 407.071" stroke="#364715" stroke-miterlimit="10" stroke-linecap="round" stroke-linejoin="round"/>
<path d="M728.115 443.305C728.115 444.722 728.115 446.138 728.115 447.555" stroke="#364715" stroke-miterlimit="10" stroke-linecap="round" stroke-linejoin="round"/>
<path d="M730.818 447.794C731.074 446.712 731.33 445.63 731.586 444.548" stroke="#364715" stroke-miterlimit="10" stroke-linecap="round" stroke-linejoin="round"/>
<path d="M724.312 444.316C724.548 445.402 724.783 446.489 725.019 447.575" stroke="#364715" stroke-miterlimit="10" stroke-linecap="round" stroke-linejoin="round"/>
<path d="M908.472 373.373C909.136 374.381 909.585 375.531 909.779 376.722" stroke="#364715" stroke-miterlimit="10" stroke-linecap="round" stroke-linejoin="round"/>
<path d="M912.022 370.728C912.158 372.837 912.295 374.947 912.431 377.056" stroke="#364715" stroke-miterlimit="10" stroke-linecap="round" stroke-linejoin="round"/>
<path d="M914.781 374.055C914.781 374.944 914.781 375.833 914.781 376.722" stroke="#364715" stroke-miterlimit="10" stroke-linecap="round" stroke-linejoin="round"/>
<path d="M924.057 388.729C924.199 389.836 924.341 390.943 924.483 392.051" stroke="#364715" stroke-miterlimit="10" stroke-linecap="round" stroke-linejoin="round"/>
<path d="M926.721 385.726C926.863 387.613 927.005 389.499 927.147 391.386" stroke="#364715" stroke-miterlimit="10" stroke-linecap="round" stroke-linejoin="round"/>
<path d="M896.47 405.051C896.684 406.164 896.898 407.276 897.112 408.389" stroke="#364715" stroke-miterlimit="10" stroke-linecap="round" stroke-linejoin="round"/>
<path d="M899.696 401.726C899.817 404.059 899.937 406.392 900.058 408.725" stroke="#364715" stroke-miterlimit="10" stroke-linecap="round" stroke-linejoin="round"/>
<path d="M903.115 405.055C903.115 406.166 903.115 407.277 903.115 408.388" stroke="#364715" stroke-miterlimit="10" stroke-linecap="round" stroke-linejoin="round"/>
<path d="M757.115 422.055C757.115 421.055 757.115 420.055 757.115 419.055" stroke="#364715" stroke-miterlimit="10" stroke-linecap="round" stroke-linejoin="round"/>
<path d="M760.11 417.055C760.042 418.394 760.173 419.742 760.5 421.042" stroke="#364715" stroke-miterlimit="10" stroke-linecap="round" stroke-linejoin="round"/>
<path d="M628.781 474.055C628.781 475.388 628.781 476.722 628.781 478.055" stroke="#364715" stroke-miterlimit="10" stroke-linecap="round" stroke-linejoin="round"/>
<path d="M631.781 472.388C631.781 474.277 631.781 476.166 631.781 478.055" stroke="#364715" stroke-miterlimit="10" stroke-linecap="round" stroke-linejoin="round"/>
<path d="M649.134 492.38C649.489 493.26 649.844 494.14 650.199 495.021" stroke="#364715" stroke-miterlimit="10" stroke-linecap="round" stroke-linejoin="round"/>
<path d="M652.781 494.722C652.781 492.833 652.781 490.944 652.781 489.055" stroke="#364715" stroke-miterlimit="10" stroke-linecap="round" stroke-linejoin="round"/>
<path d="M655.395 495.382C655.539 494.164 655.684 492.946 655.828 491.727" stroke="#364715" stroke-miterlimit="10" stroke-linecap="round" stroke-linejoin="round"/>
<path d="M592.782 422.055C592.705 423.202 592.917 424.367 593.392 425.414" stroke="#364715" stroke-miterlimit="10" stroke-linecap="round" stroke-linejoin="round"/>
<path d="M597.024 419.728C597.159 421.615 597.294 423.502 597.429 425.389" stroke="#364715" stroke-miterlimit="10" stroke-linecap="round" stroke-linejoin="round"/>
<path d="M600.458 425.054C600.326 423.826 600.432 422.573 600.77 421.385" stroke="#364715" stroke-miterlimit="10" stroke-linecap="round" stroke-linejoin="round"/>
<path d="M636.789 401.053C637.133 402.239 637.241 403.493 637.104 404.721" stroke="#364715" stroke-miterlimit="10" stroke-linecap="round" stroke-linejoin="round"/>
<path d="M639.532 399.711C639.751 401.378 639.971 403.045 640.19 404.712" stroke="#364715" stroke-miterlimit="10" stroke-linecap="round" stroke-linejoin="round"/>
<path d="M716.163 372.378C716.455 373.72 716.748 375.063 717.04 376.405" stroke="#364715" stroke-miterlimit="10" stroke-linecap="round" stroke-linejoin="round"/>
<path d="M719.813 369.724C719.66 371.728 719.707 373.747 719.951 375.742" stroke="#364715" stroke-miterlimit="10" stroke-linecap="round" stroke-linejoin="round"/>
<path d="M514.448 414.055V410.041" stroke="#364715" stroke-miterlimit="10" stroke-linecap="round" stroke-linejoin="round"/>
<path d="M518.448 414.388V409.722" stroke="#364715" stroke-miterlimit="10" stroke-linecap="round" stroke-linejoin="round"/>
<path d="M527.781 461.055V457.388" stroke="#364715" stroke-miterlimit="10" stroke-linecap="round" stroke-linejoin="round"/>
<path d="M531.115 460.722V454.055" stroke="#364715" stroke-miterlimit="10" stroke-linecap="round" stroke-linejoin="round"/>
<path d="M535.115 461.388V458.388" stroke="#364715" stroke-miterlimit="10" stroke-linecap="round" stroke-linejoin="round"/>
<path d="M468.448 463.055V466.722" stroke="#364715" stroke-miterlimit="10" stroke-linecap="round" stroke-linejoin="round"/>
<path d="M472.115 461.722V466.733" stroke="#364715" stroke-miterlimit="10" stroke-linecap="round" stroke-linejoin="round"/>
<path d="M499.115 488.722V492.404" stroke="#364715" stroke-miterlimit="10" stroke-linecap="round" stroke-linejoin="round"/>
<path d="M502.781 485.388V492.42" stroke="#364715" stroke-miterlimit="10" stroke-linecap="round" stroke-linejoin="round"/>
<path d="M507.115 488.722V491.795" stroke="#364715" stroke-miterlimit="10" stroke-linecap="round" stroke-linejoin="round"/>
<path d="M387.115 454.388V457.722" stroke="#364715" stroke-miterlimit="10" stroke-linecap="round" stroke-linejoin="round"/>
<path d="M391.115 451.722V458.422" stroke="#364715" stroke-miterlimit="10" stroke-linecap="round" stroke-linejoin="round"/>
<path d="M401.448 483.388V479.388" stroke="#364715" stroke-miterlimit="10" stroke-linecap="round" stroke-linejoin="round"/>
<path d="M405.448 483.055V477.711" stroke="#364715" stroke-miterlimit="10" stroke-linecap="round" stroke-linejoin="round"/>
<path d="M411.448 484.055V480.373" stroke="#364715" stroke-miterlimit="10" stroke-linecap="round" stroke-linejoin="round"/>
<mask id="mask1_1_975" style="mask-type:luminance" maskUnits="userSpaceOnUse" x="0" y="0" width="944" height="500">
<path d="M940 500H0V0H943.401L940 500Z" fill="white"/>
</mask>
<g mask="url(#mask1_1_975)">
<path d="M-50.199 516.127L264.783 514.28C264.783 514.28 292.51 506.505 299.167 500C307.919 491.446 320.001 481.716 335.706 469.651C368.872 444.172 411.567 423.525 411.567 423.525C409.608 422.93 407.625 422.34 405.619 421.757C282.971 386.074 74.747 372.448 -51.151 391.46L-50.199 516.127Z" fill="#B7A018"/>
<path d="M223.178 454.911C236.205 456.303 251.436 457.767 264.464 459.159C287.728 461.645 311.161 464.165 333.526 471.036C328.782 473.378 299.392 498.68 285.017 514.055C284.573 514.055 175.767 515.055 175.767 515.055L165.517 455.055C165.517 455.055 223.18 455.155 223.178 454.911Z" fill="#B7A018"/>
<path d="M174.7 452.016C180.454 479.127 185.182 514.722 185.182 515.388" stroke="#937E02" stroke-miterlimit="10"/>
<path d="M186.7 452.016C187.016 454.055 197.182 514.722 197.182 515.388" stroke="#937E02" stroke-miterlimit="10"/>
<path d="M199.7 452.016C200.016 454.055 210.182 514.722 210.182 515.388" stroke="#937E02" stroke-miterlimit="10"/>
<path d="M213.2 452.016C213.516 454.055 223.682 514.722 223.682 515.388" stroke="#937E02" stroke-miterlimit="10" stroke-linecap="round" stroke-linejoin="round"/>
<path d="M227.683 456.722C227.999 458.761 237.183 514.722 237.183 515.389" stroke="#937E02" stroke-miterlimit="10" stroke-linecap="round" stroke-linejoin="round"/>
<path d="M239.849 459.055C240.165 461.094 249.182 514.722 249.182 515.388" stroke="#937E02" stroke-miterlimit="10" stroke-linecap="round" stroke-linejoin="round"/>
<path d="M253.849 461.055C254.165 463.094 262.516 513.388 262.516 514.055" stroke="#937E02" stroke-miterlimit="10" stroke-linecap="round" stroke-linejoin="round"/>
<path d="M269.516 464.388C269.832 466.427 277.183 513.388 277.183 514.055" stroke="#937E02" stroke-miterlimit="10" stroke-linecap="round" stroke-linejoin="round"/>
<path d="M283.266 464.388C283.509 465.959 287.927 494.185 289.944 507.374" stroke="#937E02" stroke-miterlimit="10" stroke-linecap="round" stroke-linejoin="round"/>
<path d="M300.766 467.638C300.942 468.774 302.861 482.758 304.526 495.042" stroke="#937E02" stroke-miterlimit="10" stroke-linecap="round" stroke-linejoin="round"/>
<path d="M317.016 470.388C317.052 470.622 317.772 475.428 318.712 481.717" stroke="#937E02" stroke-miterlimit="10" stroke-linecap="round" stroke-linejoin="round"/>
<path d="M130.516 421.055C130.516 421.055 133.183 393.805 134.516 383.722C168.792 385.026 211.595 386.738 249.766 392.555C242.124 410.518 230.819 436.948 223.177 454.911C223.1 455.459 165.516 455.055 165.516 455.055L130.516 421.055Z" fill="#937E02"/>
<path d="M135.016 388.097C134.766 388.597 210.163 393.202 246.183 397.055" stroke="#776300" stroke-miterlimit="10" stroke-linecap="round" stroke-linejoin="round"/>
<path d="M134.683 397.763C134.433 398.263 206.58 403.618 242.6 407.471" stroke="#776300" stroke-miterlimit="10" stroke-linecap="round" stroke-linejoin="round"/>
<path d="M132.261 409.385C132.023 409.891 202 414.286 238.1 417.304" stroke="#776300" stroke-miterlimit="10" stroke-linecap="round" stroke-linejoin="round"/>
<path d="M130.891 420.93C131.125 420.619 194.639 424.722 232.875 427.724" stroke="#776300" stroke-miterlimit="10" stroke-linecap="round" stroke-linejoin="round"/>
<path d="M145.513 434.367C163.756 435.333 201.207 437.054 229.291 438.942" stroke="#776300" stroke-miterlimit="10" stroke-linecap="round" stroke-linejoin="round"/>
<path d="M158.018 446.792C176.577 446.889 202.898 447.001 224.779 447.426" stroke="#776300" stroke-miterlimit="10" stroke-linecap="round" stroke-linejoin="round"/>
<path d="M134.516 383.722L130.849 421.555L-50.401 440.055C-51.151 439.555 -51.401 392.585 -51.151 391.46C-43.651 390.002 -34.043 389.226 -24.984 388.222C21.19 383.105 74.325 380.378 134.516 383.722Z" fill="#99850B"/>
<path d="M37.893 383.911C37.988 386.48 38.478 389.598 38.724 392.157C39.95 404.929 41.175 417.702 42.401 430.474" stroke="#B7A018" stroke-miterlimit="10" stroke-linecap="round" stroke-linejoin="round"/>
<path d="M22.846 384.688C22.941 387.257 25.883 419.788 27.109 432.56" stroke="#B7A018" stroke-miterlimit="10" stroke-linecap="round" stroke-linejoin="round"/>
<path d="M7.392 386.383C7.487 388.952 7.733 391.512 7.978 394.071C9.204 406.843 10.429 420.45 11.655 433.222" stroke="#B7A018" stroke-miterlimit="10" stroke-linecap="round" stroke-linejoin="round"/>
<path d="M52.872 383.18L57.246 428.751" stroke="#B7A018" stroke-miterlimit="10" stroke-linecap="round" stroke-linejoin="round"/>
<path d="M70.256 383.18L74.174 426.694" stroke="#B7A018" stroke-miterlimit="10" stroke-linecap="round" stroke-linejoin="round"/>
<path d="M83.008 382.847L86.998 425.388" stroke="#B7A018" stroke-miterlimit="10" stroke-linecap="round" stroke-linejoin="round"/>
<path d="M95.849 382.847L99.474 423.472" stroke="#B7A018" stroke-miterlimit="10" stroke-linecap="round" stroke-linejoin="round"/>
<path d="M109.651 383.586L112.683 422.417" stroke="#B7A018" stroke-miterlimit="10" stroke-linecap="round" stroke-linejoin="round"/>
<path d="M122.735 383.586L125.016 421.055" stroke="#B7A018" stroke-miterlimit="10" stroke-linecap="round" stroke-linejoin="round"/>
<path d="M50.058 429.801C56.335 460.734 56.85 516.055 56.85 516.055C56.85 516.722 175.517 514.388 175.517 514.388C175.517 514.388 168.134 471.634 165.517 455.055C165.517 455.055 142.386 430.709 130.517 421.055C105.15 422.663 50.058 429.801 50.058 429.801Z" fill="#AA9011"/>
<path d="M53.487 441.092L147.766 438.943" stroke="#937E02" stroke-miterlimit="10" stroke-linecap="round" stroke-linejoin="round"/>
<path d="M55.059 429.825L137.607 427.944" stroke="#937E02" stroke-miterlimit="10" stroke-linecap="round" stroke-linejoin="round"/>
<path d="M55.059 454.055L159.266 450.574" stroke="#937E02" stroke-miterlimit="10" stroke-linecap="round" stroke-linejoin="round"/>
<path d="M55.059 468.055L165.516 465.055" stroke="#937E02" stroke-miterlimit="10" stroke-linecap="round" stroke-linejoin="round"/>
<path d="M57.454 482.055L167.911 479.055" stroke="#937E02" stroke-miterlimit="10" stroke-linecap="round" stroke-linejoin="round"/>
<path d="M57.454 496.663L167.911 493.663" stroke="#937E02" stroke-miterlimit="10" stroke-linecap="round" stroke-linejoin="round"/>
<path d="M36.754 430.538C38.539 459.41 40.802 488.252 43.541 517.049" stroke="#99850B" stroke-miterlimit="10"/>
<path d="M20.083 430.538C21.868 459.41 24.131 488.252 26.869 517.049" stroke="#99850B" stroke-miterlimit="10"/>
<path d="M6.131 430.538C7.916 459.41 10.179 488.252 12.918 517.049" stroke="#99850B" stroke-miterlimit="10"/>
<path d="M222.183 455.388L249.735 392.508C249.735 392.508 262.055 393.801 277.516 395.888C294.603 398.194 315.417 401.398 325.266 403.305C326.022 403.451 326.837 403.606 327.705 403.768C337.338 405.571 353.547 408.36 368.683 411.888C391.763 417.267 413.266 424.168 413.266 424.168L333.525 471.036L222.183 455.388Z" fill="#AA9011"/>
<path d="M232.933 457.472C240.96 440.314 251.033 414.135 261.579 394.493" stroke="#B7A018" stroke-width="1.5" stroke-miterlimit="10" stroke-linecap="round" stroke-linejoin="round"/>
<path d="M245.183 457.722C253.21 440.564 262.533 415.822 273.079 396.18" stroke="#B7A018" stroke-width="1.5" stroke-miterlimit="10" stroke-linecap="round" stroke-linejoin="round"/>
<path d="M255.516 462.722C263.543 445.564 274.658 417.322 285.203 397.68" stroke="#B7A018" stroke-width="1.5" stroke-miterlimit="10" stroke-linecap="round" stroke-linejoin="round"/>
<path d="M270.516 462.722C278.543 445.564 288.47 419.447 299.016 399.805" stroke="#B7A018" stroke-width="1.5" stroke-miterlimit="10" stroke-linecap="round" stroke-linejoin="round"/>
<path d="M286.016 465.055C294.043 447.897 303.595 421.822 314.141 402.18" stroke="#B7A018" stroke-width="1.5" stroke-miterlimit="10" stroke-linecap="round" stroke-linejoin="round"/>
<path d="M299.183 467.388C307.138 450.384 317.286 424.091 327.732 404.503" stroke="#B7A018" stroke-width="1.5" stroke-miterlimit="10" stroke-linecap="round" stroke-linejoin="round"/>
<path d="M316.183 470.388C324.103 453.459 334.197 427.323 344.594 407.762" stroke="#B7A018" stroke-width="1.5" stroke-miterlimit="10" stroke-linecap="round" stroke-linejoin="round"/>
<path d="M333.516 470.388C341.089 454.201 350.65 429.595 360.563 410.369" stroke="#B7A018" stroke-width="1.5" stroke-miterlimit="10" stroke-linecap="round" stroke-linejoin="round"/>
<path d="M355.772 456.355C361.54 443.028 368.029 427.468 374.728 413.995" stroke="#B7A018" stroke-width="1.5" stroke-miterlimit="10" stroke-linecap="round" stroke-linejoin="round"/>
<path d="M379.857 442.225C383.299 434.258 386.911 426.053 390.603 418.35" stroke="#B7A018" stroke-width="1.5" stroke-miterlimit="10" stroke-linecap="round" stroke-linejoin="round"/>
</g>
<mask id="mask2_1_975" style="mask-type:luminance" maskUnits="userSpaceOnUse" x="0" y="0" width="940" height="500">
<path d="M940 0H0V500H940V0Z" fill="white"/>
</mask>
<g mask="url(#mask2_1_975)">
<path d="M409.426 424.27C407.326 419.472 405.084 414.484 401.017 411.184C396.703 407.683 390.831 406.577 385.293 407.03C383.076 407.211 380.492 407.474 377.854 407.846C372.634 408.582 367.41 405.906 365.256 401.095C361.953 393.715 353.955 388.212 345.797 389.176C342.737 389.538 339.443 390.608 336.726 389.155C334.486 387.958 333.399 385.42 332.143 383.213C326.314 372.964 314.003 367.513 302.214 367.727C294.355 367.87 286.741 370.203 279.688 373.761C274.165 376.547 267.598 376.104 262.57 372.5C255.166 367.193 245.088 365.324 235.925 366.829C223.337 368.898 210.061 379.849 200.24 387.992C223.115 390.242 244.928 392.066 267.737 395.2C316.801 401.942 366.261 411.93 409.426 424.27Z" fill="#1C4732"/>
<path d="M146.048 395.042C145.42 388.095 142.91 381.327 138.856 375.65C128.947 361.777 110.816 355.707 93.773 356.127C79.902 356.469 67.039 358.959 55.51 365.8C51.783 368.011 47.041 367.424 43.945 364.392C42.59 363.065 41.21 361.769 39.662 360.683C33.454 356.33 25.12 355.895 17.832 357.984C14.21 359.022 11.125 360.426 8.202 362.146C3.21201 365.081 -3.187 363.906 -6.932 359.492C-9.1 356.937 -11.098 354.717 -11.576 354.305C-29.929 338.483 -53.309 349.71 -66.713 366.126C-73.07 373.911 -77.251 382.461 -78.996 392.317C-79.411 394.66 -80.679 414.572 -82.883 415.057C-55.9267 409.133 -28.1195 405.186 0 402.445C48.6783 397.699 98.2924 396.566 146.048 395.042Z" fill="#1C4732"/>
</g>
<mask id="mask3_1_975" style="mask-type:luminance" maskUnits="userSpaceOnUse" x="0" y="0" width="940" height="500">
<path d="M940 0H0V500H940V0Z" fill="white"/>
</mask>
<g mask="url(#mask3_1_975)">
<path d="M791.943 513.801C830.351 433.758 910.122 392.593 981.382 424.063C1012.72 437.902 1047.37 471.824 1053.61 515.135L791.943 513.801Z" fill="#183A29"/>
<path d="M709.252 512.202C735.762 456.955 790.822 428.542 840.007 450.263C861.637 459.815 885.554 483.229 889.864 513.123L709.252 512.202Z" fill="#183A29"/>
<path d="M757.167 458.996L782.673 512.576" stroke="#28523E" stroke-miterlimit="10" stroke-linecap="round" stroke-linejoin="round"/>
<path d="M772.499 450.47L786.527 512.638" stroke="#28523E" stroke-miterlimit="10" stroke-linecap="round" stroke-linejoin="round"/>
<path d="M806.545 444.762C806.545 448.48 810.916 514.036 810.916 514.036" stroke="#28523E" stroke-miterlimit="10" stroke-linecap="round" stroke-linejoin="round"/>
<path d="M725.518 487.944C725.109 488.001 725.727 487.459 726.062 487.7C736.22 494.989 751.398 505.179 761.556 512.469" stroke="#28523E" stroke-miterlimit="10" stroke-linecap="round" stroke-linejoin="round"/>
<path d="M839.937 450.117C854.677 472.067 869.418 494.018 884.158 515.968" stroke="#28523E" stroke-miterlimit="10" stroke-linecap="round" stroke-linejoin="round"/>
<path d="M876.687 428.009C879.105 455.538 883.746 488.827 888.949 515.968" stroke="#28523E" stroke-miterlimit="10" stroke-linecap="round" stroke-linejoin="round"/>
<path d="M833.938 449.021C830.833 475.676 827.727 502.33 824.622 528.984" stroke="#28523E" stroke-miterlimit="10" stroke-linecap="round" stroke-linejoin="round"/>
<path d="M909.163 415.148C918.975 449.424 928.786 483.7 938.597 517.977" stroke="#28523E" stroke-miterlimit="10" stroke-linecap="round" stroke-linejoin="round"/>
<path d="M899.853 417.629L929.058 515.135" stroke="#28523E" stroke-miterlimit="10" stroke-linecap="round" stroke-linejoin="round"/>
<path d="M857.73 437.528C858.048 441.262 858.366 444.997 858.683 448.732C859.22 455.047 859.758 461.362 860.295 467.677C860.663 471.999 861.031 476.32 861.45 480.637" stroke="#28523E" stroke-miterlimit="10" stroke-linecap="round" stroke-linejoin="round"/>
<path d="M928.757 414.092C932.116 432.062 942.485 473.541 942.919 473.056" stroke="#28523E" stroke-miterlimit="10" stroke-linecap="round" stroke-linejoin="round"/>
<path d="M791.885 445.613C796.916 456.76 802.216 467.786 807.781 478.677" stroke="#28523E" stroke-miterlimit="10" stroke-linecap="round" stroke-linejoin="round"/>
<path d="M-81.857 539.286C-35.243 445.773 61.572 397.681 148.058 434.447C186.092 450.615 228.146 490.245 235.724 540.844L-81.857 539.286Z" fill="#183A29"/>
<path d="M-28.705 473.887L9.353 542.445" stroke="#28523E" stroke-miterlimit="10" stroke-linecap="round" stroke-linejoin="round"/>
<path d="M16.792 439.437C18.018 444.192 43.349 542.445 43.349 542.445" stroke="#28523E" stroke-miterlimit="10" stroke-linecap="round" stroke-linejoin="round"/>
<path d="M53.056 426.924C54.783 466.461 54.99 504.481 53.693 544.035" stroke="#28523E" stroke-miterlimit="10" stroke-linecap="round" stroke-linejoin="round"/>
<path d="M35.057 432.249C40.542 447.461 46.979 462.33 54.318 476.74" stroke="#28523E" stroke-miterlimit="10" stroke-linecap="round" stroke-linejoin="round"/>
<path d="M78.033 423.22L70.893 540.035" stroke="#28523E" stroke-miterlimit="10" stroke-linecap="round" stroke-linejoin="round"/>
<path d="M106.636 425.419C98.864 463.206 92.29 501.24 86.928 539.444" stroke="#28523E" stroke-miterlimit="10" stroke-linecap="round" stroke-linejoin="round"/>
<path d="M97.346 473.887L140.432 432.078" stroke="#28523E" stroke-miterlimit="10" stroke-linecap="round" stroke-linejoin="round"/>
<path d="M158.045 441.04C149.904 462.935 141.762 484.829 133.621 506.724C128.706 519.942 125.573 526.62 122.091 540.286" stroke="#28523E" stroke-miterlimit="10" stroke-linecap="round" stroke-linejoin="round"/>
<path d="M146.691 542.445C144.834 546.075 176.354 484.45 188.242 461.207" stroke="#28523E" stroke-miterlimit="10" stroke-linecap="round" stroke-linejoin="round"/>
<path d="M148.557 544.034L202.348 473.887" stroke="#28523E" stroke-miterlimit="10" stroke-linecap="round" stroke-linejoin="round"/>
<path d="M188.844 540.779L219.424 497.956" stroke="#28523E" stroke-miterlimit="10" stroke-linecap="round" stroke-linejoin="round"/>
<path d="M216.857 524.191C243.367 468.944 298.427 440.53 347.612 462.252C369.242 471.804 393.159 495.218 397.469 525.112L216.857 524.191Z" fill="#183A29"/>
<path d="M302.883 456.025L307.163 523.734" stroke="#28523E" stroke-miterlimit="10" stroke-linecap="round" stroke-linejoin="round"/>
<path d="M289.309 458.945C296.702 479.522 303.934 505.259 308.34 526.675" stroke="#28523E" stroke-miterlimit="10" stroke-linecap="round" stroke-linejoin="round"/>
<path d="M255.637 477.982C267.923 496.181 280.208 514.38 292.494 532.578" stroke="#28523E" stroke-miterlimit="10" stroke-linecap="round" stroke-linejoin="round"/>
<path d="M268.013 467.85C276.125 492.787 284.325 517.927 297.358 540.682" stroke="#28523E" stroke-miterlimit="10" stroke-linecap="round" stroke-linejoin="round"/>
<path d="M243.085 487.386L279.669 528.406" stroke="#28523E" stroke-miterlimit="10" stroke-linecap="round" stroke-linejoin="round"/>
<path d="M326.014 456.074C323.907 480.8 321.017 505.46 317.35 530.004" stroke="#28523E" stroke-miterlimit="10" stroke-linecap="round" stroke-linejoin="round"/>
<path d="M344.124 460.802L321.041 551.483" stroke="#28523E" stroke-miterlimit="10" stroke-linecap="round" stroke-linejoin="round"/>
<path d="M332.121 526.111C352.336 509.413 357.874 504.5 376.865 486.422" stroke="#28523E" stroke-miterlimit="10" stroke-linecap="round" stroke-linejoin="round"/>
<path d="M343.697 526.738C362.152 514.095 367.016 510.9 385.946 498.98" stroke="#28523E" stroke-miterlimit="10" stroke-linecap="round" stroke-linejoin="round"/>
</g>
<path d="M152.146 339.36L150.176 384.479L157.821 384.816C158.006 383.318 157.928 339.36 157.928 339.36" fill="#CA5B17"/>
<path d="M182.118 347.466C182.118 347.466 194.735 339.129 189.778 328.315C186.334 320.801 178.652 318.54 172.796 319.191C171.735 315.109 166.797 303.606 153.493 302.604C145.314 301.988 136.686 305.499 131.582 311.846C126.852 317.728 128.495 327.188 128.495 327.188C124.432 333.187 123.593 345.231 127.419 350.917C132.938 359.119 144.032 362.944 153.458 360.037C153.458 360.037 160.939 366.242 171.754 362.094C180.735 358.649 182.118 347.466 182.118 347.466Z" fill="#1C4732"/>
<path d="M154.061 313.727C154.061 314.653 153.31 315.404 152.383 315.404C151.456 315.404 150.705 314.653 150.705 313.727C150.705 312.8 151.456 312.049 152.383 312.049C153.31 312.049 154.061 312.801 154.061 313.727Z" fill="#EF920F"/>
<path d="M141.864 325.558C141.039 325.979 140.028 325.652 139.607 324.826C139.186 324.001 139.514 322.99 140.339 322.569C141.164 322.148 142.175 322.476 142.596 323.301C143.017 324.127 142.689 325.137 141.864 325.558Z" fill="#EF920F"/>
<path d="M154.061 331.233C154.988 331.233 155.739 330.482 155.739 329.555C155.739 328.628 154.988 327.877 154.061 327.877C153.134 327.877 152.383 328.628 152.383 329.555C152.383 330.482 153.134 331.233 154.061 331.233Z" fill="#EF920F"/>
<path d="M195.422 340.21L193.379 387.001L201.093 387.388C201.278 385.89 201.204 340.21 201.204 340.21" fill="#CA5B17"/>
<path d="M169.745 347.466C169.745 347.466 157.128 339.129 162.084 328.315C165.528 320.801 173.21 318.54 179.066 319.191C180.127 315.109 185.065 303.606 198.369 302.604C206.548 301.988 215.176 305.499 220.28 311.846C225.01 317.728 223.367 327.188 223.367 327.188C227.43 333.187 230.402 344.016 225.786 351.646C219.037 362.802 207.829 362.944 198.403 360.037C198.403 360.037 190.922 366.242 180.107 362.094C171.128 358.649 169.745 347.466 169.745 347.466Z" fill="#34684E"/>
<path d="M190.095 324.064C190.095 324.991 189.344 325.742 188.417 325.742C187.491 325.742 186.74 324.991 186.74 324.064C186.74 323.138 187.491 322.387 188.417 322.387C189.344 322.387 190.095 323.138 190.095 324.064Z" fill="#EF920F"/>
<path d="M178.115 336.044C178.115 336.97 177.364 337.721 176.437 337.721C175.511 337.721 174.76 336.97 174.76 336.044C174.76 335.117 175.511 334.366 176.437 334.366C177.364 334.366 178.115 335.117 178.115 336.044Z" fill="#EF920F"/>
<path d="M209.799 325.742C210.726 325.742 211.477 324.991 211.477 324.064C211.477 323.137 210.726 322.386 209.799 322.386C208.872 322.386 208.121 323.137 208.121 324.064C208.121 324.991 208.872 325.742 209.799 325.742Z" fill="#EF920F"/>
<path d="M199.462 312.049C199.462 312.976 198.711 313.727 197.784 313.727C196.858 313.727 196.106 312.976 196.106 312.049C196.106 311.123 196.857 310.372 197.784 310.372C198.711 310.372 199.462 311.123 199.462 312.049Z" fill="#EF920F"/>
<path d="M199.462 337.824C199.462 338.75 198.711 339.502 197.784 339.502C196.858 339.502 196.106 338.751 196.106 337.824C196.106 336.898 196.857 336.146 197.784 336.146C198.711 336.147 199.462 336.898 199.462 337.824Z" fill="#EF920F"/>
</svg>
