<svg width="1018" height="529" viewBox="0 0 1018 529" fill="none" xmlns="http://www.w3.org/2000/svg">
<g clip-path="url(#clip0_1_491)">
<mask id="mask0_1_491" style="mask-type:luminance" maskUnits="userSpaceOnUse" x="0" y="0" width="1018" height="529">
<path d="M1017.4 0.675003H0.399994V528.675H1017.4V0.675003Z" fill="white"/>
</mask>
<g mask="url(#mask0_1_491)">
<path d="M443.364 448.704C441.092 443.637 438.666 438.37 434.266 434.885C429.599 431.188 423.246 430.02 417.254 430.499C414.856 430.69 412.06 430.968 409.206 431.36C403.558 432.138 397.906 429.312 395.576 424.231C392.002 416.438 383.349 410.627 374.523 411.645C371.212 412.027 367.648 413.157 364.709 411.623C362.285 410.359 361.109 407.679 359.75 405.348C353.444 394.525 340.125 388.769 327.37 388.995C318.867 389.146 310.629 391.609 302.999 395.367C297.023 398.309 289.918 397.841 284.478 394.035C276.468 388.431 265.564 386.457 255.651 388.046C242.032 390.231 227.668 401.796 217.043 410.395C241.791 412.771 265.391 414.697 290.069 418.006C343.152 425.126 396.663 435.673 443.364 448.704Z" fill="#1C4732"/>
<path d="M158.411 417.839C157.732 410.503 155.016 403.356 150.63 397.361C139.91 382.711 120.293 376.302 101.854 376.745C86.8472 377.106 72.9305 379.736 60.4571 386.96C56.4248 389.295 51.2943 388.675 47.9447 385.473C46.4787 384.072 44.9857 382.703 43.3109 381.556C36.5944 376.959 27.5777 376.5 19.6927 378.706C15.774 379.802 12.4363 381.285 9.27386 383.101C3.8751 386.201 -3.04808 384.96 -7.09985 380.299C-9.44544 377.6 -11.6071 375.256 -12.1243 374.821C-31.9806 358.113 -57.2758 369.969 -71.7778 387.304C-78.6555 395.525 -83.179 404.554 -85.067 414.962C-85.516 417.436 -86.8878 438.463 -89.2724 438.975C-60.1079 432.719 -30.0229 428.551 0.399987 425.656C53.0658 420.645 106.744 419.449 158.411 417.839Z" fill="#1C4732"/>
</g>
<path d="M165.009 359.039L162.878 406.685L171.149 407.041C171.349 405.459 171.265 359.039 171.265 359.039" fill="#CA5B17"/>
<path d="M197.436 367.599C197.436 367.599 211.087 358.795 205.724 347.376C201.997 339.441 193.686 337.053 187.351 337.741C186.203 333.43 180.86 321.283 166.466 320.225C157.617 319.574 148.283 323.282 142.76 329.984C137.643 336.196 139.421 346.186 139.421 346.186C135.025 352.52 134.117 365.239 138.256 371.243C144.228 379.905 156.23 383.944 166.428 380.874C166.428 380.874 174.522 387.427 186.223 383.046C195.94 379.408 197.436 367.599 197.436 367.599Z" fill="#1C4732"/>
<path d="M167.081 331.971C167.081 332.949 166.268 333.742 165.265 333.742C164.263 333.742 163.45 332.949 163.45 331.971C163.45 330.992 164.263 330.199 165.265 330.199C166.268 330.199 167.081 330.993 167.081 331.971Z" fill="#EF920F"/>
<path d="M153.885 344.464C152.992 344.909 151.898 344.563 151.443 343.691C150.987 342.82 151.342 341.752 152.235 341.308C153.127 340.863 154.221 341.21 154.677 342.081C155.132 342.953 154.777 344.02 153.885 344.464Z" fill="#EF920F"/>
<path d="M167.081 350.457C168.084 350.457 168.896 349.664 168.896 348.685C168.896 347.706 168.084 346.913 167.081 346.913C166.078 346.913 165.265 347.706 165.265 348.685C165.265 349.664 166.078 350.457 167.081 350.457Z" fill="#EF920F"/>
<path d="M211.83 359.937L209.62 409.348L217.965 409.757C218.166 408.175 218.085 359.937 218.085 359.937" fill="#CA5B17"/>
<path d="M184.05 367.599C184.05 367.599 170.399 358.795 175.761 347.376C179.487 339.441 187.798 337.053 194.134 337.741C195.282 333.43 200.625 321.283 215.018 320.225C223.867 319.574 233.202 323.282 238.724 329.984C243.842 336.196 242.064 346.186 242.064 346.186C246.46 352.52 249.675 363.956 244.681 372.013C237.379 383.794 225.253 383.944 215.055 380.874C215.055 380.874 206.961 387.427 195.26 383.046C185.546 379.408 184.05 367.599 184.05 367.599Z" fill="#34684E"/>
<path d="M206.066 342.887C206.066 343.865 205.254 344.659 204.251 344.659C203.249 344.659 202.437 343.865 202.437 342.887C202.437 341.909 203.249 341.116 204.251 341.116C205.254 341.116 206.066 341.909 206.066 342.887Z" fill="#EF920F"/>
<path d="M193.105 355.537C193.105 356.515 192.293 357.308 191.29 357.308C190.288 357.308 189.475 356.515 189.475 355.537C189.475 354.559 190.288 353.766 191.29 353.766C192.293 353.766 193.105 354.559 193.105 355.537Z" fill="#EF920F"/>
<path d="M227.385 344.659C228.387 344.659 229.2 343.865 229.2 342.887C229.2 341.908 228.387 341.115 227.385 341.115C226.382 341.115 225.569 341.908 225.569 342.887C225.569 343.865 226.382 344.659 227.385 344.659Z" fill="#EF920F"/>
<path d="M216.201 330.199C216.201 331.178 215.388 331.971 214.385 331.971C213.383 331.971 212.57 331.178 212.57 330.199C212.57 329.221 213.382 328.428 214.385 328.428C215.388 328.428 216.201 329.221 216.201 330.199Z" fill="#EF920F"/>
<path d="M216.201 357.417C216.201 358.395 215.388 359.189 214.385 359.189C213.383 359.189 212.57 358.396 212.57 357.417C212.57 356.439 213.382 355.645 214.385 355.645C215.388 355.646 216.201 356.439 216.201 357.417Z" fill="#EF920F"/>
<mask id="mask1_1_491" style="mask-type:luminance" maskUnits="userSpaceOnUse" x="0" y="0" width="1018" height="529">
<path d="M1017.93 0.675015H0.929688V528.675H1017.93V0.675015Z" fill="white"/>
</mask>
<g mask="url(#mask1_1_491)">
<path d="M305.613 543.517C375.393 472.24 462.098 436.147 532.848 417.945C705.275 373.582 883.47 384.62 1060.15 385.104C1092.61 385.193 1106.68 383.543 1106.68 383.543V541.446L305.613 543.517Z" fill="#9B7D00"/>
</g>
<path d="M822.547 395.853L822.813 400.404" stroke="#364715" stroke-width="1.05128" stroke-miterlimit="10" stroke-linecap="round" stroke-linejoin="round"/>
<path d="M825.46 400.164L825.99 397.393" stroke="#364715" stroke-width="1.05128" stroke-miterlimit="10" stroke-linecap="round" stroke-linejoin="round"/>
<path d="M818.662 397.519C819.091 398.671 819.521 399.824 819.95 400.976" stroke="#364715" stroke-width="1.05128" stroke-miterlimit="10" stroke-linecap="round" stroke-linejoin="round"/>
<path d="M858.912 434.749C858.919 435.722 859.034 436.693 859.252 437.641" stroke="#364715" stroke-width="1.05128" stroke-miterlimit="10" stroke-linecap="round" stroke-linejoin="round"/>
<path d="M861.923 434.221C861.923 435.541 861.923 436.861 861.923 438.181" stroke="#364715" stroke-width="1.05128" stroke-miterlimit="10" stroke-linecap="round" stroke-linejoin="round"/>
<path d="M782.173 425.773C782.173 427.181 782.173 428.589 782.173 429.997" stroke="#364715" stroke-width="1.05128" stroke-miterlimit="10" stroke-linecap="round" stroke-linejoin="round"/>
<path d="M786.501 426.823C786.239 427.881 785.979 428.94 785.718 429.998" stroke="#364715" stroke-width="1.05128" stroke-miterlimit="10" stroke-linecap="round" stroke-linejoin="round"/>
<path d="M778.327 427.895C778.591 428.777 778.854 429.659 779.117 430.542" stroke="#364715" stroke-width="1.05128" stroke-miterlimit="10" stroke-linecap="round" stroke-linejoin="round"/>
<path d="M788.977 468.805C788.977 470.301 788.977 471.797 788.977 473.293" stroke="#364715" stroke-width="1.05128" stroke-miterlimit="10" stroke-linecap="round" stroke-linejoin="round"/>
<path d="M791.92 473.545C792.199 472.403 792.478 471.26 792.757 470.118" stroke="#364715" stroke-width="1.05128" stroke-miterlimit="10" stroke-linecap="round" stroke-linejoin="round"/>
<path d="M784.837 469.873C785.094 471.019 785.35 472.167 785.607 473.314" stroke="#364715" stroke-width="1.05128" stroke-miterlimit="10" stroke-linecap="round" stroke-linejoin="round"/>
<path d="M985.34 394.957C986.063 396.021 986.552 397.236 986.764 398.493" stroke="#364715" stroke-width="1.05128" stroke-miterlimit="10" stroke-linecap="round" stroke-linejoin="round"/>
<path d="M989.205 392.164C989.352 394.391 989.499 396.619 989.646 398.846" stroke="#364715" stroke-width="1.05128" stroke-miterlimit="10" stroke-linecap="round" stroke-linejoin="round"/>
<path d="M992.209 395.677C992.209 396.616 992.209 397.555 992.209 398.493" stroke="#364715" stroke-width="1.05128" stroke-miterlimit="10" stroke-linecap="round" stroke-linejoin="round"/>
<path d="M1002.31 411.173C1002.46 412.342 1002.61 413.511 1002.77 414.681" stroke="#364715" stroke-width="1.05128" stroke-miterlimit="10" stroke-linecap="round" stroke-linejoin="round"/>
<path d="M1005.21 408.002C1005.36 409.994 1005.52 411.986 1005.67 413.979" stroke="#364715" stroke-width="1.05128" stroke-miterlimit="10" stroke-linecap="round" stroke-linejoin="round"/>
<path d="M972.273 428.409C972.506 429.584 972.739 430.758 972.972 431.934" stroke="#364715" stroke-width="1.05128" stroke-miterlimit="10" stroke-linecap="round" stroke-linejoin="round"/>
<path d="M975.785 424.898C975.916 427.361 976.045 429.825 976.176 432.289" stroke="#364715" stroke-width="1.05128" stroke-miterlimit="10" stroke-linecap="round" stroke-linejoin="round"/>
<path d="M979.508 428.413C979.508 429.586 979.508 430.759 979.508 431.933" stroke="#364715" stroke-width="1.05128" stroke-miterlimit="10" stroke-linecap="round" stroke-linejoin="round"/>
<path d="M820.551 446.365C820.551 445.309 820.551 444.253 820.551 443.197" stroke="#364715" stroke-width="1.05128" stroke-miterlimit="10" stroke-linecap="round" stroke-linejoin="round"/>
<path d="M823.811 441.085C823.738 442.499 823.88 443.923 824.233 445.295" stroke="#364715" stroke-width="1.05128" stroke-miterlimit="10" stroke-linecap="round" stroke-linejoin="round"/>
<path d="M680.828 501.277C680.828 502.685 680.828 504.093 680.828 505.501" stroke="#364715" stroke-width="1.05128" stroke-miterlimit="10" stroke-linecap="round" stroke-linejoin="round"/>
<path d="M684.094 499.517C684.094 501.512 684.094 503.506 684.094 505.501" stroke="#364715" stroke-width="1.05128" stroke-miterlimit="10" stroke-linecap="round" stroke-linejoin="round"/>
<path d="M702.987 520.628C703.374 521.558 703.761 522.487 704.147 523.417" stroke="#364715" stroke-width="1.05128" stroke-miterlimit="10" stroke-linecap="round" stroke-linejoin="round"/>
<path d="M706.958 523.101C706.958 521.107 706.958 519.112 706.958 517.117" stroke="#364715" stroke-width="1.05128" stroke-miterlimit="10" stroke-linecap="round" stroke-linejoin="round"/>
<path d="M709.804 523.798C709.959 522.512 710.116 521.226 710.271 519.939" stroke="#364715" stroke-width="1.05128" stroke-miterlimit="10" stroke-linecap="round" stroke-linejoin="round"/>
<path d="M641.634 446.365C641.551 447.576 641.781 448.807 642.299 449.912" stroke="#364715" stroke-width="1.05128" stroke-miterlimit="10" stroke-linecap="round" stroke-linejoin="round"/>
<path d="M646.253 443.908C646.399 445.9 646.544 447.893 646.69 449.886" stroke="#364715" stroke-width="1.05128" stroke-miterlimit="10" stroke-linecap="round" stroke-linejoin="round"/>
<path d="M649.991 449.532C649.849 448.235 649.963 446.912 650.328 445.658" stroke="#364715" stroke-width="1.05128" stroke-miterlimit="10" stroke-linecap="round" stroke-linejoin="round"/>
<path d="M689.547 424.187C689.918 425.439 690.035 426.764 689.887 428.06" stroke="#364715" stroke-width="1.05128" stroke-miterlimit="10" stroke-linecap="round" stroke-linejoin="round"/>
<path d="M692.533 422.77C692.772 424.53 693.011 426.291 693.25 428.051" stroke="#364715" stroke-width="1.05128" stroke-miterlimit="10" stroke-linecap="round" stroke-linejoin="round"/>
<path d="M775.965 393.906C776.283 395.323 776.602 396.742 776.92 398.159" stroke="#364715" stroke-width="1.05128" stroke-miterlimit="10" stroke-linecap="round" stroke-linejoin="round"/>
<path d="M779.938 391.104C779.773 393.22 779.823 395.352 780.087 397.459" stroke="#364715" stroke-width="1.05128" stroke-miterlimit="10" stroke-linecap="round" stroke-linejoin="round"/>
<path d="M556.349 437.917V433.678" stroke="#364715" stroke-width="1.05128" stroke-miterlimit="10" stroke-linecap="round" stroke-linejoin="round"/>
<path d="M560.704 438.269V433.341" stroke="#364715" stroke-width="1.05128" stroke-miterlimit="10" stroke-linecap="round" stroke-linejoin="round"/>
<path d="M570.865 487.549V483.677" stroke="#364715" stroke-width="1.05128" stroke-miterlimit="10" stroke-linecap="round" stroke-linejoin="round"/>
<path d="M574.495 487.197V480.157" stroke="#364715" stroke-width="1.05128" stroke-miterlimit="10" stroke-linecap="round" stroke-linejoin="round"/>
<path d="M578.85 487.901V484.733" stroke="#364715" stroke-width="1.05128" stroke-miterlimit="10" stroke-linecap="round" stroke-linejoin="round"/>
<path d="M506.266 489.661V493.533" stroke="#364715" stroke-width="1.05128" stroke-miterlimit="10" stroke-linecap="round" stroke-linejoin="round"/>
<path d="M510.259 488.253V493.545" stroke="#364715" stroke-width="1.05128" stroke-miterlimit="10" stroke-linecap="round" stroke-linejoin="round"/>
<path d="M539.655 516.765V520.654" stroke="#364715" stroke-width="1.05128" stroke-miterlimit="10" stroke-linecap="round" stroke-linejoin="round"/>
<path d="M543.646 513.245V520.67" stroke="#364715" stroke-width="1.05128" stroke-miterlimit="10" stroke-linecap="round" stroke-linejoin="round"/>
<path d="M548.365 516.765V520.011" stroke="#364715" stroke-width="1.05128" stroke-miterlimit="10" stroke-linecap="round" stroke-linejoin="round"/>
<path d="M417.716 480.509V484.029" stroke="#364715" stroke-width="1.05128" stroke-miterlimit="10" stroke-linecap="round" stroke-linejoin="round"/>
<path d="M422.071 477.693V484.769" stroke="#364715" stroke-width="1.05128" stroke-miterlimit="10" stroke-linecap="round" stroke-linejoin="round"/>
<path d="M433.32 511.133V506.909" stroke="#364715" stroke-width="1.05128" stroke-miterlimit="10" stroke-linecap="round" stroke-linejoin="round"/>
<path d="M437.675 510.781V505.138" stroke="#364715" stroke-width="1.05128" stroke-miterlimit="10" stroke-linecap="round" stroke-linejoin="round"/>
<path d="M444.208 511.837V507.949" stroke="#364715" stroke-width="1.05128" stroke-miterlimit="10" stroke-linecap="round" stroke-linejoin="round"/>
<mask id="mask2_1_491" style="mask-type:luminance" maskUnits="userSpaceOnUse" x="0" y="0" width="1018" height="529">
<path d="M1013.73 528.675H0.399994V0.675003H1017.4L1013.73 528.675Z" fill="white"/>
</mask>
<g mask="url(#mask2_1_491)">
<path d="M-53.7151 545.705L285.84 543.755C285.84 543.755 315.73 535.544 322.907 528.675C332.341 519.642 345.366 509.367 362.296 496.626C398.05 469.721 444.075 447.917 444.075 447.917C441.964 447.289 439.826 446.666 437.663 446.05C305.447 408.369 80.9785 393.98 -54.7414 414.057L-53.7151 545.705Z" fill="#B7A018"/>
<path d="M240.989 481.061C255.032 482.531 271.452 484.077 285.496 485.547C310.575 488.172 335.836 490.833 359.946 498.089C354.832 500.562 323.149 527.281 307.652 543.517C307.174 543.517 189.879 544.573 189.879 544.573L178.83 481.213C178.83 481.213 240.991 481.319 240.989 481.061Z" fill="#B7A018"/>
<path d="M188.729 478.004C194.932 506.633 200.029 544.221 200.029 544.925" stroke="#937E02" stroke-width="1.05128" stroke-miterlimit="10"/>
<path d="M201.665 478.004C202.006 480.157 212.965 544.221 212.965 544.925" stroke="#937E02" stroke-width="1.05128" stroke-miterlimit="10"/>
<path d="M215.68 478.004C216.02 480.157 226.979 544.221 226.979 544.925" stroke="#937E02" stroke-width="1.05128" stroke-miterlimit="10"/>
<path d="M230.233 478.004C230.573 480.157 241.532 544.221 241.532 544.925" stroke="#937E02" stroke-width="1.05128" stroke-miterlimit="10" stroke-linecap="round" stroke-linejoin="round"/>
<path d="M245.846 482.973C246.186 485.127 256.087 544.221 256.087 544.926" stroke="#937E02" stroke-width="1.05128" stroke-miterlimit="10" stroke-linecap="round" stroke-linejoin="round"/>
<path d="M258.961 485.437C259.301 487.59 269.022 544.221 269.022 544.925" stroke="#937E02" stroke-width="1.05128" stroke-miterlimit="10" stroke-linecap="round" stroke-linejoin="round"/>
<path d="M274.053 487.549C274.394 489.702 283.396 542.813 283.396 543.517" stroke="#937E02" stroke-width="1.05128" stroke-miterlimit="10" stroke-linecap="round" stroke-linejoin="round"/>
<path d="M290.942 491.069C291.283 493.222 299.207 542.813 299.207 543.517" stroke="#937E02" stroke-width="1.05128" stroke-miterlimit="10" stroke-linecap="round" stroke-linejoin="round"/>
<path d="M305.765 491.069C306.027 492.728 310.79 522.534 312.964 536.462" stroke="#937E02" stroke-width="1.05128" stroke-miterlimit="10" stroke-linecap="round" stroke-linejoin="round"/>
<path d="M324.63 494.501C324.82 495.7 326.889 510.467 328.683 523.439" stroke="#937E02" stroke-width="1.05128" stroke-miterlimit="10" stroke-linecap="round" stroke-linejoin="round"/>
<path d="M342.148 497.405C342.187 497.652 342.963 502.727 343.977 509.368" stroke="#937E02" stroke-width="1.05128" stroke-miterlimit="10" stroke-linecap="round" stroke-linejoin="round"/>
<path d="M141.098 445.309C141.098 445.309 143.973 416.533 145.41 405.885C182.36 407.262 228.502 409.07 269.651 415.213C261.413 434.182 249.226 462.092 240.988 481.061C240.905 481.64 178.829 481.213 178.829 481.213L141.098 445.309Z" fill="#937E02"/>
<path d="M145.949 410.505C145.68 411.033 226.959 415.896 265.789 419.965" stroke="#776300" stroke-width="1.05128" stroke-miterlimit="10" stroke-linecap="round" stroke-linejoin="round"/>
<path d="M145.59 420.713C145.321 421.241 223.096 426.896 261.926 430.964" stroke="#776300" stroke-width="1.05128" stroke-miterlimit="10" stroke-linecap="round" stroke-linejoin="round"/>
<path d="M142.979 432.986C142.723 433.52 218.159 438.161 257.075 441.348" stroke="#776300" stroke-width="1.05128" stroke-miterlimit="10" stroke-linecap="round" stroke-linejoin="round"/>
<path d="M141.502 445.177C141.755 444.849 210.224 449.181 251.443 452.352" stroke="#776300" stroke-width="1.05128" stroke-miterlimit="10" stroke-linecap="round" stroke-linejoin="round"/>
<path d="M157.265 459.367C176.931 460.387 217.304 462.204 247.579 464.198" stroke="#776300" stroke-width="1.05128" stroke-miterlimit="10" stroke-linecap="round" stroke-linejoin="round"/>
<path d="M170.746 472.487C190.753 472.59 219.127 472.708 242.715 473.158" stroke="#776300" stroke-width="1.05128" stroke-miterlimit="10" stroke-linecap="round" stroke-linejoin="round"/>
<path d="M145.41 405.885L141.457 445.837L-53.933 465.373C-54.7415 464.845 -55.011 415.245 -54.7415 414.057C-46.6564 412.517 -36.2988 411.698 -26.5331 410.637C23.2432 405.234 80.5235 402.354 145.41 405.885Z" fill="#99850B"/>
<path d="M41.2493 406.085C41.3517 408.798 41.8799 412.09 42.1451 414.793C43.4668 428.28 44.7873 441.768 46.109 455.256" stroke="#B7A018" stroke-width="1.05128" stroke-miterlimit="10" stroke-linecap="round" stroke-linejoin="round"/>
<path d="M25.0284 406.905C25.1308 409.618 28.3023 443.971 29.6239 457.458" stroke="#B7A018" stroke-width="1.05128" stroke-miterlimit="10" stroke-linecap="round" stroke-linejoin="round"/>
<path d="M8.36871 408.695C8.47112 411.408 8.73632 414.112 9.00043 416.814C10.3221 430.301 11.6426 444.67 12.9643 458.157" stroke="#B7A018" stroke-width="1.05128" stroke-miterlimit="10" stroke-linecap="round" stroke-linejoin="round"/>
<path d="M57.3968 405.313L62.1121 453.436" stroke="#B7A018" stroke-width="1.05128" stroke-miterlimit="10" stroke-linecap="round" stroke-linejoin="round"/>
<path d="M76.1371 405.313L80.3608 451.264" stroke="#B7A018" stroke-width="1.05128" stroke-miterlimit="10" stroke-linecap="round" stroke-linejoin="round"/>
<path d="M89.8839 404.961L94.1852 449.885" stroke="#B7A018" stroke-width="1.05128" stroke-miterlimit="10" stroke-linecap="round" stroke-linejoin="round"/>
<path d="M103.727 404.961L107.634 447.861" stroke="#B7A018" stroke-width="1.05128" stroke-miterlimit="10" stroke-linecap="round" stroke-linejoin="round"/>
<path d="M118.605 405.742L121.874 446.747" stroke="#B7A018" stroke-width="1.05128" stroke-miterlimit="10" stroke-linecap="round" stroke-linejoin="round"/>
<path d="M132.71 405.742L135.169 445.309" stroke="#B7A018" stroke-width="1.05128" stroke-miterlimit="10" stroke-linecap="round" stroke-linejoin="round"/>
<path d="M54.3632 454.545C61.1299 487.21 61.6851 545.629 61.6851 545.629C61.6851 546.333 189.61 543.869 189.61 543.869C189.61 543.869 181.651 498.721 178.83 481.213C178.83 481.213 153.894 455.504 141.099 445.309C113.753 447.007 54.3632 454.545 54.3632 454.545Z" fill="#AA9011"/>
<path d="M58.0598 466.468L159.694 464.199" stroke="#937E02" stroke-width="1.05128" stroke-miterlimit="10" stroke-linecap="round" stroke-linejoin="round"/>
<path d="M59.7544 454.57L148.742 452.584" stroke="#937E02" stroke-width="1.05128" stroke-miterlimit="10" stroke-linecap="round" stroke-linejoin="round"/>
<path d="M59.7544 480.157L172.091 476.481" stroke="#937E02" stroke-width="1.05128" stroke-miterlimit="10" stroke-linecap="round" stroke-linejoin="round"/>
<path d="M59.7544 494.941L178.829 491.773" stroke="#937E02" stroke-width="1.05128" stroke-miterlimit="10" stroke-linecap="round" stroke-linejoin="round"/>
<path d="M62.3363 509.725L181.411 506.557" stroke="#937E02" stroke-width="1.05128" stroke-miterlimit="10" stroke-linecap="round" stroke-linejoin="round"/>
<path d="M62.3363 525.151L181.411 521.983" stroke="#937E02" stroke-width="1.05128" stroke-miterlimit="10" stroke-linecap="round" stroke-linejoin="round"/>
<path d="M40.0213 455.323C41.9456 485.812 44.3851 516.269 47.3378 546.679" stroke="#99850B" stroke-width="1.05128" stroke-miterlimit="10"/>
<path d="M22.0497 455.323C23.974 485.812 26.4135 516.269 29.3651 546.679" stroke="#99850B" stroke-width="1.05128" stroke-miterlimit="10"/>
<path d="M7.00928 455.323C8.93353 485.812 11.3731 516.269 14.3258 546.679" stroke="#99850B" stroke-width="1.05128" stroke-miterlimit="10"/>
<path d="M239.916 481.565L269.618 415.163C269.618 415.163 282.899 416.529 299.566 418.733C317.986 421.168 340.424 424.551 351.041 426.565C351.856 426.719 352.735 426.883 353.671 427.054C364.055 428.958 381.529 431.903 397.846 435.629C422.726 441.309 445.907 448.596 445.907 448.596L359.945 498.089L239.916 481.565Z" fill="#AA9011"/>
<path d="M251.505 483.765C260.158 465.647 271.017 438.002 282.386 417.26" stroke="#B7A018" stroke-width="1.57693" stroke-miterlimit="10" stroke-linecap="round" stroke-linejoin="round"/>
<path d="M264.711 484.029C273.364 465.911 283.414 439.783 294.783 419.041" stroke="#B7A018" stroke-width="1.57693" stroke-miterlimit="10" stroke-linecap="round" stroke-linejoin="round"/>
<path d="M275.85 489.309C284.503 471.191 296.485 441.367 307.853 420.625" stroke="#B7A018" stroke-width="1.57693" stroke-miterlimit="10" stroke-linecap="round" stroke-linejoin="round"/>
<path d="M292.02 489.309C300.673 471.191 311.375 443.611 322.744 422.869" stroke="#B7A018" stroke-width="1.57693" stroke-miterlimit="10" stroke-linecap="round" stroke-linejoin="round"/>
<path d="M308.729 491.773C317.383 473.654 327.68 446.119 339.049 425.377" stroke="#B7A018" stroke-width="1.57693" stroke-miterlimit="10" stroke-linecap="round" stroke-linejoin="round"/>
<path d="M322.924 494.237C331.499 476.28 342.439 448.515 353.7 427.83" stroke="#B7A018" stroke-width="1.57693" stroke-miterlimit="10" stroke-linecap="round" stroke-linejoin="round"/>
<path d="M341.25 497.405C349.788 479.528 360.669 451.928 371.877 431.272" stroke="#B7A018" stroke-width="1.57693" stroke-miterlimit="10" stroke-linecap="round" stroke-linejoin="round"/>
<path d="M359.935 497.405C368.099 480.311 378.406 454.327 389.092 434.025" stroke="#B7A018" stroke-width="1.57693" stroke-miterlimit="10" stroke-linecap="round" stroke-linejoin="round"/>
<path d="M383.927 482.586C390.145 468.513 397.141 452.081 404.362 437.854" stroke="#B7A018" stroke-width="1.57693" stroke-miterlimit="10" stroke-linecap="round" stroke-linejoin="round"/>
<path d="M409.891 467.665C413.602 459.251 417.496 450.587 421.476 442.453" stroke="#B7A018" stroke-width="1.57693" stroke-miterlimit="10" stroke-linecap="round" stroke-linejoin="round"/>
</g>
<mask id="mask3_1_491" style="mask-type:luminance" maskUnits="userSpaceOnUse" x="0" y="0" width="1018" height="529">
<path d="M1017.4 0.675003H0.399994V528.675H1017.4V0.675003Z" fill="white"/>
</mask>
<g mask="url(#mask3_1_491)">
<path d="M857.215 543.249C898.769 458.723 985.075 415.253 1062.17 448.485C1096.08 463.099 1133.57 498.921 1140.32 544.657L857.215 543.249Z" fill="#183A29"/>
<path d="M767.75 541.56C796.432 483.219 856.002 453.215 909.216 476.153C932.618 486.24 958.494 510.965 963.157 542.533L767.75 541.56Z" fill="#183A29"/>
<path d="M819.59 485.375L847.186 541.955" stroke="#28523E" stroke-width="1.05128" stroke-miterlimit="10" stroke-linecap="round" stroke-linejoin="round"/>
<path d="M836.178 476.371L851.355 542.021" stroke="#28523E" stroke-width="1.05128" stroke-miterlimit="10" stroke-linecap="round" stroke-linejoin="round"/>
<path d="M873.013 470.344C873.013 474.27 877.742 543.497 877.742 543.497" stroke="#28523E" stroke-width="1.05128" stroke-miterlimit="10" stroke-linecap="round" stroke-linejoin="round"/>
<path d="M785.349 515.944C784.906 516.004 785.575 515.432 785.937 515.686C796.927 523.383 813.349 534.144 824.339 541.842" stroke="#28523E" stroke-width="1.05128" stroke-miterlimit="10" stroke-linecap="round" stroke-linejoin="round"/>
<path d="M909.14 475.999C925.088 499.178 941.036 522.358 956.984 545.537" stroke="#28523E" stroke-width="1.05128" stroke-miterlimit="10" stroke-linecap="round" stroke-linejoin="round"/>
<path d="M948.901 452.652C951.517 481.723 956.538 516.876 962.167 545.537" stroke="#28523E" stroke-width="1.05128" stroke-miterlimit="10" stroke-linecap="round" stroke-linejoin="round"/>
<path d="M902.65 474.841C899.291 502.989 895.93 531.135 892.571 559.282" stroke="#28523E" stroke-width="1.05128" stroke-miterlimit="10" stroke-linecap="round" stroke-linejoin="round"/>
<path d="M984.037 439.071C994.653 475.267 1005.27 511.462 1015.88 547.659" stroke="#28523E" stroke-width="1.05128" stroke-miterlimit="10" stroke-linecap="round" stroke-linejoin="round"/>
<path d="M973.964 441.691L1005.56 544.658" stroke="#28523E" stroke-width="1.05128" stroke-miterlimit="10" stroke-linecap="round" stroke-linejoin="round"/>
<path d="M928.391 462.705C928.735 466.648 929.079 470.592 929.422 474.536C930.003 481.205 930.585 487.873 931.166 494.542C931.564 499.106 931.962 503.669 932.416 508.228" stroke="#28523E" stroke-width="1.05128" stroke-miterlimit="10" stroke-linecap="round" stroke-linejoin="round"/>
<path d="M1005.24 437.956C1008.87 456.932 1020.09 500.734 1020.56 500.222" stroke="#28523E" stroke-width="1.05128" stroke-miterlimit="10" stroke-linecap="round" stroke-linejoin="round"/>
<path d="M857.152 471.242C862.595 483.014 868.329 494.657 874.35 506.158" stroke="#28523E" stroke-width="1.05128" stroke-miterlimit="10" stroke-linecap="round" stroke-linejoin="round"/>
<path d="M-88.1624 570.161C-37.73 471.411 67.0156 420.626 160.586 459.451C201.736 476.524 247.234 518.374 255.433 571.806L-88.1624 570.161Z" fill="#183A29"/>
<path d="M-30.6564 501.1L10.5191 573.497" stroke="#28523E" stroke-width="1.05128" stroke-miterlimit="10" stroke-linecap="round" stroke-linejoin="round"/>
<path d="M18.5675 464.72C19.8939 469.742 47.2999 573.497 47.2999 573.497" stroke="#28523E" stroke-width="1.05128" stroke-miterlimit="10" stroke-linecap="round" stroke-linejoin="round"/>
<path d="M57.802 451.507C59.6705 493.258 59.8944 533.407 58.4912 575.176" stroke="#28523E" stroke-width="1.05128" stroke-miterlimit="10" stroke-linecap="round" stroke-linejoin="round"/>
<path d="M38.3286 457.13C44.2629 473.194 51.2272 488.895 59.1674 504.112" stroke="#28523E" stroke-width="1.05128" stroke-miterlimit="10" stroke-linecap="round" stroke-linejoin="round"/>
<path d="M84.825 447.595L77.1002 570.952" stroke="#28523E" stroke-width="1.05128" stroke-miterlimit="10" stroke-linecap="round" stroke-linejoin="round"/>
<path d="M115.771 449.917C107.362 489.82 100.25 529.984 94.4486 570.328" stroke="#28523E" stroke-width="1.05128" stroke-miterlimit="10" stroke-linecap="round" stroke-linejoin="round"/>
<path d="M105.72 501.1L152.335 456.949" stroke="#28523E" stroke-width="1.05128" stroke-miterlimit="10" stroke-linecap="round" stroke-linejoin="round"/>
<path d="M171.391 466.413C162.583 489.534 153.774 512.654 144.966 535.775C139.649 549.734 136.259 556.786 132.492 571.217" stroke="#28523E" stroke-width="1.05128" stroke-miterlimit="10" stroke-linecap="round" stroke-linejoin="round"/>
<path d="M159.107 573.497C157.098 577.33 191.2 512.254 204.062 487.71" stroke="#28523E" stroke-width="1.05128" stroke-miterlimit="10" stroke-linecap="round" stroke-linejoin="round"/>
<path d="M161.126 575.175L219.323 501.1" stroke="#28523E" stroke-width="1.05128" stroke-miterlimit="10" stroke-linecap="round" stroke-linejoin="round"/>
<path d="M204.713 571.738L237.798 526.516" stroke="#28523E" stroke-width="1.05128" stroke-miterlimit="10" stroke-linecap="round" stroke-linejoin="round"/>
<path d="M235.021 554.221C263.702 495.88 323.273 465.875 376.486 488.813C399.888 498.9 425.764 523.625 430.428 555.193L235.021 554.221Z" fill="#183A29"/>
<path d="M328.094 482.237L332.724 553.738" stroke="#28523E" stroke-width="1.05128" stroke-miterlimit="10" stroke-linecap="round" stroke-linejoin="round"/>
<path d="M313.408 485.321C321.406 507.05 329.231 534.228 333.998 556.844" stroke="#28523E" stroke-width="1.05128" stroke-miterlimit="10" stroke-linecap="round" stroke-linejoin="round"/>
<path d="M276.977 505.424C290.27 524.642 303.561 543.86 316.854 563.077" stroke="#28523E" stroke-width="1.05128" stroke-miterlimit="10" stroke-linecap="round" stroke-linejoin="round"/>
<path d="M290.367 494.725C299.144 521.058 308.015 547.606 322.116 571.635" stroke="#28523E" stroke-width="1.05128" stroke-miterlimit="10" stroke-linecap="round" stroke-linejoin="round"/>
<path d="M263.397 515.355L302.978 558.672" stroke="#28523E" stroke-width="1.05128" stroke-miterlimit="10" stroke-linecap="round" stroke-linejoin="round"/>
<path d="M353.119 482.289C350.84 508.4 347.713 534.441 343.746 560.359" stroke="#28523E" stroke-width="1.05128" stroke-miterlimit="10" stroke-linecap="round" stroke-linejoin="round"/>
<path d="M372.713 487.282L347.739 583.041" stroke="#28523E" stroke-width="1.05128" stroke-miterlimit="10" stroke-linecap="round" stroke-linejoin="round"/>
<path d="M359.727 556.248C381.598 538.615 387.589 533.427 408.136 514.337" stroke="#28523E" stroke-width="1.05128" stroke-miterlimit="10" stroke-linecap="round" stroke-linejoin="round"/>
<path d="M372.251 556.91C392.218 543.559 397.48 540.185 417.961 527.598" stroke="#28523E" stroke-width="1.05128" stroke-miterlimit="10" stroke-linecap="round" stroke-linejoin="round"/>
</g>
</g>
<defs>
<clipPath id="clip0_1_491">
<rect width="1017" height="528" fill="white" transform="translate(0.399994 0.674988)"/>
</clipPath>
</defs>
</svg>
