<svg width="1018" height="529" viewBox="0 0 1018 529" fill="none" xmlns="http://www.w3.org/2000/svg">
<g clip-path="url(#clip0_1_491)">
<mask id="mask0_1_491" style="mask-type:luminance" maskUnits="userSpaceOnUse" x="0" y="0" width="1018" height="529">
<path d="M1017.4 0.674988H0.399994V528.675H1017.4V0.674988Z" fill="white"/>
</mask>
<g mask="url(#mask0_1_491)">
<path d="M968.799 177.085C945.606 176.512 921.863 176.014 899.848 183.161C847.18 200.258 815.14 257.175 761.527 271.197C725.678 280.573 729.636 268.919 695.719 283.625C667.359 295.921 646.657 324.285 616.426 331.643C566.438 343.809 559.747 296.278 526.211 271.197C510.204 259.225 488.302 257.84 468.83 262.959C444.455 269.368 421.417 282.791 395.715 283.905C361.42 285.392 352.317 254.396 329.732 240.458C308.746 225.603 293.35 223.342 270.879 218.211C232.757 209.507 212.506 174.358 184.866 150.627C120.289 95.1817 16.0207 127.69 0.670478 197.091C0.670478 218.211 0.670478 234.127 0.670478 259.08C0.670478 307.486 0.4 382.589 0.4 430.995L1017.4 440.499L1017.89 178.3C1001.53 177.895 985.163 177.49 968.799 177.085Z" fill="#FFF6EB"/>
</g>
</g>
<defs>
<clipPath id="clip0_1_491">
<rect width="1017" height="528" fill="white" transform="translate(0.399994 0.674988)"/>
</clipPath>
</defs>
</svg>
