<svg width="940" height="500" viewBox="0 0 940 500" fill="none" xmlns="http://www.w3.org/2000/svg">
<mask id="mask0_1_495" style="mask-type:luminance" maskUnits="userSpaceOnUse" x="0" y="0" width="940" height="500">
<path d="M940 0H0V500H940V0Z" fill="white"/>
</mask>
<g mask="url(#mask0_1_495)">
<path d="M895.079 167.055C873.642 166.512 851.696 166.04 831.348 172.808C782.668 188.999 753.054 242.897 703.5 256.176C670.365 265.055 674.023 254.019 642.674 267.945C616.462 279.589 597.327 306.449 569.385 313.416C523.182 324.937 516.997 279.927 486 256.176C471.205 244.839 450.962 243.527 432.964 248.375C410.434 254.444 389.141 267.155 365.385 268.21C333.686 269.618 325.272 240.266 304.397 227.067C285 213 270.77 210.859 250 206C214.765 197.758 196.047 164.473 170.5 142C110.812 89.495 14.438 120.28 0.25 186C0.25 206 0.25 221.072 0.25 244.701C0.25 290.54 0 361.661 0 407.5L940 416.5L940.454 168.205C925.329 167.822 910.204 167.438 895.079 167.055Z" fill="#FFF6EB"/>
</g>
</svg>
