<svg width="68" height="41" viewBox="0 0 68 41" fill="none" xmlns="http://www.w3.org/2000/svg">
<path d="M11.04 18.094C13.408 18.094 15.4773 18.574 17.248 19.534C19.04 20.494 20.416 21.8273 21.376 23.534C22.336 25.2407 22.816 27.182 22.816 29.358C22.816 31.5127 22.336 33.454 21.376 35.182C20.416 36.91 19.04 38.2753 17.248 39.278C15.4773 40.2593 13.408 40.75 11.04 40.75H1.6V18.094H11.04ZM10.4 34.414C12 34.414 13.2693 33.9767 14.208 33.102C15.1467 32.2273 15.616 30.9793 15.616 29.358C15.616 27.7367 15.1467 26.4887 14.208 25.614C13.2693 24.7393 12 24.302 10.4 24.302H8.704V34.414H10.4ZM32.4853 23.758V26.542H39.5253V31.886H32.4853V35.086H40.4853V40.75H25.3813V18.094H40.4853V23.758H32.4853ZM57.5945 40.75L53.4345 34.862L49.9785 40.75H41.8825L49.3385 29.07L41.5625 18.094H49.9785L53.9785 23.758L57.3065 18.094H65.4025L58.0745 29.55L66.0105 40.75H57.5945Z" fill="#049A10"/>
<path d="M12.6225 5.27C12.6225 6.065 12.435 6.815 12.06 7.52C11.685 8.225 11.085 8.8025 10.26 9.2525C9.435 9.6875 8.3775 9.905 7.0875 9.905H4.2525V16.25H1.6875V0.612499H7.0875C8.2875 0.612499 9.3 0.822499 10.125 1.2425C10.965 1.6475 11.5875 2.2025 11.9925 2.9075C12.4125 3.6125 12.6225 4.4 12.6225 5.27ZM7.0875 7.8125C8.0625 7.8125 8.79 7.595 9.27 7.16C9.75 6.71 9.99 6.08 9.99 5.27C9.99 3.56 9.0225 2.705 7.0875 2.705H4.2525V7.8125H7.0875ZM17.6338 14.18H22.9213V16.25H15.0688V0.612499H17.6338V14.18ZM34.4939 13.055H27.9464L26.8214 16.25H24.1439L29.7464 0.589999H32.7164L38.3189 16.25H35.6189L34.4939 13.055ZM33.7739 10.9625L31.2314 3.695L28.6664 10.9625H33.7739ZM53.6024 16.25H51.0374L43.3199 4.5725V16.25H40.7549V0.589999H43.3199L51.0374 12.245V0.589999H53.6024V16.25ZM67.0732 0.612499V2.705H62.9107V16.25H60.3457V2.705H56.1607V0.612499H67.0732Z" fill="white"/>
</svg>
