<svg width="574" height="394" viewBox="0 0 574 394" fill="none" xmlns="http://www.w3.org/2000/svg">
<path d="M144.15 91.8C144.15 97.1 142.9 102.1 140.4 106.8C137.9 111.5 133.9 115.35 128.4 118.35C122.9 121.25 115.85 122.7 107.25 122.7H88.35V165H71.25V60.75H107.25C115.25 60.75 122 62.15 127.5 64.95C133.1 67.65 137.25 71.35 139.95 76.05C142.75 80.75 144.15 86 144.15 91.8ZM107.25 109.35C113.75 109.35 118.6 107.8 121.8 104.7C125 101.6 126.6 97.3 126.6 91.8C126.6 86.2 125 81.85 121.8 78.75C118.6 75.65 113.75 74.1 107.25 74.1H88.35V109.35H107.25ZM177.559 151.95H212.809V165H160.459V60.75H177.559V151.95ZM289.959 143.7H246.309L238.809 165H220.959L258.309 60.6H278.109L315.459 165H297.459L289.959 143.7ZM285.309 130.35L268.209 81.3L250.959 130.35H285.309ZM417.349 165H400.249L348.799 87.15V165H331.699V60.6H348.799L400.249 138.3V60.6H417.349V165ZM507.155 60.75V74.1H479.405V165H462.305V74.1H434.405V60.75H507.155Z" fill="black"/>
<path d="M134.52 181.072C150.504 181.072 164.472 184.312 176.424 190.792C188.52 197.272 197.808 206.272 204.288 217.792C210.768 229.312 214.008 242.416 214.008 257.104C214.008 271.648 210.768 284.752 204.288 296.416C197.808 308.08 188.52 317.296 176.424 324.064C164.472 330.688 150.504 334 134.52 334H70.8V181.072H134.52ZM130.2 291.232C141 291.232 149.568 288.28 155.904 282.376C162.24 276.472 165.408 268.048 165.408 257.104C165.408 246.16 162.24 237.736 155.904 231.832C149.568 225.928 141 222.976 130.2 222.976H118.752V291.232H130.2ZM279.275 219.088V238.096H326.795V274.168H279.275V295.768H333.275V334H231.323V181.072H333.275V219.088H279.275ZM448.763 334L420.683 294.256L397.355 334H342.707L393.035 255.16L340.547 181.072H397.355L424.355 219.304L446.819 181.072H501.467L452.003 258.4L505.571 334H448.763Z" fill="#049A10"/>
</svg>
