<svg width="800" height="1280" viewBox="0 0 800 1280" fill="none" xmlns="http://www.w3.org/2000/svg">
<path d="M800 823.91V1223.72C734.41 1195.9 668.84 1168.09 603.26 1140.28C549.88 1117.63 502.59 1098.73 453.36 1084.07C414.02 1072.34 373.44 1063.33 327.5 1057.27C344.54 1028.68 361.82 999.78 385.22 976.11C408.62 952.45 439.12 934.15 472.34 931.98C505.55 929.82 541.02 946.55 554.78 976.84C548.35 949.76 572.28 917.37 598.14 907.07C624.01 896.78 656.6 908.06 670.54 932.16C691.6 887.18 733.1 849.99 779.06 831.14C785.9 828.33 792.89 825.92 800 823.91Z" fill="#00877A"/>
<path d="M613.28 1034.43C609.99 995.3 598.56 956.88 579.93 922.32C573.23 909.9 563.43 896.6 549.34 895.91C529.27 894.92 518.4 918.88 514.69 938.62C504.48 992.86 505.8 1049.23 518.54 1102.93C551.66 1095.34 590.15 1059.31 613.29 1034.43H613.28Z" fill="#00AD97"/>
<path d="M207.08 995.5C217.03 973.72 227.56 951.18 245.99 935.9C264.43 920.63 293.22 915.02 312.14 929.69C318.51 934.63 323.37 941.48 330.38 945.45C345.25 953.87 364.1 946.6 378.15 936.89C392.2 927.18 405.43 914.67 422.27 911.79C447.22 907.52 471.31 927.03 480.97 950.43C490.64 973.82 489.34 1000.1 487.88 1025.37C414.8 1054.89 327.59 1057.8 253.26 1031.59C235.22 1025.23 212.56 1013.82 207.06 995.5H207.08Z" fill="#00AD4C"/>
<path d="M286.65 1055.65C201.26 1100.51 99.62 1125.4 0 1129.91V820.89C23.42 837.82 41.7 861.96 50.45 889.54C52.33 888.16 52.16 889.77 54.04 888.4C74.27 873.74 92.32 864.5 116.52 870.7C140.73 876.92 160.36 898.19 164.59 922.81C199.9 920.15 241.22 928.78 263.97 955.91C286.72 983.05 295.43 1021.34 286.65 1055.65Z" fill="#00877A"/>
<path d="M117.91 1009.68C120.93 973.75 131.43 938.46 148.54 906.72C154.69 895.31 163.69 883.1 176.64 882.46C195.07 881.55 205.05 903.55 208.47 921.69C217.85 971.5 216.63 1023.28 204.94 1072.6C174.52 1065.63 139.17 1032.54 117.92 1009.69L117.91 1009.68Z" fill="#00AD97"/>
<path d="M800 990.71V1280H0V970.52C133.24 1009.06 277.28 1024.01 408.93 1025.62C549.97 1027.33 654.61 1013.6 800 990.71Z" fill="url(#paint0_linear_18_283)"/>
<defs>
<linearGradient id="paint0_linear_18_283" x1="392.53" y1="1051.51" x2="418.53" y2="1343.31" gradientUnits="userSpaceOnUse">
<stop stop-color="#77B565"/>
<stop offset="0.58" stop-color="#4EA252"/>
<stop offset="1" stop-color="#359747"/>
</linearGradient>
</defs>
</svg>
