<svg width="800" height="1280" viewBox="0 0 800 1280" fill="none" xmlns="http://www.w3.org/2000/svg">
<path d="M37.6 400.98C32.47 374.86 50.46 346.31 76.23 339.67C102.01 333.02 131.55 349.31 139.7 374.66C146.55 356.63 163.5 347.97 182.38 351.9C201.26 355.83 216.53 370.69 225 388.02C233.47 405.35 236 424.95 236.88 444.22C213.58 461.06 186.73 475.57 159.34 484.31C131.95 493.05 100.88 493.7 75.45 480.29C50.02 466.88 43.14 429.2 37.6 400.99V400.98Z" fill="url(#paint0_linear_18_283)"/>
<path d="M579 266.49V422.76C342.72 352.13 42.3998 244.55 13.0898 234C34.4098 241.28 196.95 295.5 261.86 275.72C331.37 254.56 402.31 288.49 402.31 288.49C473.27 233.04 576.78 267.22 576.78 267.22C577.51 266.95 578.25 266.71 579.01 266.49H579Z" fill="url(#paint1_linear_18_283)"/>
<path d="M800 133.39V239.51C791.78 237.69 783.74 235.88 775.99 234.09C720.49 221.28 101.65 79.91 84.6699 73.8C94.2499 77.07 167.3 101.44 196.47 92.55C227.71 83.04 259.59 98.29 259.59 98.29C291.48 73.37 338 88.73 338 88.73C376.26 75.34 420.24 96.38 420.24 96.38C458.5 88.73 489.1 121.24 540.74 96.38C592.38 71.52 634.46 117.42 634.46 117.42C676.53 88.73 720.52 123.16 720.52 123.16C755.53 107.35 783.21 120.21 800 133.39Z" fill="url(#paint2_linear_18_283)"/>
<defs>
<linearGradient id="paint0_linear_18_283" x1="129.71" y1="307.35" x2="137.69" y2="432.39" gradientUnits="userSpaceOnUse">
<stop stop-color="white"/>
<stop offset="1" stop-color="white"/>
</linearGradient>
<linearGradient id="paint1_linear_18_283" x1="59.4698" y1="122.79" x2="574.24" y2="400.12" gradientUnits="userSpaceOnUse">
<stop stop-color="white"/>
<stop offset="1" stop-color="white"/>
</linearGradient>
<linearGradient id="paint2_linear_18_283" x1="63.6799" y1="-71.29" x2="922.51" y2="322.23" gradientUnits="userSpaceOnUse">
<stop stop-color="white"/>
<stop offset="1" stop-color="white"/>
</linearGradient>
</defs>
</svg>
