<svg width="800" height="1280" viewBox="0 0 800 1280" fill="none" xmlns="http://www.w3.org/2000/svg">
<path d="M489.66 1195.41C489.05 1193.24 487.95 1191.35 486.36 1189.75C485.5 1189.08 484.63 1188.41 483.77 1187.75C481.77 1186.59 479.61 1186.01 477.3 1186C475.54 1185.93 473.89 1186.3 472.36 1187.1C470.77 1187.62 469.4 1188.5 468.24 1189.75C466.99 1190.91 466.11 1192.29 465.59 1193.87C464.79 1195.4 464.42 1197.04 464.49 1198.81L464.95 1202.22C465.56 1204.39 466.66 1206.28 468.25 1207.88C469.11 1208.55 469.98 1209.22 470.84 1209.88C472.84 1211.04 475 1211.62 477.31 1211.63C479.07 1211.7 480.72 1211.33 482.25 1210.53C483.84 1210.01 485.21 1209.13 486.37 1207.88C487.62 1206.72 488.5 1205.34 489.02 1203.76C489.82 1202.23 490.19 1200.59 490.12 1198.82C489.97 1197.68 489.81 1196.55 489.66 1195.41Z" fill="white"/>
<path d="M229.89 1238.87C223.22 1238.87 223.21 1249.23 229.89 1249.23C236.57 1249.23 236.57 1238.87 229.89 1238.87Z" fill="white"/>
<path d="M174.02 1195.9C173.47 1195.92 172.92 1195.94 172.37 1195.97C165.28 1196.26 165.27 1206.71 172.37 1206.99C172.92 1207.01 173.47 1207.03 174.02 1207.06C181.2 1207.35 181.21 1195.61 174.02 1195.9Z" fill="white"/>
<path d="M575.73 1256.02C570.6 1256.02 570.59 1263.99 575.73 1263.99C580.87 1263.99 580.87 1256.02 575.73 1256.02Z" fill="white"/>
<path d="M115.5 817.91C111.45 817.91 111.45 824.2 115.5 824.2C119.55 824.2 119.55 817.91 115.5 817.91Z" fill="white"/>
<path d="M316.8 995.92C316.8 995.92 316.75 995.87 316.73 995.85C316.69 995.82 316.65 995.78 316.61 995.75C316.28 995.47 315.86 995.26 315.35 995.19C315.31 995.19 315.27 995.19 315.22 995.19C315.16 995.19 315.09 995.19 315.03 995.19C314.95 995.19 314.88 995.19 314.8 995.19C314.76 995.19 314.72 995.19 314.68 995.19C314.19 995.26 313.79 995.45 313.47 995.71C312.85 996.15 312.42 996.84 312.51 997.65C312.58 998.2 312.64 998.75 312.71 999.3C313.06 1002.26 316.97 1002.26 317.32 999.3C317.39 998.75 317.45 998.2 317.52 997.65C317.6 996.96 317.29 996.36 316.8 995.92Z" fill="white"/>
<path d="M386.85 1070.55C382.38 1070.55 378.09 1074.48 378.3 1079.1C378.51 1083.73 382.06 1087.65 386.85 1087.65C391.32 1087.65 395.61 1083.72 395.4 1079.1C395.19 1074.46 391.64 1070.55 386.85 1070.55Z" fill="white"/>
<path d="M447.77 1003.18C446.66 1002.68 445.54 1002.18 444.43 1001.68C443.71 1001.36 443.07 1001.17 442.26 1001.28C441.55 1001.38 440.81 1001.67 440.31 1002.21C439.91 1002.64 439.62 1003.15 439.44 1003.71C439.15 1004.62 439.41 1005.51 439.78 1006.33L441.28 1009.67C441.92 1011.1 443.87 1012.09 445.38 1012.02C446.64 1011.96 447.83 1011.54 448.74 1010.63C449.6 1009.77 450.13 1008.49 450.13 1007.27C450.13 1005.74 449.26 1003.83 447.78 1003.17L447.77 1003.18Z" fill="white"/>
<path d="M245.85 749.07C242.23 749.07 242.22 754.69 245.85 754.69C249.48 754.69 249.48 749.07 245.85 749.07Z" fill="white"/>
<path d="M265.91 645.74C265.47 645.11 265.03 644.48 264.59 643.85C263.93 642.9 263.01 642.25 261.81 642.25C260.61 642.25 259.69 642.89 259.03 643.85C258.59 644.48 258.15 645.11 257.71 645.74C256.76 647.1 256.9 649.15 257.71 650.53C258.55 651.97 260.13 652.88 261.81 652.88C263.49 652.88 265.06 651.97 265.91 650.53C266.72 649.15 266.86 647.1 265.91 645.74Z" fill="white"/>
<path d="M318.3 782.91L317.34 780.51C316.96 779.55 316.15 778.7 315.02 778.75C313.87 778.8 313.12 779.48 312.7 780.51C312.38 781.31 312.06 782.11 311.74 782.91C311.32 783.97 311.81 785.47 312.61 786.22C313.27 786.83 314.09 787.22 315.01 787.22C315.88 787.22 316.8 786.84 317.41 786.22C318.19 785.44 318.72 784 318.28 782.91H318.3Z" fill="white"/>
<path d="M14.4001 725.42C11.1601 725.42 11.1501 730.46 14.4001 730.46C17.6501 730.46 17.6501 725.42 14.4001 725.42Z" fill="white"/>
<path d="M55.8998 556.61C55.5098 557.04 55.1398 557.49 54.7998 557.95C54.2098 558.58 53.8398 559.37 53.8398 560.25C53.8398 560.27 53.8398 560.3 53.8398 560.32C53.8398 560.36 53.8398 560.4 53.8398 560.45C53.8498 561.31 54.2198 562.1 54.7998 562.72C55.1498 563.19 55.5198 563.63 55.9098 564.07C59.0298 567.58 64.9098 564.71 64.9098 560.34C64.9098 555.97 59.0198 553.11 55.9098 556.61H55.8998Z" fill="white"/>
<path d="M80.7899 359.13C78.0399 357.52 74.1999 358.98 73.3899 362.14C72.4299 365.91 71.4699 369.68 70.4999 373.45C69.9199 375.7 73.0499 377.97 74.7099 375.9C77.0799 372.95 79.4399 369.99 81.8099 367.04C83.8099 364.55 83.7899 360.88 80.7899 359.13Z" fill="white"/>
<path d="M118.16 750.33C112.73 750.33 112.72 758.77 118.16 758.77C123.6 758.77 123.6 750.33 118.16 750.33Z" fill="white"/>
<path d="M93.0198 865.52C92.7298 863.63 91.3599 861.95 88.8899 861.95C86.4199 861.95 85.0499 863.64 84.7599 865.53C82.4699 868.64 83.8299 874.34 88.8899 874.34C93.9499 874.34 95.3098 868.64 93.0198 865.53V865.52Z" fill="white"/>
<path d="M87.7601 935.89C84.9801 940.72 82.56 945.35 80.81 950.65C79.9 953.39 83.6701 955.47 85.6101 953.44C89.4601 949.4 92.4101 945.05 95.3601 940.33C98.3601 935.53 90.6 930.99 87.77 935.89H87.7601Z" fill="white"/>
<path d="M70.27 1087.68C60.77 1087.68 60.75 1102.45 70.27 1102.45C79.79 1102.45 79.79 1087.68 70.27 1087.68Z" fill="white"/>
<path d="M38.3499 909.5C28.9199 909.5 28.9099 924.15 38.3499 924.15C47.7899 924.15 47.7899 909.5 38.3499 909.5Z" fill="white"/>
<path d="M166.04 1231.58C156.84 1231.58 156.83 1245.88 166.04 1245.88C175.25 1245.88 175.25 1231.58 166.04 1231.58Z" fill="white"/>
<path d="M696.17 1174.06C696 1172.77 695.47 1171.43 694.48 1170.53C693.72 1169.83 692.77 1169.22 691.77 1168.95C690.76 1168.67 689.51 1168.67 688.5 1168.95C685.89 1169.67 683.99 1172.18 683.98 1174.88C683.98 1175.77 684 1176.66 683.9 1177.54C683.8 1178.35 684.36 1179.53 684.95 1180.07C685.6 1180.67 686.56 1181.23 687.48 1181.12C688.37 1181.01 689.25 1181.04 690.14 1181.04C691.21 1181.04 692.31 1180.7 693.25 1180.2C694.42 1179.58 695.27 1178.44 695.77 1177.26C696.05 1176.78 696.19 1176.26 696.19 1175.71C696.34 1175.16 696.34 1174.62 696.19 1174.07L696.17 1174.06Z" fill="white"/>
<path d="M682.61 1238.21C680.99 1236.73 679.01 1235.79 676.77 1235.79C674.65 1235.79 672.43 1236.71 670.93 1238.21C670.12 1238.96 669.56 1239.84 669.22 1240.87C668.7 1241.85 668.47 1242.92 668.51 1244.05C668.61 1246.19 669.31 1248.4 670.93 1249.89C672.55 1251.37 674.53 1252.31 676.77 1252.31C678.89 1252.31 681.11 1251.39 682.61 1249.89C683.42 1249.14 683.98 1248.26 684.32 1247.23C684.84 1246.25 685.07 1245.18 685.03 1244.05C684.93 1241.91 684.23 1239.7 682.61 1238.21Z" fill="white"/>
<path d="M591.28 1102.7C587.45 1101.08 582.55 1103.9 582.76 1108.32C582.89 1111.04 582.96 1113.58 582.64 1116.29C582.46 1117.82 583.88 1119.36 585.26 1119.74C586.79 1120.16 588.49 1119.46 589.3 1118.1C589.85 1117.17 590.32 1116.18 591 1115.37C591.75 1114.47 592.51 1113.58 593.26 1112.68C596.01 1109.41 595.48 1104.48 591.28 1102.71V1102.7Z" fill="white"/>
<path d="M581.05 958.07C575.92 958.07 575.91 966.04 581.05 966.04C586.19 966.04 586.19 958.07 581.05 958.07Z" fill="white"/>
<path d="M176.68 307.57C173.21 307.57 173.21 312.96 176.68 312.96C180.15 312.96 180.15 307.57 176.68 307.57Z" fill="white"/>
<path d="M208.61 357.36C204.16 357.36 204.15 364.27 208.61 364.27C213.07 364.27 213.07 357.36 208.61 357.36Z" fill="white"/>
<path d="M72.9299 107.52C68.7799 107.52 68.7799 113.97 72.9299 113.97C77.0799 113.97 77.0799 107.52 72.9299 107.52Z" fill="white"/>
<path d="M59.6299 43.26C54.9499 43.26 54.9499 50.53 59.6299 50.53C64.3099 50.53 64.3099 43.26 59.6299 43.26Z" fill="white"/>
<path d="M35.6901 194.38C30.3401 194.38 30.3301 202.7 35.6901 202.7C41.0501 202.7 41.0501 194.38 35.6901 194.38Z" fill="white"/>
<path d="M136.78 126.38C132.93 126.38 132.93 132.36 136.78 132.36C140.63 132.36 140.63 126.38 136.78 126.38Z" fill="white"/>
<path d="M304.38 179.47C300.38 179.47 300.38 185.68 304.38 185.68C308.38 185.68 308.38 179.47 304.38 179.47Z" fill="white"/>
<path d="M280.44 325.55C276.14 325.55 276.13 332.23 280.44 332.23C284.75 332.23 284.75 325.55 280.44 325.55Z" fill="white"/>
<path d="M112.84 504.5C109.45 504.5 109.44 509.77 112.84 509.77C116.24 509.77 116.24 504.5 112.84 504.5Z" fill="white"/>
<path d="M67.61 612.52C62.86 612.52 62.85 619.9 67.61 619.9C72.37 619.9 72.37 612.52 67.61 612.52Z" fill="white"/>
<path d="M315.02 693.55C304.99 693.55 304.97 709.14 315.02 709.14C325.07 709.14 325.07 693.55 315.02 693.55Z" fill="white"/>
<path d="M38.3498 774.56C33.2998 774.56 33.2898 782.41 38.3498 782.41C43.4098 782.41 43.4098 774.56 38.3498 774.56Z" fill="white"/>
<path d="M33.03 1127.8C27.22 1127.8 27.21 1136.82 33.03 1136.82C38.85 1136.82 38.85 1127.8 33.03 1127.8Z" fill="white"/>
<path d="M126.14 1188.81C120.11 1188.81 120.1 1198.19 126.14 1198.19C132.18 1198.19 132.18 1188.81 126.14 1188.81Z" fill="white"/>
<path d="M445.88 838.68L444.89 836.32C444.27 835.17 443.42 834.25 442.35 833.55C441.4 832.68 440.28 832.09 438.99 831.78C438.12 831.66 437.24 831.55 436.37 831.43C435.01 831.38 433.74 831.66 432.57 832.28C431.35 832.68 430.29 833.36 429.39 834.32C428.88 834.99 428.36 835.65 427.85 836.32C427.13 837.45 426.74 838.68 426.68 839.99C426.39 841.3 426.45 842.61 426.86 843.92C427.19 844.71 427.52 845.49 427.85 846.28C428.47 847.43 429.32 848.35 430.39 849.05C431.34 849.92 432.46 850.51 433.75 850.82C434.62 850.94 435.5 851.05 436.37 851.17C436.72 851.17 437.06 851.15 437.4 851.11C437.79 851.09 438.18 851.05 438.58 850.97C439.37 850.97 440.11 850.77 440.8 850.37C441.89 850.02 442.83 849.41 443.63 848.55C444.09 847.96 444.55 847.36 445 846.77C445.3 846.07 445.59 845.37 445.89 844.67C446.17 843.77 446.26 842.87 446.17 841.96C446.32 840.86 446.24 839.77 445.89 838.67L445.88 838.68Z" fill="white"/>
</svg>
