<svg width="800" height="1280" viewBox="0 0 800 1280" fill="none" xmlns="http://www.w3.org/2000/svg">
<g clip-path="url(#clip0_18_283)">
<path d="M0 1053.51V1187.6H391.59C404.74 1165.22 416.07 1141.77 425.52 1118.1C428.94 1109.55 432.12 1100.95 435.04 1092.37C438.07 1083.53 440.82 1074.68 443.31 1065.88C443.76 1064.29 444.2 1062.7 444.63 1061.12C444.95 1059.99 445.25 1058.86 445.53 1057.75C447.84 1049.1 449.89 1040.52 451.67 1032.05C452.82 1026.59 453.85 1021.16 454.78 1015.8C458.48 994.41 460.44 973.92 460.61 955.02C460.79 936.88 459.33 920.21 456.18 905.63C455.56 902.75 454.87 899.93 454.11 897.21C451.75 888.67 448.73 881.01 445.06 874.33C444.03 872.44 442.93 870.65 441.8 868.93C439.27 865.12 436.64 861.55 433.92 858.2C428.59 851.62 422.94 845.91 417.17 840.95C396.88 823.55 374.93 815.41 358.86 811.62C358.8 811.61 358.73 811.6 358.67 811.58C351.81 809.97 346.04 809.15 341.94 808.74C337.68 808.3 335.22 808.3 335.22 808.3L316.88 821.72L166.28 931.88L0 1053.51Z" fill="url(#paint0_linear_18_283)"/>
<g style="mix-blend-mode:multiply">
<path d="M204.81 1187.6H391.59C404.74 1165.22 416.07 1141.77 425.52 1118.1C428.94 1109.55 432.12 1100.95 435.04 1092.37C438.07 1083.53 440.82 1074.68 443.31 1065.88C443.76 1064.29 444.2 1062.7 444.63 1061.12C444.95 1059.99 445.25 1058.86 445.53 1057.75C447.84 1049.08 449.89 1040.52 451.67 1032.05C452.82 1026.59 453.85 1021.16 454.78 1015.8C458.48 994.41 460.44 973.92 460.61 955.02C460.79 936.88 459.33 920.21 456.18 905.63C455.56 902.75 454.87 899.93 454.11 897.21C451.75 888.67 448.73 881.01 445.06 874.33C445.25 885.94 444.68 897.43 443.03 908.95C442.02 916.23 440.56 923.49 438.61 930.83C438.3 932.01 437.98 933.19 437.65 934.37C434.09 947.06 429.53 959.54 424.1 971.64C418.84 983.43 412.77 994.86 406.01 1005.77C358.71 1082.08 286.88 1143.3 208.33 1185.71C207.15 1186.35 205.97 1186.98 204.79 1187.6H204.81Z" fill="#86B8C4"/>
</g>
<path d="M0 881.69V1079.35C117.95 1029.51 297.34 918.74 346.22 849.74C354.26 838.4 358.77 828.2 358.91 819.57C358.96 816.9 358.87 814.29 358.68 811.75C358.69 811.69 358.68 811.64 358.67 811.58C358.02 802.72 356.05 794.64 353.1 787.24C353.04 787.06 352.97 786.9 352.9 786.72C349.29 777.8 344.29 769.92 338.55 763C333.22 756.59 327.25 751 321.15 746.17C312.59 739.39 303.76 734.11 296.08 730.15C294.71 729.45 293.4 728.8 292.13 728.18C287.32 725.86 283.13 724.12 279.96 722.9C276.01 721.37 273.64 720.66 273.64 720.66L236.92 742.27L0 881.69Z" fill="url(#paint1_linear_18_283)"/>
<path d="M-9.76585e-06 745.51V934.28C139.53 909.59 221.87 868.08 263.49 826.24C274.36 815.32 282.45 804.37 288.06 793.7C293.02 784.27 296.04 775.06 297.33 766.25C298.32 759.46 298.28 752.92 297.31 746.72C296.53 741.72 295.29 736.94 293.69 732.38C293.2 730.96 292.67 729.57 292.11 728.19C290.57 724.43 288.77 720.83 286.79 717.39C283.6 711.85 279.88 706.69 275.87 701.94C273.55 699.21 271.15 696.61 268.66 694.14C264.4 689.89 259.96 686.03 255.51 682.55C255.31 682.4 255.11 682.24 254.9 682.09C253.14 680.72 251.39 679.42 249.65 678.17C241.84 672.57 234.31 668.15 228.14 664.9H228.13C219.26 660.2 213.22 657.9 213.22 657.9L174.21 673.93L150.34 683.75L26.62 734.57L-0.0100098 745.52L-9.76585e-06 745.51Z" fill="url(#paint2_linear_18_283)"/>
<path d="M0 601.86V782.74C3.04 782.27 6.14 781.74 9.26 781.17C10.49 780.96 11.73 780.73 12.98 780.49C13.37 780.43 13.75 780.36 14.14 780.28C16.47 779.84 18.83 779.39 21.19 778.91C22.67 778.61 24.17 778.32 25.67 778C26.99 777.73 28.32 777.44 29.65 777.16C29.78 777.14 29.91 777.1 30.04 777.08C31.3 776.81 32.56 776.53 33.83 776.25C34.36 776.13 34.9 776.01 35.44 775.89C38.16 775.28 40.88 774.66 43.62 774C45.98 773.44 48.37 772.86 50.74 772.27C53.59 771.56 56.44 770.83 59.3 770.09C60.74 769.71 62.16 769.33 63.6 768.95C65.02 768.56 66.46 768.17 67.9 767.77C70.88 766.95 73.86 766.11 76.84 765.24C78.16 764.86 79.48 764.47 80.81 764.08C83.18 763.38 85.56 762.66 87.93 761.92C88.86 761.64 89.78 761.35 90.7 761.07C93.47 760.2 96.22 759.32 98.96 758.42C100.73 757.84 102.51 757.26 104.27 756.66C108.48 755.24 112.66 753.78 116.81 752.29C119.58 751.28 122.32 750.27 125.04 749.25C127.95 748.15 130.83 747.03 133.69 745.89C134.56 745.55 135.41 745.2 136.27 744.86C137.12 744.52 137.97 744.17 138.82 743.83C138.89 743.79 138.97 743.77 139.06 743.74C140.67 743.08 142.28 742.4 143.86 741.73C144.86 741.31 145.84 740.89 146.83 740.46C148.11 739.9 149.38 739.36 150.64 738.8L151.28 738.52C152.89 737.8 154.51 737.07 156.1 736.34C156.9 735.98 157.68 735.62 158.47 735.24C159.27 734.87 160.05 734.5 160.82 734.14C161.6 733.77 162.38 733.39 163.15 733.02C163.27 732.96 163.39 732.91 163.51 732.85C164.7 732.27 165.88 731.69 167.05 731.1C170.29 729.47 173.45 727.84 176.51 726.17C177.22 725.78 177.93 725.4 178.64 725.01C180.08 724.21 181.49 723.42 182.88 722.61C184.13 721.89 185.36 721.16 186.57 720.43C193.25 716.42 199.32 712.31 204.65 708.14C207.29 706.07 209.74 704 212 701.9C212.42 701.52 212.82 701.13 213.22 700.75C213.66 700.33 214.09 699.91 214.5 699.49C216.93 697.07 219.09 694.62 220.95 692.17C221.21 691.83 221.47 691.48 221.71 691.14C221.85 690.95 221.99 690.76 222.13 690.56C222.38 690.22 222.62 689.87 222.84 689.53C223.45 688.64 224 687.74 224.5 686.85C224.9 686.16 225.27 685.46 225.62 684.77C225.71 684.59 225.8 684.41 225.88 684.24C226.31 683.36 226.7 682.47 227.03 681.59C227.17 681.22 227.31 680.84 227.43 680.47C227.55 680.14 227.67 679.81 227.75 679.47C227.84 679.2 227.92 678.94 227.99 678.66C228.07 678.39 228.14 678.13 228.2 677.85C228.28 677.54 228.35 677.23 228.41 676.92C228.47 676.67 228.52 676.43 228.55 676.18C228.62 675.9 228.67 675.6 228.69 675.31C228.75 674.95 228.8 674.61 228.83 674.27C228.89 673.78 228.94 673.28 228.95 672.8C228.97 672.37 228.99 671.95 228.99 671.52C228.99 670.14 228.88 668.77 228.65 667.39C228.54 666.74 228.41 666.08 228.28 665.44C228.26 665.35 228.23 665.24 228.22 665.14C228.2 665.07 228.18 664.99 228.16 664.9C228.07 664.48 227.97 664.06 227.86 663.64C227.82 663.46 227.78 663.3 227.73 663.12C227.58 662.54 227.42 661.94 227.24 661.36C227.19 661.17 227.13 660.98 227.06 660.79C226.91 660.27 226.74 659.75 226.56 659.22C226.38 658.69 226.19 658.16 225.99 657.64C224.32 653.14 222.05 648.9 219.33 644.9C219.24 644.76 219.14 644.63 219.05 644.48C218.62 643.85 218.18 643.23 217.73 642.63C217.3 642.06 216.88 641.49 216.45 640.93C215.46 639.68 214.46 638.46 213.39 637.26C207.69 630.81 200.85 625.07 193.49 620.02C185.52 614.51 176.95 609.82 168.62 605.88C168.16 605.64 167.69 605.43 167.23 605.22C156.36 600.15 145.96 596.36 137.88 593.75C133.75 592.41 130.23 591.38 127.56 590.64C124.07 589.67 122.05 589.2 122.05 589.2L99.28 591.56L63.9 595.23H63.89L0.01 601.85L0 601.86Z" fill="url(#paint3_linear_18_283)"/>
<g style="mix-blend-mode:multiply">
<path d="M0 637.49V701.62C16.8 698.76 33.5 693.37 49.64 688.45C68.53 682.7 87.13 675.97 105 667.54C119.88 660.54 135.47 652.38 148.15 641.49C149.97 639.93 151.74 638.31 153.42 636.63C157.35 632.72 160.82 628.05 163.29 622.97C165.93 617.58 167.45 611.76 167.26 605.98C167.25 605.72 167.24 605.47 167.22 605.21C156.35 600.14 145.95 596.35 137.87 593.74C133.74 592.4 130.22 591.37 127.55 590.63C125.85 592.21 124.18 593.8 122.45 595.31C122.15 595.57 121.86 595.83 121.56 596.08C106.14 609.1 86.85 618.97 67.71 625.2C47.94 631.65 27.36 635.04 6.7 636.89C4.47 637.09 2.24 637.28 0 637.47L0 637.49Z" fill="#86B8C4"/>
</g>
<path d="M103.7 560.08C69.21 536.78 24.94 526.49 0 522.29V645.29C33.63 643.78 70 640.55 97.43 634C112.86 630.31 125.47 625.57 133.18 619.48C136.91 616.55 139.48 613.29 140.68 609.7C142.27 605 141.51 599.7 137.87 593.74C137.59 593.27 137.28 592.79 136.96 592.3C133.51 587.2 129.6 582.43 125.31 578.01C121.72 574.29 117.88 570.82 113.84 567.55C110.58 564.91 107.19 562.42 103.7 560.07V560.08Z" fill="url(#paint4_linear_18_283)"/>
<g style="mix-blend-mode:multiply">
<path d="M49.17 599.2C33.05 603.22 16.59 605.6 0 606.36V624.22C26.17 622.04 52.08 615.9 76.01 605.7C84.26 602.19 92.51 597.6 99.27 591.57C105.49 586.03 110.47 579.27 113.01 570.98C113.33 569.95 113.6 568.8 113.84 567.56C110.58 564.92 107.19 562.43 103.7 560.08C102.96 567.74 99.17 574.48 93.59 579.75C85.51 587.4 74.77 591.92 63.9 595.23H63.89C58.94 596.74 53.95 598 49.18 599.2H49.17Z" fill="#86B8C4"/>
</g>
<g style="mix-blend-mode:multiply">
<path d="M0.0799609 750.49C0.249961 761.22 0.0799609 772 0.0799609 782.73C3.11996 782.26 6.21996 781.73 9.33996 781.16C10.57 780.95 11.81 780.72 13.06 780.48C13.45 780.42 13.83 780.35 14.22 780.27C16.55 779.83 18.91 779.38 21.27 778.9C22.75 778.6 24.25 778.31 25.75 777.99C27.07 777.72 28.4 777.43 29.73 777.15C29.86 777.13 29.99 777.09 30.12 777.07C31.38 776.8 32.64 776.52 33.91 776.24C34.44 776.12 34.98 776 35.52 775.88C54.08 771.86 72.63 766.8 90.77 761.05C92.04 760.66 93.31 760.25 94.57 759.85C96.07 759.38 97.55 758.89 99.03 758.4C99.99 758.08 100.95 757.77 101.91 757.45C130.46 748.08 158.32 739.06 183.61 722.18C184.65 721.49 185.7 720.77 186.74 720.04C191.74 716.55 198.02 712.36 204.19 707.56C215.35 698.89 226.2 688.28 228.59 676.23V676.21C228.59 676.21 228.59 676.17 228.6 676.15C228.65 675.9 228.7 675.66 228.73 675.41C228.73 675.41 228.74 675.32 228.74 675.28C228.8 674.92 228.85 674.58 228.88 674.24C228.92 673.99 228.94 673.75 228.95 673.5C228.97 673.25 229 673.01 229 672.76C229.01 672.63 229 672.51 229.01 672.38C229.03 672 229.03 671.61 229.03 671.22C229.03 669.32 228.82 667.37 228.32 665.4C228.3 665.31 228.27 665.2 228.26 665.1C228.24 665.03 228.22 664.95 228.2 664.86C228.11 664.44 228.01 664.02 227.9 663.6C227.86 663.42 227.82 663.26 227.77 663.08C227.62 662.5 227.46 661.9 227.28 661.32C227.23 661.13 227.17 660.94 227.1 660.75C226.95 660.23 226.78 659.71 226.6 659.18C226.42 658.65 226.23 658.12 226.03 657.6C224.36 653.1 222.09 648.86 219.37 644.86C220.49 650.46 220.18 655.56 218.76 660.2C215.64 670.5 207.11 678.58 196.76 684.98C193.98 686.7 191.07 688.3 188.09 689.79C177.1 695.31 165.24 699.35 156.04 702.46C155.4 702.69 154.77 702.89 154.15 703.1C146.24 705.78 138.27 708.42 130.25 711.01C103.82 719.55 76.93 727.5 50.2 734.3C39.31 737.08 28.44 739.67 17.65 742.03C11.77 743.31 5.91996 744.55 0.0399609 745.72C0.0199609 745.72 -0.0200391 745.73 -0.0400391 745.73C-3.90634e-05 747.31 0.0299609 748.89 0.0399609 750.47L0.0799609 750.49Z" fill="#86B8C4"/>
</g>
<g style="mix-blend-mode:multiply">
<path d="M0 890.7V934.28C139.53 909.59 221.87 868.08 263.49 826.24C274.36 815.32 282.45 804.37 288.06 793.7C293.02 784.27 296.04 775.06 297.33 766.25C298.32 759.46 298.28 752.92 297.31 746.72C296.53 741.72 295.29 736.95 293.69 732.39C293.2 730.95 292.67 729.56 292.11 728.19C290.57 724.43 288.77 720.83 286.79 717.39C283.6 711.85 279.88 706.69 275.87 701.94C275.87 707.98 275.31 714 274.27 719.71C274.2 720.08 274.14 720.43 274.06 720.79C273.44 724.01 272.66 727.15 271.73 730.24C268.54 740.9 263.63 750.87 257.58 760.37C257.2 760.98 256.81 761.57 256.4 762.16C250.99 770.32 244.55 777.66 237.43 784.34H237.42C225.41 795.64 211.46 805 197.27 813.13C171.92 827.64 144.9 839.59 117.91 850.63C88.97 862.45 59.42 872.91 29.55 882.11C19.74 885.13 9.89 887.99 0 890.69L0 890.7Z" fill="#86B8C4"/>
</g>
<g style="mix-blend-mode:multiply">
<path d="M-1.95317e-05 1013.67V1079.36C117.95 1029.52 297.34 918.75 346.22 849.75C354.26 838.41 358.77 828.21 358.91 819.58C358.96 816.91 358.87 814.31 358.68 811.77C358.69 811.7 358.68 811.65 358.67 811.59C358.02 802.73 356.05 794.65 353.1 787.25C353.01 787.45 352.9 787.67 352.8 787.89C351.16 791.48 349.39 795.05 347.62 798.57C345.87 802.05 343.98 805.44 341.93 808.74C337.24 816.37 331.8 823.54 325.8 830.29C293.06 867.09 243.26 891.6 201.88 913.26C190.01 919.47 178.15 925.69 166.26 931.87C122.73 954.57 79.03 976.95 34.59 997.81C23.11 1003.2 11.57 1008.49 -0.0200195 1013.66L-1.95317e-05 1013.67Z" fill="#86B8C4"/>
</g>
<path d="M800 1096.93V1228.51H415.74C402.83 1206.55 391.72 1183.54 382.45 1160.31C379.09 1151.92 375.97 1143.48 373.11 1135.07C370.14 1126.39 367.44 1117.71 364.99 1109.08C364.55 1107.52 364.12 1105.96 363.7 1104.41C363.39 1103.3 363.09 1102.2 362.81 1101.1C360.54 1092.61 358.53 1084.2 356.79 1075.88C355.66 1070.52 354.65 1065.2 353.74 1059.93C350.11 1038.94 348.18 1018.83 348.02 1000.28C347.85 982.48 349.28 966.12 352.37 951.82C352.98 948.99 353.65 946.23 354.4 943.56C356.72 935.18 359.68 927.66 363.28 921.11C364.29 919.26 365.37 917.5 366.48 915.81C368.96 912.07 371.55 908.56 374.22 905.28C379.45 898.83 385 893.22 390.66 888.35C410.57 871.27 432.11 863.29 447.88 859.56C447.94 859.55 448.01 859.54 448.07 859.53C454.8 857.95 460.47 857.14 464.48 856.75C468.66 856.32 471.07 856.32 471.07 856.32L489.07 869.48L636.86 977.58L800.02 1096.93H800Z" fill="url(#paint5_linear_18_283)"/>
<g style="mix-blend-mode:multiply">
<path d="M595.55 1226.66C518.48 1185.05 447.99 1124.97 401.57 1050.09C394.93 1039.38 388.98 1028.17 383.82 1016.6C378.5 1004.73 374.02 992.49 370.53 980.03C370.2 978.88 369.89 977.71 369.59 976.56C367.68 969.36 366.25 962.23 365.26 955.1C363.64 943.79 363.08 932.51 363.27 921.12C359.67 927.67 356.71 935.19 354.39 943.57C353.64 946.24 352.97 949 352.36 951.83C349.27 966.14 347.84 982.49 348.01 1000.29C348.17 1018.84 350.1 1038.94 353.73 1059.92C354.64 1065.2 355.65 1070.52 356.78 1075.88C358.53 1084.2 360.53 1092.6 362.8 1101.09C363.08 1102.2 363.37 1103.3 363.69 1104.41C364.11 1105.96 364.54 1107.52 364.98 1109.08C367.43 1117.71 370.13 1126.39 373.1 1135.07C375.97 1143.48 379.09 1151.93 382.44 1160.31C391.71 1183.54 402.83 1206.55 415.73 1228.51H599.01C597.86 1227.9 596.69 1227.29 595.54 1226.66H595.55Z" fill="#86B8C4"/>
</g>
<path d="M800 928.33V1122.3C684.26 1073.4 508.23 964.69 460.26 896.99C452.37 885.86 447.95 875.86 447.81 867.39C447.76 864.77 447.84 862.21 448.03 859.71C448.02 859.65 448.03 859.61 448.04 859.55C448.68 850.86 450.61 842.93 453.5 835.67C453.56 835.5 453.63 835.33 453.7 835.16C457.24 826.41 462.15 818.68 467.78 811.88C473.01 805.59 478.87 800.1 484.86 795.36C493.26 788.71 501.93 783.52 509.46 779.64C510.8 778.95 512.09 778.31 513.34 777.71C518.06 775.44 522.17 773.73 525.28 772.53C529.16 771.03 531.48 770.33 531.48 770.33L567.51 791.53L799.99 928.34L800 928.33Z" fill="url(#paint6_linear_18_283)"/>
<path d="M800 794.7V979.94C663.08 955.71 582.28 914.98 541.44 873.92C530.77 863.2 522.84 852.46 517.33 841.99C512.46 832.74 509.5 823.7 508.23 815.06C507.26 808.4 507.3 801.98 508.25 795.9C509.02 791 510.23 786.3 511.8 781.83C512.28 780.43 512.8 779.07 513.35 777.72C514.86 774.03 516.62 770.5 518.57 767.12C521.7 761.68 525.35 756.62 529.29 751.96C531.56 749.28 533.93 746.73 536.36 744.31C540.54 740.14 544.9 736.35 549.27 732.94C549.47 732.79 549.67 732.64 549.86 732.49C551.58 731.15 553.31 729.87 555.01 728.65C562.68 723.15 570.06 718.82 576.12 715.63H576.13C584.83 711.02 590.76 708.76 590.76 708.76L629.04 724.49L652.47 734.12L773.87 783.99L800 794.73V794.7Z" fill="url(#paint7_linear_18_283)"/>
<path d="M800 653.74V831.23C797.02 830.76 793.98 830.25 790.91 829.69C789.7 829.48 788.49 829.26 787.26 829.03C786.88 828.97 786.5 828.9 786.12 828.82C783.84 828.39 781.52 827.95 779.2 827.48C777.74 827.19 776.28 826.9 774.81 826.58C773.52 826.31 772.21 826.03 770.91 825.75C770.78 825.73 770.65 825.69 770.53 825.67C769.3 825.4 768.06 825.13 766.81 824.85C766.29 824.73 765.76 824.62 765.23 824.5C762.56 823.91 759.89 823.29 757.2 822.65C754.88 822.1 752.54 821.53 750.21 820.95C747.41 820.25 744.62 819.54 741.81 818.81C740.4 818.44 739 818.06 737.59 817.69C736.19 817.31 734.78 816.92 733.37 816.54C730.45 815.74 727.52 814.91 724.6 814.06C723.31 813.69 722.01 813.3 720.71 812.92C718.38 812.23 716.05 811.52 713.72 810.8C712.81 810.52 711.9 810.24 711.01 809.96C708.3 809.11 705.59 808.25 702.9 807.36C701.16 806.79 699.42 806.22 697.69 805.64C693.55 804.24 689.45 802.81 685.39 801.35C682.68 800.36 679.98 799.37 677.32 798.37C674.47 797.29 671.64 796.19 668.83 795.07C667.98 794.73 667.14 794.39 666.3 794.06C665.46 793.72 664.63 793.38 663.8 793.05C663.73 793.02 663.65 792.99 663.57 792.96C661.99 792.31 660.41 791.64 658.86 790.99C657.88 790.58 656.91 790.16 655.95 789.74C654.69 789.19 653.45 788.66 652.21 788.11L651.58 787.83C650 787.12 648.41 786.41 646.85 785.69C646.07 785.34 645.3 784.98 644.52 784.61C643.74 784.25 642.97 783.89 642.21 783.53C641.44 783.17 640.68 782.8 639.93 782.44C639.81 782.38 639.7 782.34 639.58 782.28C638.42 781.71 637.25 781.14 636.11 780.57C632.93 778.97 629.83 777.37 626.83 775.74C626.13 775.36 625.43 774.98 624.74 774.6C623.33 773.82 621.94 773.04 620.58 772.25C619.36 771.54 618.15 770.83 616.96 770.11C610.4 766.17 604.45 762.14 599.22 758.05C596.63 756.02 594.22 753.98 592.01 751.92C591.6 751.55 591.21 751.16 590.81 750.79C590.38 750.38 589.96 749.96 589.55 749.56C587.16 747.18 585.04 744.78 583.22 742.37C582.96 742.03 582.71 741.69 582.47 741.36C582.33 741.17 582.19 740.99 582.06 740.79C581.82 740.45 581.58 740.11 581.36 739.78C580.77 738.91 580.22 738.02 579.73 737.15C579.33 736.47 578.97 735.79 578.64 735.11C578.55 734.94 578.47 734.76 578.38 734.59C577.96 733.73 577.58 732.85 577.25 731.99C577.11 731.63 576.97 731.26 576.85 730.9C576.73 730.57 576.62 730.25 576.54 729.92C576.45 729.65 576.38 729.4 576.31 729.13C576.23 728.86 576.16 728.61 576.1 728.34C576.02 728.04 575.95 727.73 575.89 727.43C575.83 727.19 575.79 726.95 575.75 726.71C575.68 726.43 575.63 726.14 575.61 725.86C575.55 725.51 575.51 725.17 575.47 724.83C575.41 724.35 575.37 723.86 575.35 723.39C575.33 722.97 575.32 722.55 575.32 722.13C575.32 720.78 575.42 719.43 575.66 718.08C575.76 717.44 575.89 716.8 576.02 716.17C576.04 716.08 576.07 715.97 576.08 715.88C576.1 715.81 576.11 715.73 576.14 715.65C576.23 715.24 576.33 714.82 576.43 714.42C576.46 714.25 576.51 714.08 576.56 713.91C576.71 713.34 576.86 712.76 577.04 712.19C577.09 712 577.14 711.82 577.21 711.63C577.36 711.12 577.52 710.6 577.7 710.09C577.87 709.57 578.06 709.05 578.26 708.54C579.9 704.12 582.13 699.97 584.8 696.04C584.89 695.9 584.99 695.77 585.08 695.63C585.5 695.01 585.93 694.41 586.37 693.81C586.79 693.25 587.21 692.69 587.63 692.14C588.6 690.92 589.59 689.72 590.64 688.54C596.23 682.21 602.94 676.58 610.16 671.62C617.98 666.21 626.39 661.61 634.57 657.75C635.02 657.52 635.48 657.31 635.93 657.1C646.6 652.13 656.81 648.41 664.73 645.85C668.78 644.53 672.23 643.52 674.85 642.8C678.27 641.84 680.26 641.39 680.26 641.39L702.6 643.71L737.32 647.31H737.33L800.02 653.81L800 653.74Z" fill="url(#paint8_linear_18_283)"/>
<g style="mix-blend-mode:multiply">
<path d="M793.43 688.13C773.16 686.31 752.96 682.98 733.56 676.66C714.78 670.54 695.85 660.86 680.72 648.08C680.43 647.84 680.14 647.58 679.85 647.32C678.15 645.84 676.51 644.28 674.84 642.73C672.22 643.45 668.77 644.47 664.72 645.78C656.8 648.34 646.59 652.06 635.92 657.03C635.91 657.29 635.9 657.53 635.89 657.79C635.7 663.46 637.19 669.17 639.78 674.46C642.2 679.45 645.6 684.04 649.46 687.87C651.11 689.51 652.85 691.11 654.63 692.63C667.07 703.31 682.38 711.32 696.98 718.19C714.51 726.46 732.77 733.07 751.3 738.7C767.13 743.52 783.52 748.81 800.01 751.62V688.69C797.82 688.5 795.63 688.32 793.44 688.12L793.43 688.13Z" fill="#86B8C4"/>
</g>
<path d="M698.24 612.74C732.08 589.87 775.52 579.78 800 575.66V696.36C767 694.88 731.31 691.71 704.39 685.28C689.25 681.66 676.87 677.01 669.31 671.03C665.65 668.15 663.12 664.96 661.95 661.43C660.39 656.82 661.13 651.62 664.71 645.77C664.99 645.3 665.29 644.84 665.61 644.36C669 639.35 672.83 634.68 677.04 630.33C680.56 626.68 684.33 623.27 688.29 620.07C691.49 617.48 694.81 615.04 698.24 612.73V612.74Z" fill="url(#paint9_linear_18_283)"/>
<g style="mix-blend-mode:multiply">
<path d="M751.75 651.13C767.57 655.08 783.72 657.41 800 658.15V675.67C774.32 673.53 748.89 667.5 725.41 657.5C717.31 654.05 709.22 649.55 702.59 643.64C696.49 638.2 691.6 631.57 689.11 623.44C688.8 622.43 688.53 621.3 688.29 620.09C691.49 617.5 694.81 615.06 698.24 612.75C698.96 620.26 702.69 626.88 708.17 632.05C716.1 639.55 726.63 643.99 737.31 647.24H737.32C742.18 648.72 747.07 649.95 751.75 651.13Z" fill="#86B8C4"/>
</g>
<g style="mix-blend-mode:multiply">
<path d="M800 794.94C800 794.94 799.94 794.93 799.92 794.93C794.15 793.78 788.41 792.57 782.64 791.31C772.05 788.99 761.38 786.45 750.7 783.73C724.47 777.05 698.08 769.25 672.15 760.87C664.29 758.33 656.46 755.74 648.7 753.11C648.09 752.9 647.48 752.7 646.85 752.48C637.82 749.43 626.18 745.47 615.4 740.05C612.48 738.59 609.62 737.02 606.9 735.33C596.74 729.05 588.38 721.13 585.31 711.02C583.92 706.46 583.62 701.47 584.72 695.97C582.05 699.9 579.83 704.05 578.18 708.47C577.98 708.98 577.8 709.5 577.62 710.02C577.45 710.53 577.28 711.05 577.13 711.56C577.06 711.75 577 711.93 576.96 712.12C576.79 712.69 576.63 713.27 576.48 713.84C576.43 714.01 576.39 714.18 576.35 714.35C576.25 714.76 576.15 715.18 576.06 715.58C576.04 715.66 576.03 715.74 576 715.81C575.99 715.9 575.97 716.01 575.94 716.1C575.45 718.03 575.24 719.94 575.24 721.81C575.24 722.19 575.24 722.58 575.26 722.95C575.27 723.08 575.26 723.19 575.27 723.32C575.27 723.56 575.29 723.8 575.32 724.04C575.33 724.28 575.35 724.52 575.39 724.76C575.42 725.1 575.47 725.44 575.53 725.79C575.53 725.83 575.53 725.87 575.54 725.91C575.57 726.17 575.62 726.4 575.67 726.64C575.68 726.66 575.68 726.69 575.68 726.7V726.72C578.02 738.54 588.67 748.96 599.62 757.46C605.68 762.17 611.84 766.28 616.74 769.7C617.77 770.41 618.79 771.12 619.82 771.8C644.63 788.37 671.97 797.22 699.99 806.41C700.93 806.72 701.88 807.03 702.82 807.34C704.28 807.82 705.73 808.3 707.2 808.76C708.43 809.16 709.68 809.55 710.93 809.94C728.73 815.58 746.94 820.54 765.15 824.49C765.69 824.61 766.21 824.72 766.73 824.84C767.98 825.12 769.21 825.39 770.45 825.66C770.58 825.68 770.71 825.72 770.83 825.74C772.13 826.02 773.44 826.3 774.73 826.57C776.2 826.88 777.67 827.18 779.12 827.47C781.44 827.94 783.76 828.38 786.04 828.81C786.42 828.89 786.8 828.96 787.18 829.02C788.4 829.25 789.61 829.47 790.83 829.68C793.89 830.24 796.93 830.75 799.92 831.22C799.92 820.69 799.76 810.11 799.92 799.58C799.93 798.03 799.97 796.48 800 794.93V794.94Z" fill="#86B8C4"/>
</g>
<g style="mix-blend-mode:multiply">
<path d="M771 928.75C741.69 919.72 712.69 909.46 684.29 897.86C657.8 887.03 631.28 875.29 606.41 861.06C592.49 853.08 578.8 843.9 567.01 832.81H567C560.01 826.26 553.7 819.05 548.38 811.05C547.98 810.47 547.6 809.89 547.23 809.29C541.29 799.97 536.48 790.18 533.34 779.72C532.43 776.69 531.66 773.6 531.06 770.45C530.98 770.1 530.92 769.75 530.85 769.39C529.82 763.79 529.28 757.88 529.28 751.95C525.34 756.61 521.7 761.67 518.56 767.11C516.61 770.49 514.86 774.02 513.34 777.71C512.79 779.06 512.27 780.42 511.79 781.82C510.22 786.3 509.01 790.99 508.24 795.89C507.28 801.97 507.25 808.39 508.22 815.05C509.49 823.69 512.45 832.73 517.32 841.98C522.83 852.45 530.76 863.19 541.43 873.91C582.27 914.97 663.07 955.7 799.99 979.93V937.16C790.29 934.5 780.62 931.7 770.99 928.74L771 928.75Z" fill="#86B8C4"/>
</g>
<g style="mix-blend-mode:multiply">
<path d="M766.04 1042.29C722.44 1021.82 679.55 999.86 636.83 977.59C625.17 971.52 613.53 965.42 601.88 959.32C561.28 938.06 512.41 914.01 480.28 877.9C474.39 871.28 469.05 864.25 464.45 856.76C462.45 853.52 460.58 850.19 458.87 846.78C457.13 843.32 455.4 839.81 453.79 836.3C453.7 836.08 453.59 835.87 453.5 835.67C450.61 842.93 448.68 850.86 448.04 859.55C448.03 859.61 448.02 859.65 448.03 859.71C447.84 862.21 447.76 864.77 447.81 867.39C447.95 875.86 452.38 885.87 460.26 896.99C508.22 964.7 684.26 1073.4 800 1122.3V1057.84C788.63 1052.77 777.31 1047.58 766.04 1042.29Z" fill="#86B8C4"/>
</g>
</g>
<defs>
<linearGradient id="paint0_linear_18_283" x1="501.59" y1="817.16" x2="236.48" y2="1080.19" gradientUnits="userSpaceOnUse">
<stop stop-color="#D1F2B9"/>
<stop offset="0.3" stop-color="#A5E596"/>
<stop offset="0.78" stop-color="#64D364"/>
<stop offset="1" stop-color="#4BCC51"/>
</linearGradient>
<linearGradient id="paint1_linear_18_283" x1="149.88" y1="768.86" x2="178.3" y2="938.22" gradientUnits="userSpaceOnUse">
<stop stop-color="#D1F2B9"/>
<stop offset="0.3" stop-color="#A5E596"/>
<stop offset="0.78" stop-color="#64D364"/>
<stop offset="1" stop-color="#4BCC51"/>
</linearGradient>
<linearGradient id="paint2_linear_18_283" x1="268.17" y1="653.67" x2="37.22" y2="877.51" gradientUnits="userSpaceOnUse">
<stop stop-color="#D1F2B9"/>
<stop offset="0.3" stop-color="#A5E596"/>
<stop offset="0.78" stop-color="#64D364"/>
<stop offset="1" stop-color="#4BCC51"/>
</linearGradient>
<linearGradient id="paint3_linear_18_283" x1="127.67" y1="556.51" x2="98.06" y2="738.9" gradientUnits="userSpaceOnUse">
<stop stop-color="#D1F2B9"/>
<stop offset="0.3" stop-color="#A5E596"/>
<stop offset="0.78" stop-color="#64D364"/>
<stop offset="1" stop-color="#4BCC51"/>
</linearGradient>
<linearGradient id="paint4_linear_18_283" x1="78.92" y1="531.01" x2="29.17" y2="734.72" gradientUnits="userSpaceOnUse">
<stop stop-color="#D1F2B9"/>
<stop offset="0.3" stop-color="#A5E596"/>
<stop offset="0.78" stop-color="#64D364"/>
<stop offset="1" stop-color="#4BCC51"/>
</linearGradient>
<linearGradient id="paint5_linear_18_283" x1="307.8" y1="865.01" x2="567.95" y2="1123.12" gradientUnits="userSpaceOnUse">
<stop stop-color="#D1F2B9"/>
<stop offset="0.3" stop-color="#A5E596"/>
<stop offset="0.78" stop-color="#64D364"/>
<stop offset="1" stop-color="#4BCC51"/>
</linearGradient>
<linearGradient id="paint6_linear_18_283" x1="652.93" y1="817.61" x2="625.03" y2="983.8" gradientUnits="userSpaceOnUse">
<stop stop-color="#D1F2B9"/>
<stop offset="0.3" stop-color="#A5E596"/>
<stop offset="0.78" stop-color="#64D364"/>
<stop offset="1" stop-color="#4BCC51"/>
</linearGradient>
<linearGradient id="paint7_linear_18_283" x1="536.85" y1="704.58" x2="763.47" y2="924.23" gradientUnits="userSpaceOnUse">
<stop stop-color="#D1F2B9"/>
<stop offset="0.3" stop-color="#A5E596"/>
<stop offset="0.78" stop-color="#64D364"/>
<stop offset="1" stop-color="#4BCC51"/>
</linearGradient>
<linearGradient id="paint8_linear_18_283" x1="674.72" y1="609.23" x2="703.78" y2="788.21" gradientUnits="userSpaceOnUse">
<stop stop-color="#D1F2B9"/>
<stop offset="0.3" stop-color="#A5E596"/>
<stop offset="0.78" stop-color="#64D364"/>
<stop offset="1" stop-color="#4BCC51"/>
</linearGradient>
<linearGradient id="paint9_linear_18_283" x1="722.56" y1="584.21" x2="771.37" y2="784.11" gradientUnits="userSpaceOnUse">
<stop stop-color="#D1F2B9"/>
<stop offset="0.3" stop-color="#A5E596"/>
<stop offset="0.78" stop-color="#64D364"/>
<stop offset="1" stop-color="#4BCC51"/>
</linearGradient>
<clipPath id="clip0_18_283">
<rect width="800" height="1280" fill="white"/>
</clipPath>
</defs>
</svg>
