<svg width="800" height="1280" viewBox="0 0 800 1280" fill="none" xmlns="http://www.w3.org/2000/svg">
<path d="M468.25 739.41C361.9 780.28 245.3 826.33 133.3 837.31C89.22 841.64 43.13 843.04 0 833.64V386.45C48.3 414.89 88.24 461.48 108.44 518.43C163.56 493.01 226.41 533.35 240.37 598.35C285.34 572.01 362.84 561.44 405.1 592.93C447.35 624.43 472.48 682.71 468.25 739.42V739.41Z" fill="url(#paint0_linear_18_283)"/>
<path d="M800 390.84V1013C636.48 981.39 476.19 904.25 353.15 796.02C367 739 382.04 679.59 420.22 635.46C458.39 591.34 527.33 568.63 575.51 601.13C576.67 585.71 588.59 562.42 603.21 543.63C612.02 532.27 621.84 522.56 630.86 517.22C632.81 516.07 634.72 515.12 636.57 514.4C643.41 511.75 650.64 510.31 657.93 510C670.62 509.45 683.49 512.34 694.74 518.31C696.17 519.06 697.57 519.87 698.93 520.73C700.34 521.59 701.71 522.52 703.04 523.5C705.56 525.33 707.96 527.35 710.21 529.54C712.89 517.45 716.77 505.25 721.71 493.23C722.04 492.42 722.38 491.6 722.72 490.79C739.24 451.72 766.77 414.84 800 390.84Z" fill="url(#paint1_linear_18_283)"/>
<path d="M240.53 666.85C250.85 643.4 244.66 613.71 225.82 596.35C206.99 578.99 176.89 575.22 154.36 587.4C144.17 564.68 116.57 554.35 92.14 559.15C67.7 563.95 48.11 586.97 47.27 611.86C100.44 661.05 168.63 675.6 240.53 666.85Z" fill="url(#paint2_linear_18_283)"/>
<path d="M137.35 755.76C142.46 720.87 155.52 686.52 178.74 659.98C201.96 633.44 235.99 615.44 271.25 615.74C306.51 616.04 341.94 636.45 356.13 668.73C364.08 631.68 399.51 596.16 435.87 585.51C472.24 574.85 514.05 585.62 540.74 612.52C544.32 587.11 565.51 564.58 590.67 559.49C615.82 554.4 643.21 565.42 658.84 585.78C674.47 606.14 678.19 634.68 669.49 658.83C647.13 720.94 562.64 735.26 498.35 750.21C377.37 778.35 248.57 811.04 137.34 755.77L137.35 755.76Z" fill="url(#paint3_linear_18_283)"/>
<path d="M222.12 559.98C228.78 539.82 235.79 519.43 247.92 502.01C260.05 484.59 278.16 470.24 299.19 467.37C320.22 464.5 343.7 475.61 350.82 495.6C358.29 481.13 377.29 474.03 393.47 475.87C409.65 477.71 424.14 487.19 435.46 498.9C456.43 520.59 468.24 550.88 467.47 581.04C408.09 598.81 345 607.65 283.42 600.53C255.84 597.34 234.72 584.71 222.11 559.97L222.12 559.98Z" fill="url(#paint4_linear_18_283)"/>
<path d="M748.29 547.3C753.98 523.64 758.91 499.07 754.58 475.13C750.25 451.19 734.64 427.8 711.26 421.09C687.88 414.38 657.94 430.02 656.96 454.33C636.4 434.56 604.67 428.89 577.12 436.29C549.57 443.69 526.15 462.77 509.37 485.84C492.6 508.91 481.92 535.86 473.57 563.13C565.51 580.72 663.34 586.62 748.28 547.3H748.29Z" fill="url(#paint5_linear_18_283)"/>
<path d="M653.43 669.65C650.77 674.63 647.51 680.02 643.67 685.78C634.88 699.03 623.17 714.21 609.34 730.68C605.75 734.96 602.02 739.33 598.15 743.77C594.51 747.97 590.75 752.24 586.89 756.56C581.82 762.22 576.57 768.01 571.18 773.87C569.16 776.05 567.12 778.25 565.07 780.46C561.16 784.67 557.15 788.93 553.1 793.22C542.81 804.07 532.13 815.13 521.2 826.24C516.43 831.08 511.63 835.94 506.78 840.78C500.69 846.91 494.53 853.04 488.35 859.15C481.75 865.67 475.13 872.17 468.52 878.62C462.73 884.27 456.94 889.89 451.18 895.45C444.57 901.83 438 908.13 431.49 914.34C409.76 935.07 388.74 954.76 369.62 972.47C363.8 977.86 358.15 983.07 352.72 988.06C309.72 1027.61 279.87 1053.98 279.87 1053.98L89.76 883.28C89.76 883.28 78.04 839.71 139.09 789.52C139.87 788.87 140.67 788.22 141.49 787.58C144.95 784.81 148.44 782.12 151.94 779.52C162.26 771.83 172.69 764.82 183.05 758.42C186.49 756.28 189.92 754.21 193.33 752.21C203.66 746.14 213.86 740.62 223.72 735.57C225.95 734.44 228.15 733.33 230.33 732.23C255.93 719.42 278.85 709.65 295.46 701.04C298.97 699.23 302.2 697.46 305.1 695.72C309.53 693.1 313.23 690.55 316.08 688.02C318.52 685.86 321.15 683.39 323.99 680.72C325.91 678.91 327.9 676.99 329.99 675C338.2 667.17 347.65 658.12 357.98 649.31C360.51 647.15 363.1 644.98 365.73 642.87C371.76 638.01 378.03 633.33 384.47 629.08C386.3 627.87 388.15 626.69 390.01 625.55C398.6 620.31 407.47 615.93 416.43 612.99C419.17 612.1 421.9 611.33 424.65 610.72C425.1 610.62 425.56 610.51 426.01 610.42C461.72 603.07 590.46 585.47 640.99 615.18C645.07 617.58 648.64 620.29 651.61 623.33C657.13 628.99 660.58 635.84 661.37 644.05C661.98 650.35 659.13 659.06 653.45 669.68L653.43 669.65Z" fill="url(#paint6_linear_18_283)"/>
<g style="mix-blend-mode:multiply">
<path d="M778.76 802.37C774.37 802.55 769.94 802.68 765.54 802.75C756.98 802.89 748.42 802.81 739.85 802.49C716.75 801.69 693.69 799.2 671.05 794.82C664.1 793.47 657.06 791.89 650.05 789.97C652.6 788.63 654.35 785.69 653.72 782.19C653.4 780.39 652.97 778.69 652.44 777.06C649.83 768.72 644.9 762.31 638.67 755.49C636.05 752.63 633.3 749.88 630.45 747.26C625.73 742.92 620.74 738.89 615.57 735.07C613.52 733.57 611.45 732.1 609.35 730.69C594.71 720.79 578.8 712.98 562.22 706.82C561.79 703.4 561.6 699.95 561.64 696.5C560.47 697.81 559.37 699.14 558.3 700.51C557.83 701.12 557.37 701.74 556.9 702.36C556.41 703.02 555.93 703.7 555.46 704.38C510.02 688.89 461.7 685.78 414.95 675.94C402.32 673.28 389.02 669.72 378.81 661.45C373.97 657.54 369.87 652.61 367.21 646.96C366.57 645.61 366.1 644.24 365.73 642.85C363.1 644.96 360.51 647.13 357.98 649.29C358.81 651.39 359.79 653.41 360.83 655.27C365.91 664.45 373.79 671.73 382.85 676.92C404.06 689.05 430.28 692.58 453.94 697.13C485.51 703.2 517.64 708.27 547.87 718.75C547.65 719.32 547.44 719.89 547.25 720.47C547.06 721.04 546.87 721.61 546.71 722.18C546.63 722.39 546.57 722.59 546.52 722.8C546.33 723.44 546.16 724.08 545.99 724.72C545.94 724.91 545.89 725.1 545.85 725.29C545.73 725.74 545.63 726.21 545.53 726.66H545.52C545.51 726.75 545.49 726.84 545.47 726.92C545.46 727.02 545.43 727.14 545.41 727.24C545.27 727.94 545.12 728.65 545.01 729.37C544.76 730.78 544.65 732.18 544.63 733.6C544.63 734.03 544.63 734.46 544.66 734.87C544.67 735.01 544.66 735.14 544.67 735.28C544.67 735.55 544.7 735.81 544.72 736.08C544.73 736.35 544.76 736.61 544.8 736.88C544.84 737.26 544.89 737.63 544.96 738.02C544.96 738.06 544.96 738.11 544.97 738.15C545.01 738.44 545.06 738.69 545.11 738.97C545.12 739 545.12 739.02 545.12 739.03V739.06C545.16 739.31 545.21 739.53 545.26 739.77C545.32 740.11 545.4 740.44 545.49 740.78C545.55 741.08 545.63 741.36 545.72 741.66C545.8 741.96 545.88 742.24 545.98 742.54C546.07 742.9 546.2 743.27 546.33 743.63C546.46 744.03 546.62 744.45 546.77 744.85C547.13 745.81 547.56 746.78 548.03 747.74C548.12 747.93 548.21 748.13 548.32 748.32C548.7 749.07 549.1 749.84 549.54 750.59C550.08 751.56 550.69 752.55 551.35 753.52C551.6 753.9 551.86 754.27 552.13 754.65C552.27 754.87 552.43 755.08 552.58 755.29C552.84 755.67 553.12 756.04 553.41 756.42C555.43 759.1 557.79 761.77 560.45 764.42C560.9 764.87 561.37 765.34 561.85 765.79C562.29 766.2 562.73 766.63 563.19 767.05C565.65 769.34 568.34 771.61 571.21 773.87C577.03 778.42 583.65 782.91 590.95 787.29C592.03 787.95 593.13 788.59 594.23 789.23C594.48 789.37 594.74 789.53 594.98 789.67C596.5 790.55 598.04 791.42 599.61 792.29C600.37 792.72 601.15 793.13 601.93 793.56C605.27 795.37 608.72 797.16 612.26 798.94C613.53 799.58 614.83 800.21 616.12 800.85C616.25 800.91 616.38 800.97 616.51 801.03C617.35 801.43 618.2 801.85 619.05 802.25C619.89 802.65 620.75 803.05 621.62 803.46C622.49 803.87 623.34 804.28 624.21 804.67C625.95 805.47 627.71 806.26 629.47 807.06L630.17 807.37C631.54 807.98 632.93 808.58 634.33 809.18C635.41 809.65 636.48 810.11 637.57 810.57C639.29 811.3 641.04 812.03 642.81 812.76C642.9 812.8 642.99 812.82 643.07 812.86C644 813.24 644.92 813.61 645.86 813.99C646.79 814.37 647.73 814.74 648.67 815.12C651.79 816.36 654.94 817.58 658.12 818.79C661.09 819.9 664.08 821.01 667.1 822.11C671.62 823.73 676.19 825.32 680.79 826.88C681.67 827.18 682.55 827.48 683.43 827.76C684.48 828.11 685.53 828.45 686.58 828.8C688.2 829.33 689.82 829.86 691.45 830.38C692.82 830.82 694.21 831.26 695.6 831.69C696.6 832 697.61 832.31 698.62 832.62C701.21 833.42 703.81 834.21 706.4 834.98C707.85 835.41 709.29 835.84 710.73 836.25C713.98 837.2 717.24 838.12 720.49 839.01C722.06 839.44 723.63 839.87 725.18 840.29C726.75 840.7 728.3 841.12 729.87 841.53C732.99 842.35 736.11 843.14 739.22 843.92C741.81 844.57 744.42 845.2 747 845.81C749.99 846.52 752.96 847.21 755.93 847.87C756.53 848 757.11 848.13 757.69 848.26C759.08 848.57 760.45 848.87 761.83 849.17C761.97 849.2 762.12 849.23 762.26 849.26C763.71 849.57 765.16 849.88 766.6 850.18C768.23 850.53 769.87 850.85 771.49 851.18C774.07 851.7 776.65 852.19 779.19 852.67C779.62 852.76 780.03 852.84 780.46 852.9C781.82 853.16 783.17 853.41 784.52 853.64C787.93 854.26 791.31 854.83 794.63 855.35V801.49C789.24 801.8 783.92 802.15 778.78 802.37H778.76ZM586.89 756.57C584.71 754.41 582.64 752.11 580.67 749.71C580.38 749.36 580.1 749 579.81 748.63C574.46 741.86 570.17 734.29 567.11 726.31C575.38 730 583.47 734.24 591.3 739.18C593.63 740.64 595.93 742.17 598.16 743.77C605.56 749.01 612.43 754.92 618.72 761.52C620.64 763.53 622.49 765.59 624.28 767.72C626.19 769.99 628 772.32 629.71 774.76C633.08 779.54 636.48 783.3 640.57 787.15C620.62 780.73 601.56 771.26 586.89 756.57Z" fill="#86B8C4"/>
</g>
<g style="mix-blend-mode:multiply">
<path d="M370.49 980.31C370.41 989.27 359.24 994.26 352.7 988.06C352.61 987.98 352.51 987.88 352.41 987.79C347.16 982.44 344.33 975.8 340.89 969.24C337.91 963.56 334.67 958.03 331.19 952.63C324.29 941.96 316.66 931.82 308.06 922.46C292.53 905.53 274.34 890.88 254.44 879.41C234.53 867.92 213.15 860.38 191.91 851.89C171.99 843.92 151.62 833.26 143.13 812.2C140.2 804.91 139.05 797.24 139.06 789.51C139.84 788.86 140.64 788.21 141.46 787.57C144.92 784.8 148.41 782.11 151.91 779.51C151.59 781.34 151.33 783.18 151.15 785.03C149.88 798.64 152.93 812.32 162.65 822.36C177.62 837.8 203.13 839.52 222.96 843.75C245.63 848.57 266.81 858.19 286.27 870.74C305.73 883.28 323.18 899.26 337.73 917.24C345.12 926.37 351.81 935.89 357.59 946.12C362.13 954.16 367.52 963.14 369.61 972.46C370.19 975.05 370.52 977.67 370.49 980.3V980.31Z" fill="#86B8C4"/>
</g>
<g style="mix-blend-mode:multiply">
<path d="M451.18 895.45C444.57 901.83 438 908.13 431.49 914.34C426.46 908.34 420.96 902.73 415.18 897.45C375.24 860.91 325.59 842.77 275.62 824.23C268.75 821.68 261.13 817.07 253.91 815.88C250.95 815.39 248.3 815.58 245.29 814.42C242.2 813.2 239.21 811.68 236.18 810.34C224.62 805.17 212.98 799.85 202.77 792.23C193.93 785.62 186.4 776.27 183.93 765.28C183.42 763.04 183.13 760.73 183.04 758.41C186.48 756.27 189.91 754.2 193.32 752.2C193.01 754.59 192.76 757.04 193.16 759.63C194.11 765.74 196.49 771.69 200.12 776.68C209.04 788.96 223.74 794.34 237.86 797.97C245.17 799.85 251.59 801.53 258.33 804.8C264.25 807.68 271.92 808.38 278.32 810.05C291.63 813.51 305 816.84 318.17 820.81C344.07 828.6 369.87 837.75 393.73 850.61C414.87 861.99 434.46 876.36 450.33 894.46C450.62 894.78 450.9 895.12 451.19 895.46L451.18 895.45Z" fill="#86B8C4"/>
</g>
<g style="mix-blend-mode:multiply">
<path d="M507.09 908.55C507 914.53 499.22 918.23 494.92 913.58C484.98 902.86 477 890.57 468.53 878.62C462.2 869.66 455.58 860.9 447.65 853.12C431.65 837.45 413.12 824 392.54 815.03C368.34 804.49 341.83 801.65 316.12 796.93C291.62 792.43 267.04 784.69 247.51 768.7C239.02 761.75 233.19 752.65 227.73 743.25C226.47 741.09 224.98 738.41 223.71 735.54C225.94 734.41 228.14 733.3 230.32 732.2C232.72 738.1 235.98 743.7 240.83 747.87C250.35 756.08 261.05 763.34 272.69 768.18C297.41 778.47 325.44 778.46 351.66 781.66C376.68 784.72 400.43 791.07 422.88 802.73C443.6 813.49 461.87 827.52 477.2 845.2C481.02 849.62 484.82 854.27 488.36 859.15C499.02 873.79 507.35 890.39 507.09 908.55Z" fill="#86B8C4"/>
</g>
<g style="mix-blend-mode:multiply">
<path d="M523.24 865.59C516.54 858.14 512.03 849.26 506.79 840.78C505.66 838.94 504.51 837.12 503.28 835.34C496.91 826.11 489.81 817.19 482.25 808.92C452.94 776.93 414.52 756.91 371.52 750.92C348.98 747.77 322.31 746.71 306.3 728.01C300.43 721.15 296.05 710.96 295.44 701.01C298.95 699.2 302.18 697.43 305.08 695.69C304.04 701.76 305.05 708.03 308.85 713.8C315.28 723.57 327.24 729.93 338.16 733.26C360.29 740.01 383.97 739.08 406.32 745.29C425.26 750.55 443.52 758.71 460.14 769.22C477.28 780.06 493.21 792.15 506.89 807.22C512.19 813.07 516.91 819.56 521.2 826.24C522.37 828.05 523.51 829.87 524.61 831.7C530.17 840.87 534.76 849.63 535.8 860.4C536.41 866.75 527.3 870.1 523.24 865.6V865.59Z" fill="#86B8C4"/>
</g>
<g style="mix-blend-mode:multiply">
<path d="M592.88 828.71C587.16 826.16 582.63 820.82 578.32 816.38C574 811.93 569.56 807.63 564.98 803.46C561.1 799.93 557.15 796.52 553.11 793.22C547.89 788.94 542.52 784.86 537.01 780.97C500.91 755.52 460.93 736.3 417.58 727.11C394.6 722.24 369.89 720.24 349.42 707.67C338.67 701.07 329.38 691.85 323.97 680.71C325.89 678.9 327.88 676.98 329.97 674.99C338.82 691.97 358.39 701.38 376.99 705.84C399.31 711.19 422.36 712.37 444.67 718.04C465.4 723.3 485.49 730.82 504.68 740.27C524.32 749.95 542.42 761.76 559.33 775.65C561.26 777.23 563.18 778.84 565.07 780.47C571.25 785.8 577.2 791.37 582.93 797.18C589.77 804.12 599.08 812.31 601.55 822.04C602.91 827.39 597.45 830.74 592.88 828.72V828.71Z" fill="#86B8C4"/>
</g>
<g style="mix-blend-mode:multiply">
<path d="M683.7 706.77C675.22 700.77 666.12 694.38 656.57 690.2C652.42 688.39 648.08 686.95 643.67 685.78C637.97 684.25 632.12 683.17 626.35 682.29C603.04 678.72 579.2 677.56 555.74 675.37C529.33 672.89 502.88 670.98 476.48 668.43C453.63 666.21 428.71 666.03 407.89 655.17C399.35 650.71 391.97 643.46 387.21 635.12C386.06 633.11 385.15 631.1 384.45 629.05C386.28 627.84 388.13 626.66 389.99 625.52C393.7 631.64 399.13 636.9 404.9 640.43C415.71 647.04 428.13 649.48 440.57 650.67C464.81 652.99 489.25 653.92 513.55 655.66C539.11 657.5 564.68 659.2 590.25 660.83C610.15 662.1 630.41 663.14 649.71 668.56C650.94 668.91 652.19 669.27 653.42 669.65C670 674.8 685.59 683.34 691.87 700.48C693.5 704.93 687.55 709.5 683.69 706.77H683.7Z" fill="#86B8C4"/>
</g>
<g style="mix-blend-mode:multiply">
<path d="M651.59 623.31C647.74 629.31 642.4 634.26 636.14 637.97C617.63 648.91 593.49 650.86 572.49 652.05C549.75 653.33 526.87 651.84 504.46 647.82C481.61 643.72 459.31 636.36 437.95 627.31C431.92 624.76 422.37 619.54 416.42 612.96C419.16 612.07 421.89 611.3 424.64 610.69C426.91 613.1 429.62 615.24 432.86 617.2C443.08 623.36 454.81 627.1 466.21 630.36C489.87 637.11 514.42 640.82 539.03 641.38C563.06 641.91 587.58 639.64 610.92 633.76C621.39 631.12 632.87 626.97 639.36 617.76C639.94 616.93 640.49 616.06 640.98 615.15C645.06 617.55 648.63 620.26 651.6 623.3L651.59 623.31Z" fill="#86B8C4"/>
</g>
<g style="mix-blend-mode:multiply">
<path d="M602.69 618.07C594.59 613.95 583.51 618.85 575.04 620.35C564.16 622.28 553.28 623.45 542.24 623.73C532.3 623.98 522.71 623.21 512.92 621.48C503.64 619.83 494.94 616.55 486.01 613.67C485 613.34 484.41 614.64 485.03 615.35C498.06 630.16 520.08 634.55 538.94 635.43C549.98 635.94 561.19 634.48 572.08 632.77C577.79 631.87 583.47 630.8 589.13 629.65C594.52 628.56 599.76 628.17 603.41 623.68C604.76 622.02 604.92 619.21 602.69 618.08V618.07Z" fill="#86B8C4"/>
</g>
<path d="M560.22 900.11C557.61 904.99 554.41 910.27 550.66 915.9C542.05 928.88 530.59 943.74 517.04 959.88C513.52 964.07 509.87 968.35 506.09 972.7C502.52 976.81 498.84 980.99 495.05 985.23C490.09 990.78 484.95 996.44 479.67 1002.18C477.69 1004.31 475.69 1006.47 473.69 1008.63C469.85 1012.75 465.93 1016.92 461.97 1021.12C451.89 1031.74 441.43 1042.57 430.73 1053.45C426.06 1058.19 421.36 1062.95 416.61 1067.7C410.65 1073.7 404.62 1079.7 398.56 1085.68C392.1 1092.07 385.61 1098.43 379.14 1104.75C373.46 1110.29 367.8 1115.78 362.15 1121.23C355.68 1127.47 349.24 1133.64 342.87 1139.73C330.22 1151.79 317.82 1163.5 305.91 1174.65H80.9799L8.20993 1109.31C8.20993 1109.31 -3.27007 1066.64 56.5099 1017.49C57.2699 1016.85 58.0599 1016.22 58.8599 1015.58C62.2499 1012.87 65.6599 1010.24 69.0899 1007.69C79.1999 1000.16 89.4199 993.29 99.5599 987.02C102.92 984.92 106.29 982.89 109.63 980.94C119.74 975 129.74 969.59 139.38 964.64C141.57 963.53 143.73 962.44 145.86 961.36C170.93 948.82 193.37 939.25 209.64 930.82C213.08 929.04 216.24 927.32 219.08 925.61C223.42 923.05 227.04 920.55 229.83 918.07C232.22 915.95 234.8 913.54 237.58 910.93C239.46 909.15 241.41 907.27 243.46 905.33C251.49 897.66 260.75 888.8 270.86 880.17C273.34 878.05 275.88 875.93 278.46 873.86C284.36 869.1 290.5 864.51 296.81 860.35C298.6 859.17 300.42 858.01 302.23 856.9C310.65 851.77 319.33 847.48 328.1 844.6C330.78 843.72 333.46 842.97 336.15 842.37C336.6 842.27 337.04 842.17 337.49 842.08C372.46 834.89 498.53 817.65 548.02 846.74C552.02 849.09 555.51 851.74 558.41 854.73C563.82 860.27 567.2 866.98 567.97 875.01C568.57 881.18 565.78 889.71 560.22 900.11Z" fill="url(#paint7_linear_18_283)"/>
<g style="mix-blend-mode:multiply">
<path d="M682.95 1030.08C678.65 1030.26 674.32 1030.39 670 1030.45C661.62 1030.59 653.23 1030.51 644.84 1030.19C622.22 1029.41 599.63 1026.97 577.47 1022.68C570.66 1021.36 563.77 1019.81 556.9 1017.93C559.4 1016.62 561.12 1013.74 560.5 1010.31C560.18 1008.55 559.76 1006.89 559.24 1005.29C556.69 997.12 551.85 990.84 545.76 984.16C543.19 981.36 540.5 978.67 537.71 976.1C533.09 971.85 528.2 967.9 523.13 964.17C521.13 962.7 519.1 961.26 517.04 959.88C502.71 950.18 487.12 942.54 470.88 936.51C470.46 933.16 470.27 929.78 470.31 926.4C469.17 927.68 468.09 928.99 467.04 930.32C466.58 930.92 466.12 931.53 465.67 932.14C465.18 932.79 464.71 933.45 464.26 934.12C419.76 918.95 372.43 915.9 326.66 906.27C314.29 903.67 301.27 900.17 291.26 892.08C286.53 888.24 282.5 883.42 279.9 877.88C279.28 876.56 278.81 875.22 278.46 873.86C275.88 875.93 273.34 878.05 270.86 880.17C271.68 882.22 272.64 884.2 273.66 886.02C278.63 895.01 286.35 902.14 295.22 907.22C315.99 919.1 341.68 922.56 364.84 927.01C395.76 932.95 427.23 937.92 456.83 948.19C456.61 948.74 456.41 949.3 456.22 949.87C456.03 950.43 455.85 950.99 455.69 951.55C455.61 951.75 455.55 951.96 455.5 952.16C455.31 952.78 455.14 953.42 454.98 954.04C454.93 954.23 454.87 954.41 454.84 954.6C454.72 955.04 454.62 955.5 454.52 955.94V955.96C454.49 956.03 454.48 956.12 454.46 956.2C454.44 956.3 454.42 956.41 454.39 956.51C454.25 957.2 454.11 957.9 454 958.6C453.76 959.98 453.64 961.35 453.63 962.73C453.63 963.15 453.63 963.57 453.66 963.98C453.66 964.12 453.66 964.25 453.66 964.38C453.66 964.65 453.68 964.91 453.71 965.17C453.71 965.44 453.75 965.69 453.79 965.96C453.82 966.33 453.87 966.7 453.94 967.08C453.94 967.11 453.94 967.16 453.94 967.2V967.22C453.98 967.48 454.03 967.74 454.08 968C454.08 968.03 454.08 968.05 454.08 968.07V968.09C454.12 968.33 454.17 968.55 454.22 968.79C454.29 969.12 454.36 969.45 454.45 969.78C454.51 970.07 454.59 970.35 454.68 970.64C454.76 970.94 454.83 971.21 454.93 971.51C455.02 971.86 455.15 972.22 455.28 972.57C455.4 972.97 455.56 973.37 455.71 973.77C456.06 974.71 456.48 975.66 456.94 976.6C457.03 976.79 457.12 976.98 457.22 977.17C457.59 977.9 457.98 978.65 458.41 979.39C458.95 980.34 459.54 981.31 460.19 982.26C460.43 982.63 460.68 983 460.95 983.36C461.09 983.58 461.24 983.78 461.4 983.99C461.65 984.35 461.93 984.72 462.21 985.09C464.19 987.72 466.5 990.33 469.1 992.92C469.55 993.37 470 993.82 470.47 994.27C470.9 994.67 471.34 995.09 471.78 995.5C474.19 997.75 476.82 999.97 479.64 1002.18C485.34 1006.63 491.82 1011.03 498.97 1015.32C500.03 1015.96 501.1 1016.59 502.18 1017.22C502.43 1017.36 502.68 1017.51 502.92 1017.65C504.41 1018.52 505.92 1019.37 507.45 1020.22C508.2 1020.64 508.96 1021.04 509.72 1021.46C513 1023.24 516.38 1024.99 519.84 1026.73C521.09 1027.35 522.36 1027.97 523.63 1028.6C523.75 1028.66 523.88 1028.71 524.01 1028.77C524.83 1029.17 525.66 1029.57 526.49 1029.97C527.32 1030.36 528.16 1030.75 529.01 1031.15C529.86 1031.55 530.7 1031.95 531.55 1032.33C533.25 1033.11 534.97 1033.89 536.7 1034.66L537.39 1034.97C538.73 1035.56 540.09 1036.15 541.46 1036.75C542.52 1037.2 543.57 1037.66 544.64 1038.1C546.32 1038.81 548.04 1039.54 549.76 1040.25C549.85 1040.29 549.94 1040.31 550.02 1040.35C550.93 1040.72 551.83 1041.09 552.75 1041.45C553.66 1041.82 554.58 1042.19 555.5 1042.56C558.56 1043.78 561.65 1044.97 564.76 1046.15C567.66 1047.24 570.6 1048.32 573.55 1049.4C577.98 1050.99 582.45 1052.55 586.96 1054.07C587.82 1054.37 588.69 1054.66 589.55 1054.94C590.58 1055.28 591.61 1055.61 592.63 1055.95C594.22 1056.47 595.81 1056.99 597.41 1057.5C598.75 1057.93 600.11 1058.36 601.47 1058.78C602.45 1059.09 603.44 1059.39 604.43 1059.7C606.97 1060.48 609.51 1061.26 612.04 1062.01C613.47 1062.43 614.88 1062.85 616.28 1063.25C619.47 1064.18 622.66 1065.08 625.84 1065.96C627.38 1066.37 628.92 1066.79 630.44 1067.21C631.98 1067.62 633.5 1068.03 635.04 1068.43C638.09 1069.23 641.14 1070.01 644.19 1070.77C646.73 1071.4 649.28 1072.02 651.8 1072.62C654.74 1073.32 657.64 1073.99 660.55 1074.64C661.14 1074.77 661.71 1074.89 662.28 1075.02C663.64 1075.32 664.98 1075.62 666.33 1075.91C666.47 1075.93 666.61 1075.97 666.75 1076C668.17 1076.3 669.59 1076.61 671 1076.9C672.6 1077.24 674.2 1077.56 675.79 1077.88C678.31 1078.38 680.84 1078.87 683.33 1079.34C683.74 1079.43 684.15 1079.5 684.57 1079.56C685.9 1079.82 687.22 1080.06 688.54 1080.29C691.88 1080.9 695.2 1081.46 698.45 1081.96V1029.22C693.16 1029.52 687.96 1029.86 682.92 1030.08H682.95ZM495.05 985.23C492.92 983.11 490.89 980.86 488.96 978.51C488.68 978.17 488.4 977.82 488.12 977.46C482.88 970.83 478.68 963.42 475.68 955.6C483.78 959.22 491.7 963.37 499.37 968.21C501.66 969.64 503.9 971.14 506.09 972.7C513.33 977.83 520.06 983.62 526.22 990.08C528.1 992.05 529.91 994.07 531.67 996.15C533.53 998.37 535.31 1000.65 536.98 1003.04C540.29 1007.72 543.61 1011.41 547.62 1015.18C528.09 1008.89 509.42 999.61 495.05 985.23Z" fill="#86B8C4"/>
</g>
<g style="mix-blend-mode:multiply">
<path d="M272.66 1174.65H242.96C236.66 1165.14 229.73 1156.09 222.01 1147.69C206.81 1131.11 188.99 1116.76 169.51 1105.53C150.01 1094.28 129.08 1086.89 108.27 1078.57C88.7598 1070.77 68.8098 1060.33 60.4998 1039.7C57.6298 1032.57 56.4998 1025.05 56.5098 1017.49C57.2698 1016.85 58.0598 1016.22 58.8598 1015.58C62.2498 1012.87 65.6598 1010.24 69.0898 1007.69C68.7798 1009.48 68.5198 1011.28 68.3398 1013.09C67.0998 1026.42 70.0798 1039.82 79.5998 1049.66C94.2698 1064.78 119.25 1066.46 138.66 1070.6C160.86 1075.32 181.61 1084.74 200.66 1097.03C219.72 1109.31 236.8 1124.96 251.06 1142.57C258.3 1151.51 264.85 1160.84 270.51 1170.85C271.21 1172.09 271.93 1173.36 272.66 1174.65Z" fill="#86B8C4"/>
</g>
<g style="mix-blend-mode:multiply">
<path d="M362.15 1121.23C355.68 1127.48 349.24 1133.65 342.87 1139.73C337.94 1133.85 332.56 1128.36 326.9 1123.19C287.79 1087.4 239.17 1069.64 190.23 1051.49C183.5 1048.99 176.04 1044.48 168.97 1043.31C166.08 1042.83 163.47 1043.02 160.53 1041.88C157.51 1040.69 154.58 1039.2 151.61 1037.88C140.29 1032.81 128.89 1027.61 118.9 1020.15C110.24 1013.68 102.87 1004.52 100.45 993.76C99.9598 991.56 99.6598 989.3 99.5698 987.03C102.93 984.94 106.3 982.9 109.64 980.95C109.34 983.29 109.09 985.69 109.49 988.22C110.42 994.2 112.75 1000.03 116.31 1004.91C125.04 1016.93 139.44 1022.2 153.26 1025.75C160.42 1027.59 166.7 1029.24 173.31 1032.44C179.11 1035.26 186.61 1035.94 192.89 1037.58C205.93 1040.97 219.02 1044.23 231.91 1048.12C257.27 1055.75 282.54 1064.71 305.91 1077.31C326.62 1088.46 345.8 1102.52 361.34 1120.26C361.62 1120.58 361.9 1120.91 362.18 1121.24L362.15 1121.23Z" fill="#86B8C4"/>
</g>
<g style="mix-blend-mode:multiply">
<path d="M416.91 1134.07C416.82 1139.92 409.2 1143.55 404.99 1139C395.25 1128.5 387.45 1116.47 379.14 1104.76C372.94 1095.99 366.46 1087.41 358.69 1079.79C343.02 1064.44 324.87 1051.28 304.72 1042.49C281.02 1032.17 255.06 1029.39 229.88 1024.77C205.89 1020.36 181.82 1012.79 162.69 997.12C154.37 990.32 148.66 981.4 143.32 972.2C142.09 970.08 140.63 967.46 139.38 964.65C141.56 963.55 143.72 962.45 145.85 961.37C148.2 967.15 151.4 972.63 156.15 976.72C165.47 984.76 175.95 991.86 187.35 996.61C211.56 1006.69 239.01 1006.68 264.69 1009.81C289.19 1012.81 312.45 1019.03 334.44 1030.44C354.73 1040.98 372.63 1054.71 387.63 1072.03C391.38 1076.36 395.09 1080.92 398.56 1085.69C409 1100.02 417.16 1116.28 416.9 1134.07H416.91Z" fill="#86B8C4"/>
</g>
<g style="mix-blend-mode:multiply">
<path d="M432.72 1092C426.16 1084.7 421.74 1076 416.61 1067.7C415.51 1065.9 414.38 1064.12 413.17 1062.37C406.94 1053.33 399.98 1044.6 392.58 1036.5C363.88 1005.17 326.25 985.57 284.14 979.7C262.06 976.62 235.95 975.57 220.27 957.27C214.52 950.55 210.23 940.58 209.63 930.83C213.07 929.05 216.23 927.33 219.07 925.63C218.05 931.57 219.04 937.72 222.76 943.36C229.06 952.93 240.77 959.15 251.46 962.41C273.13 969.02 296.32 968.11 318.21 974.19C336.76 979.34 354.64 987.33 370.92 997.62C387.7 1008.23 403.3 1020.08 416.7 1034.83C421.89 1040.56 426.51 1046.92 430.72 1053.45C431.86 1055.23 432.98 1057 434.06 1058.79C439.51 1067.77 444 1076.35 445.02 1086.9C445.62 1093.12 436.69 1096.4 432.72 1091.99V1092Z" fill="#86B8C4"/>
</g>
<g style="mix-blend-mode:multiply">
<path d="M500.92 1055.88C495.32 1053.38 490.88 1048.15 486.66 1043.81C482.43 1039.46 478.08 1035.24 473.6 1031.15C469.8 1027.7 465.93 1024.36 461.97 1021.12C456.85 1016.93 451.6 1012.93 446.2 1009.12C410.84 984.2 371.69 965.37 329.24 956.37C306.73 951.6 282.54 949.64 262.49 937.33C251.97 930.87 242.86 921.84 237.57 910.92C239.45 909.14 241.4 907.26 243.45 905.32C252.12 921.95 271.28 931.17 289.49 935.53C311.35 940.77 333.92 941.93 355.77 947.48C376.07 952.63 395.75 960 414.53 969.25C433.76 978.73 451.48 990.3 468.05 1003.89C469.94 1005.44 471.82 1007.01 473.67 1008.61C479.73 1013.83 485.55 1019.29 491.16 1024.97C497.86 1031.76 506.98 1039.78 509.39 1049.32C510.72 1054.56 505.38 1057.84 500.9 1055.86L500.92 1055.88Z" fill="#86B8C4"/>
</g>
<g style="mix-blend-mode:multiply">
<path d="M589.86 936.46C581.56 930.58 572.65 924.32 563.29 920.24C559.23 918.46 554.97 917.05 550.66 915.91C545.07 914.41 539.35 913.36 533.7 912.5C510.87 909.01 487.53 907.87 464.55 905.72C438.69 903.3 412.78 901.42 386.93 898.93C364.55 896.76 340.15 896.58 319.76 885.94C311.39 881.57 304.17 874.48 299.51 866.3C298.38 864.33 297.49 862.36 296.81 860.36C298.6 859.18 300.42 858.02 302.23 856.91C305.86 862.9 311.18 868.06 316.83 871.51C327.42 877.98 339.58 880.37 351.77 881.54C375.51 883.81 399.44 884.73 423.24 886.43C448.27 888.23 473.31 889.9 498.36 891.5C517.85 892.74 537.69 893.76 556.59 899.07C557.8 899.41 559.01 899.77 560.22 900.14C576.46 905.18 591.73 913.55 597.87 930.33C599.47 934.68 593.64 939.17 589.86 936.49V936.46Z" fill="#86B8C4"/>
</g>
<g style="mix-blend-mode:multiply">
<path d="M558.42 854.73C554.65 860.61 549.42 865.46 543.29 869.09C525.16 879.8 501.52 881.71 480.96 882.88C458.69 884.14 436.29 882.68 414.34 878.74C391.96 874.73 370.12 867.52 349.2 858.66C343.3 856.16 333.94 851.06 328.11 844.61C330.79 843.73 333.47 842.99 336.16 842.39C338.38 844.75 341.03 846.85 344.21 848.76C354.21 854.79 365.7 858.46 376.87 861.65C400.04 868.26 424.08 871.89 448.18 872.44C471.72 872.96 495.72 870.74 518.59 864.98C528.85 862.39 540.08 858.33 546.44 849.31C547.01 848.5 547.54 847.65 548.03 846.76C552.03 849.11 555.52 851.76 558.43 854.75L558.42 854.73Z" fill="#86B8C4"/>
</g>
<g style="mix-blend-mode:multiply">
<path d="M510.53 849.6C502.59 845.57 491.74 850.36 483.45 851.84C472.8 853.73 462.15 854.87 451.33 855.15C441.6 855.4 432.2 854.65 422.62 852.95C413.53 851.34 405.01 848.12 396.26 845.3C395.27 844.98 394.7 846.25 395.3 846.94C408.06 861.44 429.62 865.74 448.09 866.6C458.9 867.1 469.88 865.67 480.54 864C486.13 863.12 491.69 862.07 497.24 860.95C502.52 859.88 507.65 859.5 511.23 855.1C512.55 853.47 512.71 850.73 510.52 849.62L510.53 849.6Z" fill="#86B8C4"/>
</g>
<defs>
<linearGradient id="paint0_linear_18_283" x1="263.63" y1="379.21" x2="219.73" y2="652.56" gradientUnits="userSpaceOnUse">
<stop stop-color="white"/>
<stop offset="1" stop-color="white"/>
</linearGradient>
<linearGradient id="paint1_linear_18_283" x1="576.57" y1="465.73" x2="576.57" y2="724.23" gradientUnits="userSpaceOnUse">
<stop stop-color="white"/>
<stop offset="1" stop-color="white"/>
</linearGradient>
<linearGradient id="paint2_linear_18_283" x1="159.21" y1="535.38" x2="148.57" y2="612.53" gradientUnits="userSpaceOnUse">
<stop stop-color="white"/>
<stop offset="1" stop-color="white"/>
</linearGradient>
<linearGradient id="paint3_linear_18_283" x1="371.59" y1="589.64" x2="427.46" y2="749.26" gradientUnits="userSpaceOnUse">
<stop stop-color="white"/>
<stop offset="1" stop-color="white"/>
</linearGradient>
<linearGradient id="paint4_linear_18_283" x1="350.31" y1="446.42" x2="344.99" y2="566.14" gradientUnits="userSpaceOnUse">
<stop stop-color="white"/>
<stop offset="1" stop-color="white"/>
</linearGradient>
<linearGradient id="paint5_linear_18_283" x1="596.71" y1="446.22" x2="625.97" y2="568.6" gradientUnits="userSpaceOnUse">
<stop stop-color="white"/>
<stop offset="1" stop-color="white"/>
</linearGradient>
<linearGradient id="paint6_linear_18_283" x1="189.1" y1="677.03" x2="590" y2="909.81" gradientUnits="userSpaceOnUse">
<stop stop-color="#D1F2B9"/>
<stop offset="0.3" stop-color="#A5E596"/>
<stop offset="0.78" stop-color="#64D364"/>
<stop offset="1" stop-color="#4BCC51"/>
</linearGradient>
<linearGradient id="paint7_linear_18_283" x1="113.31" y1="893.88" x2="505.92" y2="1121.84" gradientUnits="userSpaceOnUse">
<stop stop-color="#D1F2B9"/>
<stop offset="0.3" stop-color="#A5E596"/>
<stop offset="0.78" stop-color="#64D364"/>
<stop offset="1" stop-color="#4BCC51"/>
</linearGradient>
</defs>
</svg>
